<?xml version="1.0" encoding="UTF-8"?>
<svg width="424px" height="115px" viewBox="0 0 424 115" version="1.1" xmlns="http://www.w3.org/2000/svg" xmlns:xlink="http://www.w3.org/1999/xlink">
    <!-- Generator: Sketch 52.2 (67145) - http://www.bohemiancoding.com/sketch -->
    <title>logo</title>
    <desc>Created with Sketch.</desc>
    <defs>
        <linearGradient x1="0%" y1="67.3078785%" x2="92.1114153%" y2="0%" id="linearGradient-1">
            <stop stop-color="#106069" offset="0%"></stop>
            <stop stop-color="#268D98" offset="44.7960414%"></stop>
            <stop stop-color="#106069" offset="100%"></stop>
        </linearGradient>
        <polygon id="path-2" points="0.601711407 0.2091 17.881308 0.2091 17.881308 20.0436 0.601711407 20.0436"></polygon>
        <polygon id="path-4" points="0 0.408 25.3754726 0.408 25.3754726 20.787 0 20.787"></polygon>
    </defs>
    <g id="Page-1" stroke="none" stroke-width="1" fill="none" fill-rule="evenodd">
        <g id="Trang-Chủ">
            <g id="logo" transform="translate(-5.000000, -4.000000)">
                <g id="Group" fill-rule="nonzero">
                    <path d="M4.48543689,83.6763322 C27.9837764,100.500807 107.883249,130.976115 187.293306,112.524707 C266.703362,94.0732994 326.210524,6.6649694 461.301985,0.821488766 C461.301985,0.821488766 309.029802,0.547659177 4.48543689,0 C4.48543689,32.7825361 4.48543689,60.6746468 4.48543689,83.6763322 Z" id="Path-2-Copy" fill="url(#linearGradient-1)"></path>
                    <path d="M-1.85360662e-13,81.0725019 C22.1859112,96.9070693 97.6228413,125.589291 172.597691,108.223515 C247.57254,90.8577391 301.961936,8.59228386 429.508274,3.09261816 C429.508274,3.09261816 286.338849,2.83489998 -5.68434189e-13,2.31946362 C-2.25264154e-13,33.173162 -9.75729782e-14,59.4241748 -1.85360662e-13,81.0725019 Z" id="Path-2" fill="#FFFFFF"></path>
                </g>
                <g transform="translate(52.000000, 38.000000)">
                    <polygon id="Fill-1" fill="#1C4773" points="116.976333 43 114.49962 47.1304044 112.022907 43 111 43 114.007165 48 114.992075 48 118 43"></polygon>
                    <polygon id="Fill-2" fill="#1C4773" points="119 48 120 48 120 43 119 43"></polygon>
                    <polygon id="Fill-3" fill="#1C4773" points="122 43 122 48 127 48 127 47.2830162 122.913888 47.2830162 122.913888 43"></polygon>
                    <polygon id="Fill-4" fill="#1C4773" points="128 43 128 48 133 48 133 47.2830162 128.913888 47.2830162 128.913888 43"></polygon>
                    <path d="M137.032762,43 L134,48 L134.973056,48 L135.583895,46.9822328 L139.416105,46.9822328 L140.026944,48 L141,48 L137.995101,43.0454673 L137.968667,43 L137.032762,43 Z M137.500714,43.8051203 L138.986018,46.265249 L136.015411,46.265249 L137.500714,43.8051203 Z" id="Fill-5" fill="#1C4773"></path>
                    <g id="Group-56">
                        <path d="M142.566803,47.760375 C142.873913,47.921625 143.327088,47.999625 143.953293,47.999625 L145.892582,47.999625 C146.569723,47.999625 147.049863,47.929125 147.35997,47.784375 C147.828126,47.567625 148.065575,47.149125 148.065575,46.539375 L148.065575,46.204125 C148.065575,45.729375 147.897787,45.376125 147.565959,45.155625 C147.242369,44.940375 146.742753,44.836125 146.037149,44.836125 L143.972019,44.836125 C143.344316,44.836125 143.092635,44.752875 142.992263,44.682375 C142.857434,44.588625 142.78927,44.398125 142.78927,44.115375 C142.78927,43.751625 142.902377,43.526625 143.135331,43.428375 C143.340571,43.339125 143.804232,43.294125 144.513582,43.294125 L145.253643,43.294125 C145.866365,43.294125 146.304559,43.317375 146.556989,43.363875 C146.7847,43.405875 146.933012,43.485375 146.998928,43.602375 C147.034883,43.663125 147.079076,43.810875 147.085069,44.166375 L147.086567,44.263875 L147.937487,44.263875 L147.937487,43.986375 C147.937487,43.469625 147.77719,43.096875 147.461092,42.878625 C147.118027,42.640875 146.533019,42.526125 145.67386,42.526125 L144.172016,42.526125 C143.381768,42.526125 142.838708,42.621375 142.510624,42.818625 C142.130107,43.050375 141.936852,43.469625 141.936852,44.065125 C141.936852,44.755125 142.161567,45.210375 142.606502,45.416625 C142.964548,45.581625 143.702362,45.661125 144.86189,45.661125 L146.186959,45.661125 C146.702305,45.661125 146.924772,45.740625 147.020651,45.807375 C147.148738,45.896625 147.213156,46.087875 147.213156,46.375125 C147.213156,46.711125 147.134506,46.938375 146.979453,47.050875 C146.814662,47.170875 146.48508,47.231625 145.999696,47.231625 L143.831198,47.231625 C143.431206,47.231625 143.15181,47.178375 143.000502,47.071875 C142.858183,46.971375 142.78927,46.811625 142.78927,46.582125 L142.78927,46.119375 L141.936852,46.119375 L141.936852,46.596375 C141.936852,47.146875 142.148084,47.538375 142.566803,47.760375" id="Fill-6" fill="#1C4773"></path>
                        <path d="M99.6208027,46.018275 C99.6208027,45.695025 99.7226734,45.472275 99.9301601,45.338775 C100.056749,45.259275 100.203563,45.218775 100.369852,45.218775 L100.558613,45.218775 L104.094126,47.071275 C103.996,47.144775 103.742073,47.231775 103.089651,47.231775 L100.703179,47.231775 C100.258244,47.231775 99.9526316,47.154525 99.7975783,47.003775 C99.6799776,46.886025 99.6208027,46.671525 99.6208027,46.367775 L99.6208027,46.018275 Z M105.195978,46.396275 L105.195978,45.206025 L104.344308,45.206025 L104.344308,46.296525 L100.512171,44.268525 C100.423784,44.224275 100.37135,44.167275 100.348879,44.088525 C100.337643,44.057025 100.318917,43.970775 100.318917,43.736775 C100.318917,43.580775 100.354122,43.466775 100.426031,43.398525 C100.476966,43.350525 100.596814,43.293525 100.882202,43.293525 L103.196016,43.293525 C103.590765,43.293525 103.774282,43.461525 103.774282,43.822275 L103.774282,44.306025 L104.627449,44.306025 L104.627449,43.779525 C104.627449,43.207275 104.378016,42.525525 103.189274,42.525525 L100.674715,42.525525 C99.8552551,42.525525 99.4223046,42.922275 99.4223046,43.672275 C99.4223046,44.047275 99.4620042,44.298525 99.5421525,44.437275 C99.5840992,44.516775 99.6687418,44.606775 99.7968293,44.708025 C99.428297,44.749275 99.1601373,44.873775 98.9960954,45.080025 C98.8140764,45.308775 98.7256886,45.676275 98.7256886,46.203525 C98.7256886,46.841775 98.8612665,47.299275 99.1316734,47.564775 C99.4238027,47.857275 99.9339053,47.999775 100.689696,47.999775 L103.182533,47.999775 C104.056673,47.999775 104.625202,47.826525 104.912837,47.471025 L105.889597,47.978025 L106.231913,47.273025 L105.169761,46.712775 C105.188487,46.593525 105.195978,46.487775 105.195978,46.396275 Z" id="Fill-8" fill="#1C4773"></path>
                        <path d="M49.7337361,43.3512 L52.8100821,43.3512 C53.293219,43.3512 53.6205536,43.40145 53.7830973,43.4997 C53.9201734,43.58595 53.9868388,43.7547 53.9868388,44.01495 L53.9868388,44.48595 C53.9868388,44.7237 53.9164281,44.88495 53.7718616,44.9802 C53.6153103,45.0837 53.3493977,45.13545 52.9816144,45.13545 L49.7337361,45.13545 L49.7337361,43.3512 Z M49.7337361,45.90345 L53.0385422,45.90345 C53.459508,45.90345 53.6460213,45.9747 53.7299148,46.0362 C53.8864662,46.1442 53.9643673,46.3707 53.9643673,46.71045 L53.9643673,47.94345 L54.8175346,47.94345 L54.8175346,46.51245 C54.8175346,46.04745 54.6220327,45.7257 54.2362722,45.55095 C54.6602342,45.39945 54.8827019,45.06345 54.8827019,44.55945 L54.8827019,44.1402 C54.8827019,43.5807 54.7725916,43.1997 54.5471278,42.9747 C54.2827133,42.7107 53.7965802,42.5832 53.0595156,42.5832 L48.8386221,42.5832 L48.8386221,47.94345 L49.7337361,47.94345 L49.7337361,45.90345 Z" id="Fill-10" fill="#1C4773"></path>
                        <polygon id="Fill-12" fill="#1C4773" points="61.9108829 47.174775 57.5169589 47.174775 57.5169589 45.568275 61.7108867 45.568275 61.7108867 44.800275 57.5169589 44.800275 57.5169589 43.351275 61.882419 43.351275 61.882419 42.582525 56.6210958 42.582525 56.6210958 47.942775 61.9108829 47.942775"></polygon>
                        <path d="M68.9800369,45.155475 C68.6564475,44.940225 68.1560825,44.835975 67.451227,44.835975 L65.3860977,44.835975 C64.7583943,44.835975 64.5067137,44.752725 64.4070901,44.682225 C64.2722612,44.589225 64.2033487,44.397975 64.2033487,44.115225 C64.2033487,43.751475 64.3157061,43.527225 64.5501586,43.428225 C64.754649,43.338975 65.2190597,43.293975 65.9284095,43.293975 L66.6684703,43.293975 C67.2804437,43.293975 67.7186376,43.317225 67.9710673,43.363725 C68.1987783,43.405725 68.3470901,43.485225 68.4130065,43.602225 C68.4504589,43.662975 68.4946529,43.811475 68.4991471,44.166225 L68.5006452,44.263725 L69.3515654,44.263725 L69.3515654,43.986225 C69.3515654,43.469475 69.1912688,43.096725 68.8744209,42.878475 C68.5313563,42.640725 67.9470977,42.525975 67.0894361,42.525975 L65.5860939,42.525975 C64.7958468,42.525975 64.2527859,42.621225 63.9254513,42.818475 C63.5441852,43.050225 63.3501814,43.469475 63.3501814,44.064975 C63.3501814,44.754975 63.5756452,45.210225 64.0213297,45.417225 C64.3786262,45.581475 65.117189,45.660975 66.2774665,45.660975 L67.6010369,45.660975 C68.117881,45.660975 68.3395996,45.740475 68.4347289,45.807225 C68.5620673,45.896475 68.6272346,46.087725 68.6272346,46.374975 C68.6272346,46.710975 68.5493335,46.938225 68.3942802,47.050725 C68.2287403,47.171475 67.8999076,47.232225 67.4137745,47.232225 L65.2467745,47.232225 C64.845284,47.232225 64.5651395,47.178225 64.4145806,47.071725 C64.2730103,46.971225 64.2033487,46.811475 64.2033487,46.581975 L64.2033487,46.119225 L63.3501814,46.119225 L63.3501814,46.596225 C63.3501814,47.146725 63.5636605,47.538225 63.980881,47.760225 C64.2879913,47.921475 64.7419152,47.999475 65.3681205,47.999475 L67.3074095,47.999475 C67.9838011,47.999475 68.4646909,47.928975 68.7747973,47.784225 C69.2429532,47.567475 69.4804019,47.148975 69.4804019,46.539225 L69.4804019,46.203975 C69.4804019,45.729225 69.3118658,45.375975 68.9800369,45.155475" id="Fill-14" fill="#1C4773"></path>
                        <path d="M71.9871707,44.293425 C71.9871707,43.909425 72.0905395,43.646175 72.3040186,43.487925 C72.4748019,43.358925 72.7429616,43.293675 73.098011,43.293675 L75.9264217,43.293675 C76.2814711,43.293675 76.5496308,43.358925 76.7211631,43.488675 C76.931646,43.643925 77.037262,43.914675 77.037262,44.293425 L77.037262,46.232925 C77.037262,46.610925 76.931646,46.881675 76.7204141,47.037675 C76.5496308,47.166675 76.2814711,47.231925 75.9264217,47.231925 L73.098011,47.231925 C72.7429616,47.231925 72.4740529,47.166675 72.3032696,47.036925 C72.0905395,46.879425 71.9871707,46.616925 71.9871707,46.232925 L71.9871707,44.293425 Z M75.9975814,42.525675 L73.0276004,42.525675 C72.3219958,42.525675 71.8133913,42.698175 71.5152696,43.036425 C71.233627,43.348425 71.0920567,43.859925 71.0920567,44.557425 L71.0920567,45.968925 C71.0920567,46.665675 71.233627,47.177925 71.5145205,47.488425 C71.8133913,47.828175 72.3219958,47.999925 73.0276004,47.999925 L75.9975814,47.999925 C76.7024369,47.999925 77.2140376,47.828175 77.5166536,47.489175 C77.7930529,47.177175 77.932376,46.665675 77.932376,45.968925 L77.932376,44.557425 C77.932376,43.860675 77.7930529,43.349175 77.5166536,43.036425 C77.2132886,42.698175 76.7024369,42.525675 75.9975814,42.525675 Z" id="Fill-16" fill="#1C4773"></path>
                        <path d="M80.5324764,43.3512 L83.6088224,43.3512 C84.0919593,43.3512 84.4192939,43.40145 84.5818376,43.4997 C84.7189137,43.58595 84.7855791,43.7547 84.7855791,44.01495 L84.7855791,44.48595 C84.7855791,44.7237 84.7151684,44.88495 84.5706019,44.9802 C84.4140506,45.0837 84.148138,45.13545 83.7803548,45.13545 L80.5324764,45.13545 L80.5324764,43.3512 Z M83.8582559,42.5832 L79.6373624,42.5832 L79.6373624,47.94345 L80.5324764,47.94345 L80.5324764,45.90345 L83.8372825,45.90345 C84.2582483,45.90345 84.4455106,45.9747 84.5294042,46.0362 C84.6852065,46.1442 84.7638567,46.3707 84.7638567,46.71045 L84.7638567,47.94345 L85.6162749,47.94345 L85.6162749,46.51245 C85.6162749,46.04745 85.420773,45.7257 85.0357616,45.55095 C85.4589745,45.39945 85.6814422,45.06345 85.6814422,44.55945 L85.6814422,44.1402 C85.6814422,43.5807 85.5713319,43.1997 85.3458681,42.9747 C85.0814536,42.7107 84.5953205,42.5832 83.8582559,42.5832 Z" id="Fill-18" fill="#1C4773"></path>
                        <polygon id="Fill-20" fill="#1C4773" points="86.8577494 42.582525 86.8577494 43.350525 89.4636924 43.350525 89.4636924 47.942775 90.3595555 47.942775 90.3595555 43.350525 92.9654985 43.350525 92.9654985 42.582525"></polygon>
                        <path d="M95.7263449,11.913825 L108.85793,11.913825 C110.116333,11.913825 110.992721,12.061575 111.460128,12.351825 C112.023413,12.712575 112.297565,13.389825 112.297565,14.423325 L112.297565,15.809325 C112.297565,16.383825 112.297565,18.132075 109.257923,18.132075 L95.7263449,18.132075 L95.7263449,11.913825 Z M111.551512,7.143075 C111.551512,8.582325 110.721565,9.252075 108.938828,9.252075 L95.7263449,9.252075 L95.7263449,3.620325 L109.07141,3.620325 C109.747052,3.620325 110.318577,3.759825 110.775497,4.037325 C111.296835,4.344825 111.551512,4.785075 111.551512,5.382825 L111.551512,7.143075 Z M112.554489,10.224825 C113.971691,9.757575 114.688531,8.734575 114.688531,7.169325 L114.688531,5.516325 C114.688531,2.492325 112.878828,0.959325 109.311854,0.959325 L92.5893259,0.959325 L92.5893259,20.793825 L109.577018,20.793825 C111.275862,20.793825 112.684075,20.414325 113.762706,19.666575 C114.872048,18.897825 115.434584,17.806575 115.434584,16.422825 L115.434584,14.130075 C115.434584,11.993325 114.467562,10.683825 112.554489,10.224825 Z" id="Fill-22" fill="#29AAE1"></path>
                        <path d="M133.629444,11.356425 L133.629444,11.998425 L121.369003,11.998425 C121.490349,10.714425 121.801954,9.869925 122.296327,9.485175 C122.841635,9.061425 124.010152,8.846925 125.770418,8.846925 L129.126159,8.846925 C132.156064,8.846925 133.629444,9.668175 133.629444,11.356425 M134.335798,7.619175 C133.212973,6.844425 131.460197,6.452175 129.126159,6.452175 L125.450574,6.452175 C123.369714,6.452175 121.790718,6.773175 120.760775,7.405425 C119.279905,8.295675 118.528608,9.930675 118.528608,12.262425 L118.528608,15.204675 C118.528608,17.516925 119.269418,19.153425 120.730064,20.066175 C121.7263,20.690175 123.225148,21.007425 125.184661,21.007425 L129.33814,21.007425 C131.644463,21.007425 133.379262,20.709675 134.496095,20.123175 C135.791201,19.436175 136.447368,18.281175 136.447368,16.689675 L136.447368,16.158675 L133.647422,16.158675 L133.630194,16.403925 C133.565775,17.310675 133.26241,17.894925 132.704368,18.189675 C132.177787,18.470175 131.171064,18.611925 129.711916,18.611925 L126.568905,18.611925 C124.590665,18.611925 123.216159,18.358425 122.479844,17.855925 C121.727798,17.359425 121.346532,16.392675 121.346532,14.982675 L121.346532,14.393925 L136.447368,14.393925 L136.447368,12.609675 C136.447368,10.270425 135.73727,8.591925 134.335798,7.619175" id="Fill-24" fill="#29AAE1"></path>
                        <path d="M141.640753,16.289325 C141.640753,15.533325 141.848989,15.050325 142.277445,14.814075 C142.750095,14.553825 143.720114,14.420325 145.159038,14.420325 L148.674327,14.420325 C150.300513,14.420325 151.364913,14.472075 151.840559,14.574075 C153.578354,14.955825 153.578354,15.939075 153.578354,16.262325 L153.578354,16.875825 C153.578354,17.579325 153.221806,18.015825 152.456278,18.251325 C151.70573,18.491325 150.236095,18.612075 148.08857,18.612075 L145.052673,18.612075 C143.62049,18.612075 142.655715,18.456075 142.191304,18.150825 C141.825768,17.902575 141.640753,17.419575 141.640753,16.716075 L141.640753,16.289325 Z M154.284707,7.309575 C153.205327,6.732075 151.475023,6.451575 148.994171,6.451575 L145.371768,6.451575 C143.260198,6.451575 141.786068,6.730575 140.864738,7.305075 C139.916441,7.897575 139.435551,8.873325 139.435551,10.209075 L139.435551,11.139825 L142.253475,11.139825 L142.253475,10.395825 C142.253475,9.867075 142.422011,9.503325 142.768072,9.287325 C143.237726,8.994825 144.132091,8.847075 145.424951,8.847075 L148.780692,8.847075 C150.63384,8.847075 151.896738,8.992575 152.526688,9.273825 C153.23454,9.619575 153.578354,10.300575 153.578354,11.355825 L153.578354,13.147575 C153.228548,12.790575 152.812076,12.531075 152.333433,12.372075 C151.631574,12.138825 150.533468,12.024825 148.976194,12.024825 L145.287875,12.024825 C143.001027,12.024825 141.462479,12.215325 140.57935,12.609825 C139.413829,13.152075 138.822829,14.211075 138.822829,15.756075 L138.822829,16.662825 C138.822829,18.095325 139.144171,19.161825 139.77562,19.829325 C140.501449,20.610825 141.744122,21.006825 143.469932,21.006825 L148.976194,21.006825 C150.731217,21.006825 151.912468,20.898825 152.590357,20.672325 C152.967878,20.542575 153.298209,20.325825 153.578354,20.023575 L153.578354,20.793075 L156.395529,20.793075 L156.395529,11.409075 C156.395529,9.429075 155.68543,8.048325 154.284707,7.309575 Z" id="Fill-26" fill="#29AAE1"></path>
                        <path d="M173.97864,16.023075 C173.97864,17.765325 172.783157,18.612075 170.327024,18.612075 L166.465674,18.612075 C164.999035,18.612075 163.918906,18.384825 163.258244,17.938575 C162.476237,17.399325 162.094971,16.485075 162.094971,15.143325 L162.094971,12.289575 C162.094971,10.863825 162.483727,9.888075 163.253001,9.391575 C163.810294,9.030075 164.738366,8.847075 166.01175,8.847075 L170.21991,8.847075 C171.422883,8.847075 172.297024,9.021075 172.825853,9.367575 C173.439324,9.746325 173.738944,10.405575 173.738944,11.382825 L173.738944,11.967075 L176.397321,11.967075 L176.397321,11.329575 C176.397321,8.093325 174.308971,6.452325 170.193693,6.452325 L166.35856,6.452325 C164.225267,6.452325 162.611815,6.769575 161.566142,7.394325 C160.046321,8.277075 159.276298,9.897075 159.276298,12.210075 L159.276298,15.249825 C159.276298,19.069575 161.28375,21.007575 165.240229,21.007575 L170.406423,21.007575 C172.589153,21.007575 174.183879,20.619825 175.150153,19.857075 C176.136651,19.078575 176.637016,17.771325 176.637016,15.969825 L176.637016,15.305325 L173.97864,15.305325 L173.97864,16.023075 Z" id="Fill-28" fill="#29AAE1"></path>
                        <g id="Group-32" transform="translate(179.022814, 0.750000)">
                            <mask id="mask-3" fill="white">
                                <use xlink:href="#path-2"></use>
                            </mask>
                            <g id="Clip-31"></g>
                            <path d="M11.9505593,5.7021 L8.66148327,5.7021 C7.08473422,5.7021 5.87352129,5.8701 5.05855551,6.20235 C4.38590913,6.48585 3.83835399,6.9216 3.41888631,7.50285 L3.41888631,0.2091 L0.601711407,0.2091 L0.601711407,20.0436 L3.41888631,20.0436 L3.41888631,12.04635 C3.41888631,10.5126 3.82262395,9.46485 4.6203616,8.9331 C5.45030837,8.3781 7.1708749,8.09685 9.733373,8.09685 L10.3191297,8.09685 C12.3063578,8.09685 13.6553958,8.38185 14.3317875,8.9421 C14.8164224,9.3501 15.0628597,10.0896 15.0628597,11.1396 L15.0628597,20.0436 L17.8815327,20.0436 L17.8815327,10.57935 C17.8815327,7.3431 15.886065,5.7021 11.9505593,5.7021" id="Fill-30" fill="#29AAE1" mask="url(#mask-3)"></path>
                        </g>
                        <g id="Group-35">
                            <mask id="mask-5" fill="white">
                                <use xlink:href="#path-4"></use>
                            </mask>
                            <g id="Clip-34"></g>
                            <polygon id="Fill-33" fill="#1C4773" mask="url(#mask-5)" points="22.2017502 17.5575 4.41706958 0.4755 4.34665894 0.408 -7.4904943e-05 0.408 -7.4904943e-05 20.787 3.17439658 20.787 3.17439658 3.6375 20.9590772 20.7195 21.0302369 20.787 25.3754726 20.787 25.3754726 0.408 22.2017502 0.408"></polygon>
                        </g>
                        <path d="M44.4288932,17.924025 C43.759243,18.371025 42.668627,18.597525 41.1877563,18.597525 L36.3856004,18.597525 C34.9039806,18.597525 33.8238513,18.371775 33.1744255,17.925525 C32.3691973,17.372775 31.9609654,16.367025 31.9609654,14.939775 L31.9609654,12.136275 C31.9609654,10.706775 32.3691973,9.702525 33.1744255,9.148275 C33.8253494,8.702775 34.9047297,8.476275 36.3856004,8.476275 L41.1877563,8.476275 C42.6678779,8.476275 43.7577449,8.703525 44.4236498,9.146775 C45.2116498,9.701025 45.6101441,10.706025 45.6101441,12.136275 L45.6101441,14.939775 C45.6101441,16.368525 45.2116498,17.373525 44.4288932,17.924025 M46.1427183,7.202025 C44.9022924,6.449775 42.9944635,6.068025 40.4739122,6.068025 L37.0986954,6.068025 C34.5781441,6.068025 32.6703152,6.449775 31.4268932,7.204275 C29.894338,8.162775 29.1175738,9.776025 29.1175738,11.998275 L29.1175738,15.076275 C29.1175738,17.300025 29.8950871,18.904275 31.4276422,19.843275 C32.667319,20.615025 34.575897,21.006525 37.0986954,21.006525 L40.4739122,21.006525 C42.9967106,21.006525 44.9052886,20.615025 46.1442163,19.844775 C47.6775205,18.904275 48.4550338,17.299275 48.4550338,15.076275 L48.4550338,11.998275 C48.4550338,9.776025 47.6782696,8.162775 46.1427183,7.202025" id="Fill-36" fill="#1C4773"></path>
                        <polygon id="Fill-38" fill="#1C4773" points="59.4369973 18.1266 52.7727046 6.28785 49.718081 6.28785 57.8954536 20.78685 60.9785411 20.78685 69.1559137 6.28785 66.1005411 6.28785"></polygon>
                        <path d="M85.3750061,16.779675 C85.3750061,17.509425 84.9907437,17.981925 84.1989985,18.224925 C83.4222342,18.472425 81.9046601,18.597675 79.6897209,18.597675 L76.5609414,18.597675 C75.0785726,18.597675 74.0800897,18.435675 73.5962038,18.117675 C73.2111924,17.855925 73.0156905,17.350425 73.0156905,16.614675 L73.0156905,16.175175 C73.0156905,15.383925 73.235162,14.878425 73.6868388,14.629425 C74.1789643,14.357925 75.1834395,14.219175 76.6710517,14.219175 L80.2934548,14.219175 C81.9698274,14.219175 83.0694319,14.273175 83.5623065,14.378925 C84.7817589,14.646675 85.3750061,15.225675 85.3750061,16.147425 L85.3750061,16.779675 Z M86.0611354,6.948675 C84.9532913,6.356175 83.1742989,6.068175 80.6230365,6.068175 L76.8905232,6.068175 C74.7197779,6.068175 73.205949,6.353925 72.2613977,6.942675 C71.2936259,7.546425 70.8022494,8.544675 70.8022494,9.910425 L70.8022494,10.327425 L73.6471392,10.327425 L73.6471392,10.102425 C73.6471392,9.545925 73.8254129,9.164175 74.1916981,8.934675 C74.6808274,8.630925 75.6066525,8.476425 76.9452038,8.476425 L80.402816,8.476425 C82.3166373,8.476425 83.6222304,8.626425 84.2761506,8.919675 C85.0154624,9.281175 85.3750061,9.992175 85.3750061,11.091675 L85.3750061,13.010925 C85.0079719,12.619425 84.5660327,12.336675 84.0544319,12.167175 C83.3338464,11.927175 82.2057779,11.810925 80.6043103,11.810925 L76.8036335,11.810925 C74.4523673,11.810925 72.8703749,12.005925 71.9640251,12.410175 C70.7745346,12.964425 70.1715498,14.045925 70.1715498,15.625425 L70.1715498,16.559925 C70.1715498,18.028425 70.4996335,19.120425 71.1453141,19.802175 C71.886873,20.601675 73.160257,21.006675 74.9310099,21.006675 L80.6043103,21.006675 C82.4102684,21.006675 83.6237285,20.894925 84.3180973,20.663925 C84.7263293,20.524425 85.0798806,20.283675 85.3750061,19.946175 L85.3750061,20.786925 L88.2198958,20.786925 L88.2198958,11.146425 C88.2198958,9.116925 87.4933179,7.703925 86.0611354,6.948675 Z" id="Fill-40" fill="#1C4773"></path>
                        <path d="M64.8053597,36.21375 C64.8053597,36.6705 64.7027399,36.97875 64.5012456,37.1295 C64.3506867,37.242 63.9978844,37.37625 63.1716829,37.37625 L59.4878578,37.37625 C58.960527,37.37625 58.5657779,37.28025 58.3133483,37.09125 C58.0047399,36.8625 57.85493,36.477 57.85493,35.91225 L57.85493,32.988 C57.85493,32.424 58.0047399,32.03775 58.3148464,31.80825 C58.5657779,31.62 58.960527,31.524 59.4878578,31.524 L63.1394738,31.524 C63.8443293,31.524 64.1619262,31.617 64.3005004,31.69275 C64.5896335,31.85775 64.7297057,32.19375 64.7297057,32.71875 L64.7297057,33.26625 L66.0382951,33.26625 L66.0382951,32.4075 C66.0382951,30.6495 64.6068616,30.27975 63.4076335,30.27975 L59.3807437,30.27975 C58.3043597,30.27975 57.5260973,30.5445 57.0691772,31.0635 C56.6377247,31.542 56.4190023,32.3235 56.4190023,33.3855 L56.4190023,35.51475 C56.4190023,36.57675 56.6377247,37.35825 57.0676791,37.83525 C57.5260973,38.35575 58.3043597,38.6205 59.3807437,38.6205 L63.354451,38.6205 C64.446565,38.6205 65.188124,38.42025 65.6233217,38.0085 C65.9911049,37.656 66.1768692,37.06725 66.1768692,36.2565 L66.1768692,35.538 L64.8053597,35.538 L64.8053597,36.21375 Z" id="Fill-42" fill="#1C4773"></path>
                        <path d="M74.3579871,35.6454 L69.811257,35.6454 L72.0846221,31.79565 L74.3579871,35.6454 Z M71.3198426,30.36615 L66.4757399,38.5344 L68.113162,38.5344 L69.0794357,36.88965 L75.0890593,36.88965 L76.0560821,38.5344 L77.6935042,38.5344 L72.8479034,30.36615 L71.3198426,30.36615 Z" id="Fill-44" fill="#1C4773"></path>
                        <polygon id="Fill-46" fill="#1C4773" points="84.6691019 36.7488 80.2264897 30.3663 78.2916951 30.3663 78.2916951 38.53455 79.7276228 38.53455 79.7276228 32.11605 84.1912084 38.53455 85.1477445 38.53455 89.61133 32.11605 89.61133 38.53455 91.0465087 38.53455 91.0465087 30.3663 89.1124631 30.3663"></polygon>
                        <path d="M99.2075521,31.610475 L103.805217,31.610475 C104.70183,31.610475 105.086841,31.729725 105.248636,31.828725 C105.441141,31.949475 105.534773,32.191725 105.534773,32.568975 L105.534773,33.278475 C105.534773,33.621225 105.435149,33.853725 105.230659,33.988725 C105.0007,34.139475 104.608948,34.215975 104.062141,34.215975 L99.2075521,34.215975 L99.2075521,31.610475 Z M104.18124,30.366225 L97.7716243,30.366225 L97.7716243,38.534475 L99.2075521,38.534475 L99.2075521,35.459475 L104.149031,35.459475 C104.77224,35.459475 105.044894,35.562975 105.167738,35.651475 C105.390206,35.805975 105.502563,36.136725 105.502563,36.633225 L105.502563,38.534475 L106.874073,38.534475 L106.874073,36.334725 C106.874073,35.661975 106.595427,35.172975 106.059107,34.891725 C106.658347,34.643475 106.9707,34.134225 106.9707,33.390225 L106.9707,32.757225 C106.9707,31.902225 106.802164,31.317975 106.453107,30.969225 C106.047122,30.563475 105.304065,30.366225 104.18124,30.366225 Z" id="Fill-48" fill="#1C4773"></path>
                        <path d="M115.302602,35.6454 L110.756621,35.6454 L113.029237,31.79565 L115.302602,35.6454 Z M112.264457,30.36615 L107.420355,38.5344 L109.058526,38.5344 L110.024051,36.88965 L116.034423,36.88965 L117.000697,38.5344 L118.638119,38.5344 L113.792518,30.36615 L112.264457,30.36615 Z" id="Fill-50" fill="#1C4773"></path>
                        <polygon id="Fill-52" fill="#1C4773" points="127.924534 36.9465 121.129907 30.42 121.073728 30.36675 119.237059 30.36675 119.237059 38.535 120.672987 38.535 120.672987 31.9545 127.468363 38.481 127.523793 38.535 129.360462 38.535 129.360462 30.36675 127.924534 30.36675"></polygon>
                        <polygon id="Fill-54" fill="#1C4773" points="139.049791 30.36645 139.049791 33.70995 132.410217 33.70995 132.410217 30.36645 130.974289 30.36645 130.974289 38.5347 132.410217 38.5347 132.410217 34.9542 139.049791 34.9542 139.049791 38.5347 140.485719 38.5347 140.485719 30.36645"></polygon>
                    </g>
                </g>
            </g>
        </g>
    </g>
</svg>