<?xml version="1.0" standalone="no"?>
<!DOCTYPE svg PUBLIC "-//W3C//DTD SVG 1.1//EN" "http://www.w3.org/Graphics/SVG/1.1/DTD/svg11.dtd" >
<svg xmlns="http://www.w3.org/2000/svg" xmlns:xlink="http://www.w3.org/1999/xlink" version="1.1">
<metadata>
Created by FontForge 20170731 at Tue Dec 12 16:52:55 2017
 By Aleksey,,,
 2013 Klim Type Foundry. All Rights Reserved.
</metadata>
<defs>
<font id="iCielDomaineDisplay-Bold" horiz-adv-x="771" >
  <font-face 
    font-family="iCiel Domaine Display Bld"
    font-weight="700"
    font-stretch="normal"
    units-per-em="1000"
    panose-1="2 10 8 3 8 5 5 6 2 3"
    ascent="780"
    descent="-220"
    x-height="495"
    cap-height="700"
    bbox="-501 -275 1299 1111"
    underline-thickness="35"
    underline-position="-126"
    unicode-range="U+000D-FB04"
  />
<missing-glyph horiz-adv-x="500" 
 />
    <glyph glyph-name="ff" unicode="ff" horiz-adv-x="671" 
d="M21 0v2q17 11 26 19.5t14 20t6 27t1 40.5v361h-58v11l58 22v16q0 56 19 98.5t52.5 71t80.5 43t102 14.5q42 0 77.5 -13t56.5 -37q32 31 78 46t101 15q35 0 65 -6t52 -19t34.5 -32.5t12.5 -46.5q0 -38 -26.5 -60t-62.5 -22q-46 0 -67 24q21 5 34 23.5t13 53.5
q0 30 -13.5 49.5t-41.5 19.5q-34 0 -48 -28.5t-14 -70.5v-147h124l-5 -25h-119v-361q0 -25 2.5 -41t9 -27t17.5 -20t28 -19v-2h-282v2q16 11 25.5 19.5t14 20t5.5 27t1 40.5v361h-147v-361q0 -25 2.5 -41t8.5 -27t17 -20t29 -19v-2h-283zM394 532v15t1 14q-19 1 -35 6.5
t-25 14.5q21 5 33.5 23t12.5 49q0 32 -13.5 54t-45.5 22q-39 0 -57 -30t-18 -78v-127h147v37z" />
    <glyph glyph-name="fi" unicode="fi" horiz-adv-x="636" 
d="M573 495v-386q0 -25 1 -40.5t6 -27t14.5 -20t25.5 -19.5v-2h-272v2q16 11 25.5 19.5t14 20t5.5 27t1 40.5v320q0 41 -41 41h-106v-361q0 -25 2.5 -41t8.5 -27t17 -20t29 -19v-2h-283v2q17 11 26 19.5t14 20t6 27t1 40.5v361h-58v11l58 22v23q0 56 21 99.5t57 72.5t85 44
t104 15q43 0 79 -7.5t62.5 -22.5t41 -36.5t14.5 -49.5q0 -38 -28.5 -62t-71.5 -24q-27 0 -46.5 8t-31.5 19q24 6 38.5 26.5t14.5 54.5q0 35 -17.5 56.5t-54.5 21.5q-41 0 -64.5 -31.5t-23.5 -89.5v-125h326z" />
    <glyph glyph-name="fl" unicode="fl" horiz-adv-x="635" 
d="M573 109q0 -25 1 -40.5t6 -27t14.5 -20t25.5 -19.5v-2h-272v2q16 11 25.5 19.5t14 20t5.5 27t1 40.5v521q0 21 -5 41t-15.5 35.5t-27 25t-39.5 9.5q-31 0 -45.5 -26.5t-14.5 -63.5v-156h98l-5 -25h-93v-361q0 -25 2.5 -41t8.5 -27t17 -20t29 -19v-2h-283v2q17 11 26 19.5
t14 20t6 27t1 40.5v361h-58v11l58 22v29q0 57 16.5 99.5t47.5 70.5t74 41.5t95 13.5q24 0 46.5 -6t41.5 -15.5t33.5 -21t23.5 -21.5q34 10 64.5 25t60.5 38h2v-647z" />
    <glyph glyph-name="ffi" unicode="ffi" horiz-adv-x="962" 
d="M21 0v2q17 11 26 19.5t14 20t6 27t1 40.5v361h-58v11l58 22v16q0 56 19 98.5t52.5 71t80.5 43t102 14.5q46 0 83 -15t57 -42q37 34 88 51t111 17q43 0 79 -7.5t62.5 -22.5t41 -36.5t14.5 -49.5q0 -38 -28 -62t-72 -24q-27 0 -46.5 8t-31.5 19q24 6 39 26.5t15 54.5
q0 35 -18 56.5t-55 21.5q-41 0 -64.5 -31.5t-23.5 -89.5v-125h327v-386q0 -25 1 -40.5t5.5 -27t14 -20t25.5 -19.5v-2h-272v2q17 11 26 19.5t14 20t6 27t1 40.5v320q0 22 -9.5 31.5t-32.5 9.5h-106v-361q0 -25 2.5 -41t9 -27t17.5 -20t28 -19v-2h-282v2q16 11 25.5 19.5
t14 20t5.5 27t1 40.5v361h-147v-361q0 -25 2.5 -41t8.5 -27t17 -20t29 -19v-2h-283zM394 526q0 9 0.5 18t1.5 17q-42 2 -61 21q21 5 33.5 23t12.5 49q0 32 -13.5 54t-45.5 22q-39 0 -57 -30t-18 -78v-127h147v31z" />
    <glyph glyph-name="ffl" unicode="ffl" horiz-adv-x="962" 
d="M21 0v2q17 11 26 19.5t14 20t6 27t1 40.5v361h-58v11l58 22v16q0 56 19 98.5t52.5 71t80.5 43t102 14.5q42 0 76.5 -12.5t55.5 -35.5q32 30 76 44.5t98 14.5q24 0 46.5 -6t41.5 -15.5t33.5 -21t23.5 -21.5q33 10 63.5 24.5t61.5 37.5h2v-646q0 -25 1 -40.5t5.5 -27
t14 -20t25.5 -19.5v-2h-272v2q17 11 26 19.5t14 20t6 27t1 40.5v521q0 21 -5 41t-15.5 35.5t-27 25t-40.5 9.5q-31 0 -45.5 -26.5t-14.5 -63.5v-156h99l-5 -25h-94v-361q0 -25 2.5 -41t9 -27t17.5 -20t28 -19v-2h-282v2q16 11 25.5 19.5t14 20t5.5 27t1 40.5v361h-147v-361
q0 -25 2.5 -41t8.5 -27t17 -20t29 -19v-2h-283zM394 532v15t1 14q-19 1 -35 6.5t-25 14.5q21 5 33.5 23t12.5 49q0 32 -13.5 54t-45.5 22q-39 0 -57 -30t-18 -78v-127h147v37z" />
    <glyph glyph-name="f_b" unicode="fb" horiz-adv-x="971" 
d="M573 371q16 56 59 95t109 39q44 0 82 -17.5t67 -50.5t45.5 -79.5t16.5 -103.5q0 -62 -19.5 -111t-53.5 -83t-79.5 -52t-96.5 -18q-66 0 -111.5 26.5t-67.5 75.5q-22 -40 -56 -66t-83 -34q7 46 8 100t1 120v418q0 21 -5 41t-15.5 35.5t-27 25t-39.5 9.5q-31 0 -45.5 -26.5
t-14.5 -63.5v-156h98l-5 -25h-93v-361q0 -25 2.5 -41t8.5 -27t17 -20t29 -19v-2h-283v2q17 11 26 19.5t14 20t6 27t1 40.5v361h-58v11l58 22v29q0 57 16.5 99.5t47.5 70.5t74 41.5t95 13.5q24 0 46.5 -6t41.5 -15.5t33.5 -21t23.5 -21.5q34 10 64.5 25t60.5 38h2v-385z
M667 434q-38 0 -66 -38.5t-28 -101.5v-147q0 -28 7 -51.5t19.5 -40.5t29 -26.5t35.5 -9.5q52 0 75.5 56t23.5 168q0 93 -24.5 142t-71.5 49z" />
    <glyph glyph-name="f_f_b" unicode="ffb" horiz-adv-x="1297" 
d="M1029 -10q-66 0 -111 26.5t-67 75.5q-23 -40 -56.5 -66t-83.5 -34q8 46 9 100t1 120v418q0 21 -5 41t-15.5 35.5t-27 25t-40.5 9.5q-31 0 -45.5 -26.5t-14.5 -63.5v-156h99l-5 -25h-94v-361q0 -25 2.5 -41t9 -27t17.5 -20t28 -19v-2h-282v2q16 11 25.5 19.5t14 20t5.5 27
t1 40.5v361h-147v-361q0 -25 2.5 -41t8.5 -27t17 -20t29 -19v-2h-283v2q17 11 26 19.5t14 20t6 27t1 40.5v361h-58v11l58 22v16q0 56 19 98.5t52.5 71t80.5 43t102 14.5q42 0 76.5 -12.5t55.5 -35.5q32 30 76 44.5t98 14.5q24 0 46.5 -6t41.5 -15.5t33.5 -21t23.5 -21.5
q33 10 63.5 24.5t61.5 37.5h2v-384q15 56 58 95t109 39q44 0 82.5 -17.5t67 -50.5t45 -79.5t16.5 -103.5q0 -62 -19.5 -111t-53 -83t-79 -52t-97.5 -18zM394 532v15t1 14q-19 1 -35 6.5t-25 14.5q21 5 33.5 23t12.5 49q0 32 -13.5 54t-45.5 22q-39 0 -57 -30t-18 -78v-127
h147v37zM993 434q-19 0 -35.5 -10t-29.5 -28.5t-20.5 -44.5t-7.5 -57v-147q0 -56 26 -92t64 -36q52 0 75.5 56t23.5 168q0 93 -24 142t-72 49z" />
    <glyph glyph-name="f_f_h" unicode="ffh" horiz-adv-x="1292" 
d="M21 0v2q17 11 26 19.5t14 20t6 27t1 40.5v361h-58v11l58 22v16q0 56 19 98.5t52.5 71t80.5 43t102 14.5q42 0 76.5 -12.5t55.5 -35.5q32 30 76 44.5t98 14.5q24 0 46.5 -6t41.5 -15.5t33.5 -21t23.5 -21.5q33 10 63.5 24.5t61.5 37.5h2v-390q18 67 63.5 103t109.5 36
q41 0 70.5 -13.5t49.5 -36.5t29.5 -55t9.5 -68v-222q0 -25 1 -40.5t5.5 -27t14 -20t25.5 -19.5v-2h-272v2q17 11 26 19.5t14 20t6 27t1 40.5v228q0 34 -16.5 58t-51.5 24q-38 0 -61.5 -31.5t-23.5 -100.5v-178q0 -25 1 -40.5t5.5 -27t14 -20t25.5 -19.5v-2h-272v2
q17 11 26 19.5t14 20t6 27t1 40.5v521q0 21 -5 41t-15.5 35.5t-27 25t-40.5 9.5q-31 0 -45.5 -26.5t-14.5 -63.5v-156h99l-5 -25h-94v-361q0 -25 2.5 -41t9 -27t17.5 -20t28 -19v-2h-282v2q16 11 25.5 19.5t14 20t5.5 27t1 40.5v361h-147v-361q0 -25 2.5 -41t8.5 -27t17 -20
t29 -19v-2h-283zM394 532v15t1 14q-19 1 -35 6.5t-25 14.5q21 5 33.5 23t12.5 49q0 32 -13.5 54t-45.5 22q-39 0 -57 -30t-18 -78v-127h147v37z" />
    <glyph glyph-name="f_f_idieresis" unicode="ff&#xef;" horiz-adv-x="962" 
d="M21 0v2q17 11 26 19.5t14 20t6 27t1 40.5v361h-58v11l58 22v16q0 56 19 98.5t52.5 71t80.5 43t102 14.5q44 0 80.5 -13.5t56.5 -39.5q32 31 77.5 47.5t102.5 16.5q66 0 107 -29.5t41 -83.5q0 -38 -24 -64t-63 -26q-23 0 -40.5 8t-30.5 19q25 6 42 28t17 64
q0 29 -12.5 48.5t-38.5 19.5q-64 0 -64 -115v-131h327v-386q0 -25 1 -40.5t5.5 -27t14 -20t25.5 -19.5v-2h-272v2q17 11 26 19.5t14 20t6 27t1 40.5v320q0 22 -9.5 31.5t-32.5 9.5h-106v-361q0 -25 2.5 -41t9 -27t17.5 -20t28 -19v-2h-282v2q16 11 25.5 19.5t14 20t5.5 27
t1 40.5v361h-147v-361q0 -25 2.5 -41t8.5 -27t17 -20t29 -19v-2h-283zM903 553q-36 0 -62 26t-26 62q0 37 26 63.5t62 26.5q37 0 62.5 -26.5t25.5 -63.5q0 -36 -25.5 -62t-62.5 -26zM394 526q0 9 0.5 18t1.5 17q-42 2 -61 21q21 5 33.5 23t12.5 49q0 32 -13.5 54t-45.5 22
q-39 0 -57 -30t-18 -78v-127h147v31z" />
    <glyph glyph-name="f_f_j" unicode="ffj" horiz-adv-x="957" 
d="M662 -229q-34 0 -64.5 6t-53 19t-36 32.5t-13.5 45.5q0 36 28 57t66 21q23 0 41.5 -5.5t29.5 -15.5q-23 -5 -37 -24t-14 -51q0 -31 13 -50t42 -19q32 0 44.5 26t12.5 71v545q0 22 -9.5 31.5t-32.5 9.5h-106v-361q0 -25 2.5 -41t9 -27t17.5 -20t28 -19v-2h-282v2
q16 11 25.5 19.5t14 20t5.5 27t1 40.5v361h-147v-361q0 -25 2.5 -41t8.5 -27t17 -20t29 -19v-2h-283v2q17 11 26 19.5t14 20t6 27t1 40.5v361h-58v11l58 22v16q0 56 19 98.5t52.5 71t80.5 43t102 14.5q46 0 83 -15t57 -42q37 34 88 51t111 17q43 0 79 -7.5t62.5 -22.5
t41 -36.5t14.5 -49.5q0 -38 -28 -62t-72 -24q-27 0 -46.5 8t-31.5 19q24 6 39 26.5t15 54.5q0 35 -18 56.5t-55 21.5q-41 0 -64.5 -31.5t-23.5 -89.5v-125h327v-519q0 -54 -19 -92.5t-51 -63.5t-75.5 -37t-92.5 -12zM394 526q0 9 0.5 18t1.5 17q-42 2 -61 21q21 5 33.5 23
t12.5 49q0 32 -13.5 54t-45.5 22q-39 0 -57 -30t-18 -78v-127h147v31z" />
    <glyph glyph-name="f_f_k" unicode="ffk" horiz-adv-x="1280" 
d="M21 0v2q17 11 26 19.5t14 20t6 27t1 40.5v361h-58v11l58 22v16q0 56 19 98.5t52.5 71t80.5 43t102 14.5q42 0 76.5 -12.5t55.5 -35.5q32 30 76 44.5t98 14.5q24 0 46.5 -6t41.5 -15.5t33.5 -21t23.5 -21.5q33 10 63.5 24.5t61.5 37.5h2v-476h19q20 0 35.5 5t35.5 24
l88 85q33 32 33 59q0 30 -34 41v2h197v-2q-50 -15 -81.5 -34t-63.5 -48l-57 -55l121 -232q20 -37 45.5 -70t60.5 -52v-2h-252q5 28 -18 71l-82 163q-7 14 -14 20t-21 6h-12v-151q0 -25 1 -40.5t5.5 -27t14 -20t25.5 -19.5v-2h-272v2q17 11 26 19.5t14 20t6 27t1 40.5v521
q0 21 -5 41t-15.5 35.5t-27 25t-40.5 9.5q-31 0 -45.5 -26.5t-14.5 -63.5v-156h99l-5 -25h-94v-361q0 -25 2.5 -41t9 -27t17.5 -20t28 -19v-2h-282v2q16 11 25.5 19.5t14 20t5.5 27t1 40.5v361h-147v-361q0 -25 2.5 -41t8.5 -27t17 -20t29 -19v-2h-283zM394 532v15t1 14
q-19 1 -35 6.5t-25 14.5q21 5 33.5 23t12.5 49q0 32 -13.5 54t-45.5 22q-39 0 -57 -30t-18 -78v-127h147v37z" />
    <glyph glyph-name="f_h" unicode="fh" horiz-adv-x="965" 
d="M573 365q19 68 64.5 104t109.5 36q41 0 70.5 -13.5t49 -36.5t29 -55t9.5 -68v-223q0 -25 1 -40.5t6 -27t14.5 -20t25.5 -19.5v-2h-272v2q16 11 25.5 19.5t14 20t5.5 27t1 40.5v228q0 35 -16 59t-51 24q-38 0 -62 -32t-24 -100v-179q0 -25 1 -40.5t6 -27t14.5 -20
t25.5 -19.5v-2h-272v2q16 11 25.5 19.5t14 20t5.5 27t1 40.5v521q0 21 -5 41t-15.5 35.5t-27 25t-39.5 9.5q-31 0 -45.5 -26.5t-14.5 -63.5v-156h98l-5 -25h-93v-361q0 -25 2.5 -41t8.5 -27t17 -20t29 -19v-2h-283v2q17 11 26 19.5t14 20t6 27t1 40.5v361h-58v11l58 22v29
q0 57 16.5 99.5t47.5 70.5t74 41.5t95 13.5q24 0 46.5 -6t41.5 -15.5t33.5 -21t23.5 -21.5q34 10 64.5 25t60.5 38h2v-391z" />
    <glyph glyph-name="f_idieresis" unicode="f&#xef;" horiz-adv-x="635" 
d="M573 495v-386q0 -25 1 -40.5t6 -27t14.5 -20t25.5 -19.5v-2h-272v2q16 11 25.5 19.5t14 20t5.5 27t1 40.5v320q0 41 -41 41h-106v-361q0 -25 2.5 -41t8.5 -27t17 -20t29 -19v-2h-283v2q17 11 26 19.5t14 20t6 27t1 40.5v361h-58v11l58 22v23q0 54 17.5 96.5t49 72.5
t77 46t100.5 16q67 0 107.5 -29.5t40.5 -83.5q0 -38 -23.5 -64t-63.5 -26q-23 0 -40.5 8t-29.5 19q24 6 41 28t17 64q0 29 -12 48.5t-38 19.5q-64 0 -64 -115v-131h326zM583 553q-37 0 -63 26t-26 62q0 37 26 63.5t63 26.5q36 0 61.5 -26.5t25.5 -63.5q0 -36 -25.5 -62
t-61.5 -26z" />
    <glyph glyph-name="f_j" unicode="fj" horiz-adv-x="626" 
d="M336 -229q-34 0 -64.5 6t-53 19t-36 32.5t-13.5 45.5q0 36 28 57t66 21q23 0 41.5 -5.5t29.5 -15.5q-23 -5 -37 -24t-14 -51q0 -31 13 -50t42 -19q31 0 43.5 26t12.5 71v545q0 41 -41 41h-106v-361q0 -25 2.5 -41t8.5 -27t17 -20t29 -19v-2h-283v2q17 11 26 19.5t14 20
t6 27t1 40.5v361h-58v11l58 22v23q0 56 21 99.5t57 72.5t85 44t104 15q43 0 79 -7.5t62.5 -22.5t41 -36.5t14.5 -49.5q0 -38 -28.5 -62t-71.5 -24q-27 0 -46.5 8t-31.5 19q24 6 38.5 26.5t14.5 54.5q0 35 -17.5 56.5t-54.5 21.5q-41 0 -64.5 -31.5t-23.5 -89.5v-125h326
v-519q0 -54 -18.5 -92.5t-51 -63.5t-75.5 -37t-92 -12z" />
    <glyph glyph-name="f_k" unicode="fk" horiz-adv-x="954" 
d="M592 279q21 0 36 5t35 24l89 85q34 32 32 59q0 14 -9 25t-24 16v2h196v-2q-50 -15 -81 -34t-63 -48l-57 -55l121 -232q20 -37 45.5 -70t59.5 -52v-2h-252q2 13 -2 31.5t-15 39.5l-82 163q-8 14 -15 20t-20 6h-13v-151q0 -25 1 -40.5t6 -27t14.5 -20t25.5 -19.5v-2h-272v2
q16 11 25.5 19.5t14 20t5.5 27t1 40.5v521q0 21 -5 41t-15.5 35.5t-27 25t-39.5 9.5q-31 0 -45.5 -26.5t-14.5 -63.5v-156h98l-5 -25h-93v-361q0 -25 2.5 -41t8.5 -27t17 -20t29 -19v-2h-283v2q17 11 26 19.5t14 20t6 27t1 40.5v361h-58v11l58 22v29q0 57 16.5 99.5
t47.5 70.5t74 41.5t95 13.5q24 0 46.5 -6t41.5 -15.5t33.5 -21t23.5 -21.5q34 10 64.5 25t60.5 38h2v-477h19z" />
    <glyph glyph-name=".notdef" horiz-adv-x="500" 
 />
    <glyph glyph-name=".null" horiz-adv-x="0" 
 />
    <glyph glyph-name=".null" horiz-adv-x="0" 
 />
    <glyph glyph-name="nonmarkingreturn" unicode="&#xd;" horiz-adv-x="250" 
 />
    <glyph glyph-name="space" unicode=" " horiz-adv-x="200" 
 />
    <glyph glyph-name="exclam" unicode="!" horiz-adv-x="304" 
d="M154 244h-4l-112 456h228zM252 93q0 -42 -28.5 -71.5t-71.5 -29.5q-42 0 -71 29.5t-29 71.5t29 71.5t71 29.5q43 0 71.5 -29.5t28.5 -71.5z" />
    <glyph glyph-name="quotedbl" unicode="&#x22;" horiz-adv-x="502" 
d="M135 387q-10 46 -25 91q-13 41 -30.5 83t-40.5 77q9 32 37.5 52t60.5 20q33 0 61 -20t38 -52q-24 -35 -41.5 -78t-30.5 -82q-14 -45 -24 -91h-5zM362 387q-10 46 -24 91q-13 41 -30.5 83t-41.5 77q10 32 38 52t61 20q32 0 60.5 -20t37.5 -52q-23 -35 -41 -78t-30 -82
q-15 -45 -25 -91h-5z" />
    <glyph glyph-name="numbersign" unicode="#" horiz-adv-x="635" 
d="M221 217l-31 -217h-26l31 217h-154l4 26h154l30 215h-168l4 27h168l31 215h26l-31 -215h154l31 215h27l-31 -215h154l-4 -27h-154l-30 -215h169l-5 -26h-168l-31 -217h-27l31 217h-154zM255 458l-30 -215h154l30 215h-154z" />
    <glyph glyph-name="dollar" unicode="$" horiz-adv-x="593" 
d="M266 -114h-18v105q-51 4 -93 15.5t-72 30.5t-46.5 44.5t-16.5 56.5q0 40 27 64.5t70 24.5q27 0 45.5 -9t27.5 -22q-21 -3 -34.5 -22t-13.5 -48q0 -40 27.5 -71t78.5 -42v267l-21 6q-39 11 -73.5 28t-60.5 42t-41 58.5t-15 77.5q0 42 14.5 78.5t42 65t66.5 47t88 24.5v103
h18v-101q8 1 15.5 1h15.5h15t14 -1v101h17v-102q94 -8 147 -43t53 -88q0 -38 -25 -59.5t-62 -21.5q-27 0 -45.5 9.5t-27.5 20.5q22 3 36 20t14 46q0 34 -24 59t-66 35v-245l29 -9q40 -12 75 -28.5t61.5 -40.5t42 -58t15.5 -81q0 -46 -17 -85t-46.5 -69t-70.5 -49.5
t-89 -26.5v-108h-17v106q-8 -1 -17 -1.5t-18 -0.5h-25v-104zM297 691q-8 0 -15.5 -0.5t-15.5 -1.5v-226l60 -17v243q-7 1 -14 1.5t-15 0.5zM248 685q-45 -11 -70 -39.5t-25 -70.5q0 -45 24 -68t66 -37l5 -1v216zM291 9q9 0 18 0.5t17 1.5v248l-60 17v-266q6 -1 12 -1h13z
M343 14q51 11 82.5 43.5t31.5 82.5q0 45 -25.5 71t-85.5 43l-3 1v-241z" />
    <glyph glyph-name="percent" unicode="%" horiz-adv-x="697" 
d="M514 675q-18 -16 -53 -31.5t-78 -15.5q-19 0 -35 3t-33 8q14 -19 21.5 -41t7.5 -47q0 -34 -13 -63t-35.5 -50t-51.5 -33t-62 -12q-32 0 -61.5 12t-52 33t-35.5 50t-13 63t13 63t35.5 50t52 33t61.5 12q30 0 52.5 -9t44 -20t46 -20t58.5 -9q55 0 90 18t69 50l12 -9
l-388 -710h-47zM182 410q31 0 40.5 37.5t9.5 103.5t-9.5 103.5t-40.5 37.5q-30 0 -39.5 -37.5t-9.5 -103.5t9.5 -103.5t39.5 -37.5zM515 -5q-32 0 -61.5 12t-52 33.5t-35.5 50.5t-13 62q0 34 13 63t35.5 50.5t52 33.5t61.5 12q33 0 62 -12t51.5 -33.5t35.5 -50.5t13 -63
q0 -33 -13 -62t-35.5 -50.5t-51.5 -33.5t-62 -12zM515 13q31 0 40.5 37t9.5 103t-9.5 103.5t-40.5 37.5t-40 -37.5t-9 -103.5t9 -103t40 -37z" />
    <glyph glyph-name="ampersand" unicode="&#x26;" horiz-adv-x="778" 
d="M491 43q-42 -26 -91.5 -39.5t-107.5 -13.5q-49 0 -95 11.5t-81.5 34t-56.5 56.5t-21 79q0 69 50.5 111t132.5 56l-39 43q-29 32 -44.5 69.5t-15.5 73.5q0 47 18.5 82t49 58t70.5 34.5t82 11.5q46 0 85.5 -10.5t68.5 -29.5t45.5 -46t16.5 -61t-13 -60t-36 -45t-53 -31
t-65 -19l200 -224q31 53 34 107q2 38 -16 56t-61 35v3h190v-3q-21 -8 -34.5 -16t-22 -18.5t-13.5 -24.5t-9 -32q-15 -68 -50 -128l75 -84q14 -16 25.5 -27t23 -19t24.5 -15.5t29 -15.5v-2h-256zM378 423q28 23 45.5 59t17.5 81q0 54 -24.5 91.5t-74.5 37.5q-38 0 -60 -23.5
t-22 -61.5q0 -35 18 -64t47 -61zM357 32q29 0 57.5 8.5t56.5 24.5l-239 262q-43 -43 -43 -121q0 -37 11.5 -68.5t33.5 -55t53 -37t70 -13.5z" />
    <glyph glyph-name="quotesingle" unicode="'" horiz-adv-x="275" 
d="M135 387q-10 46 -25 91q-13 41 -30.5 83t-40.5 77q9 32 37.5 52t60.5 20q33 0 61 -20t38 -52q-24 -35 -41.5 -78t-30.5 -82q-14 -45 -24 -91h-5z" />
    <glyph glyph-name="parenleft" unicode="(" horiz-adv-x="371" 
d="M35 313q0 83 25.5 150.5t67.5 121t96.5 94t113.5 70.5h18q-40 -34 -69.5 -81.5t-49 -104.5t-29.5 -121t-10 -129t10 -128.5t29.5 -120.5t49 -105t69.5 -82h-18q-59 30 -113.5 70.5t-96.5 94t-67.5 121t-25.5 150.5z" />
    <glyph glyph-name="parenright" unicode=")" horiz-adv-x="371" 
d="M33 749q59 -30 113.5 -70.5t96.5 -94t67.5 -121t25.5 -150.5t-25.5 -150.5t-67.5 -121t-96.5 -94t-113.5 -70.5h-18q40 34 69.5 82t49 105t29.5 120.5t10 128.5t-10 129t-29.5 121t-49 104.5t-69.5 81.5h18z" />
    <glyph glyph-name="asterisk" unicode="*" horiz-adv-x="436" 
d="M288 749q-6 -6 -14.5 -21.5t-17.5 -36.5t-16.5 -45t-10.5 -47q21 11 41.5 25t37.5 29t29 28t15 21l44 -134q-8 5 -25.5 8.5t-40 5t-47 1t-47.5 -3.5q16 -16 36 -31.5t39.5 -27.5t35.5 -19t25 -8l-114 -83q2 9 0 26.5t-7.5 39.5t-13.5 45.5t-19 43.5q-10 -20 -18.5 -43.5
t-14 -45.5t-7.5 -39.5t0 -26.5l-114 83q9 1 25 8t35.5 19t39.5 27.5t36 31.5q-22 3 -47 3.5t-47.5 -1t-40 -5t-25.5 -8.5l44 134q3 -8 15 -21t29 -28t37.5 -29t41.5 -25q-3 23 -10.5 47t-16.5 45t-17.5 36.5t-14.5 21.5h140z" />
    <glyph glyph-name="plus" unicode="+" horiz-adv-x="479" 
d="M254 127h-30v180h-180v30h180v180h30v-180h181v-30h-181v-180z" />
    <glyph glyph-name="comma" unicode="," horiz-adv-x="249" 
d="M167 27q-8 -11 -23.5 -17.5t-36.5 -6.5q-35 0 -59 24t-24 64q0 42 27.5 68t68.5 26q48 0 77.5 -33.5t29.5 -87.5q0 -46 -16.5 -82t-45 -60t-66.5 -36.5t-81 -12.5v16q31 2 58.5 10.5t48 25t32.5 42t10 60.5z" />
    <glyph glyph-name="hyphen" unicode="-" horiz-adv-x="325" 
d="M287 317v-63h-249v63h249z" />
    <glyph glyph-name="period" unicode="." horiz-adv-x="249" 
d="M224 93q0 -42 -28.5 -71.5t-71.5 -29.5t-71.5 29.5t-28.5 71.5t28.5 71.5t71.5 29.5t71.5 -29.5t28.5 -71.5z" />
    <glyph glyph-name="slash" unicode="/" horiz-adv-x="353" 
d="M333 749l-298 -872h-35l298 872h35z" />
    <glyph glyph-name="zero" unicode="0" horiz-adv-x="691" 
d="M664 350q0 -82 -24 -148.5t-67 -113.5t-101.5 -72.5t-126.5 -25.5t-126.5 25.5t-101 72.5t-66.5 113.5t-24 148.5t24 148.5t66.5 113.5t101 72.5t126.5 25.5t126.5 -25.5t101.5 -72.5t67 -113.5t24 -148.5zM459 350q0 180 -25.5 260.5t-88.5 80.5q-62 0 -88 -80.5
t-26 -260.5q0 -179 26 -260t88 -81q63 0 88.5 81t25.5 260z" />
    <glyph glyph-name="one" unicode="1" horiz-adv-x="403" 
d="M12 5q29 11 47.5 18t29.5 15t15.5 19t4.5 30v525q0 19 -4.5 30t-16 19t-30.5 15t-49 19v5h289v-613q0 -19 4.5 -30t15.5 -19t29.5 -15t46.5 -18v-5h-382v5z" />
    <glyph glyph-name="two" unicode="2" horiz-adv-x="577" 
d="M253 692q-54 0 -81.5 -36t-27.5 -91q0 -50 24 -75.5t56 -25.5q14 0 24 3t20 11h2q-14 -45 -45.5 -64.5t-73.5 -19.5q-56 0 -93 36t-37 98q0 41 17 74.5t48 57.5t73.5 37t93.5 13q58 0 109.5 -11t90 -36t61 -63.5t22.5 -94.5q0 -57 -25.5 -103t-75 -88t-121.5 -83.5
t-166 -88.5h196q42 0 72.5 3t53.5 12t41 26t37 45h2l-27 -228h-525v2q110 108 179.5 185t109.5 137t55 111.5t15 108.5q0 30 -5.5 57t-17.5 47t-32 32t-49 12z" />
    <glyph glyph-name="three" unicode="3" horiz-adv-x="575" 
d="M263 8q26 0 45.5 14t33 38.5t20.5 58t7 72.5q0 88 -33.5 134t-106.5 46v9q35 2 58 14.5t36.5 34.5t19 51.5t5.5 65.5q0 32 -4 58.5t-13.5 46t-25 30.5t-39.5 11q-41 0 -62.5 -31t-21.5 -76q0 -39 14 -64.5t41 -24.5q10 0 19 3h2q-11 -21 -35.5 -34.5t-64.5 -13.5
q-51 0 -82 29.5t-31 77.5q0 36 17.5 64.5t47.5 48t70.5 29.5t85.5 10q56 0 104 -11.5t83 -33t55 -53t20 -72.5q0 -37 -15 -65t-40.5 -47.5t-60.5 -31t-76 -16.5q47 -3 87 -16t69.5 -36.5t46.5 -57t17 -77.5q0 -51 -22.5 -89t-62.5 -63.5t-93 -38t-115 -12.5q-50 0 -96 10.5
t-81 31.5t-56 53t-21 75q0 57 36 88.5t90 31.5q45 0 69 -14.5t35 -37.5h-2q-10 3 -21 3q-26 1 -40.5 -24t-14.5 -69q0 -57 28.5 -93.5t73.5 -36.5z" />
    <glyph glyph-name="four" unicode="4" horiz-adv-x="645" 
d="M2 194v4l338 506h152v-481h37q23 0 37.5 2.5t25 10t19 20t19.5 32.5h2v-159h-2q-11 20 -19.5 32.5t-19 20t-25 10t-37.5 2.5h-37v-72q0 -25 2.5 -42.5t8.5 -31t17 -24.5t28 -22v-2h-297v2q17 11 27.5 22t16.5 24.5t8.5 31t2.5 42.5v72h-304zM53 223h253v379z" />
    <glyph glyph-name="five" unicode="5" horiz-adv-x="570" 
d="M255 8q30 0 51 17t34 45.5t19 67t6 80.5q0 38 -8 71.5t-25 58t-43 39t-61 14.5q-38 0 -74.5 -20.5t-60.5 -46.5h-1l44 374q27 -3 56.5 -6t58.5 -5t56 -3t48 -1q59 0 99 7t70 38h2q0 -44 -8 -81t-28 -64t-54 -42t-87 -15q-23 0 -51.5 3t-57 8.5t-53.5 11.5t-42 12
l-21 -190q24 26 70 47.5t110 21.5q55 0 100 -14.5t77 -42t49.5 -66.5t17.5 -89q0 -61 -23.5 -107.5t-64 -77.5t-93.5 -47t-112 -16q-49 0 -94 10.5t-79 31t-54.5 52t-20.5 73.5q0 59 35 90t89 31q42 0 67 -15.5t35 -37.5h-2q-8 4 -20 4q-26 1 -41 -25t-15 -68
q0 -57 27.5 -92.5t72.5 -35.5z" />
    <glyph glyph-name="six" unicode="6" horiz-adv-x="619" 
d="M366 710q44 0 84.5 -8.5t71 -26t48.5 -44t18 -63.5q0 -46 -31.5 -72.5t-75.5 -26.5q-36 0 -66.5 19t-38.5 57h2q10 -8 25 -8q23 0 36.5 19t13.5 49q0 40 -23 63.5t-64 23.5t-70 -23.5t-47.5 -64.5t-27 -95t-8.5 -116q0 -14 0.5 -29.5t1.5 -29.5q20 46 61.5 75t104.5 29
q42 0 80.5 -12.5t68 -38.5t47 -65t17.5 -92q0 -57 -20.5 -101.5t-57 -75t-86 -47t-106.5 -16.5q-66 0 -121 26.5t-94 73t-60.5 109.5t-21.5 136q0 74 23 142t66.5 120t106.5 82.5t143 30.5zM414 206q0 90 -22 142.5t-70 52.5q-46 0 -69.5 -53.5t-23.5 -141.5
q0 -44 5.5 -80.5t17 -62.5t29.5 -40.5t43 -14.5q47 0 68.5 53.5t21.5 144.5z" />
    <glyph glyph-name="seven" unicode="7" horiz-adv-x="539" 
d="M543 698l-137 -219q-31 -49 -50 -106.5t-27.5 -118.5t-6.5 -123t11 -122l-194 -18q7 75 30 141t56 126t74.5 116t85.5 111l37 46h-275q-24 0 -42.5 -4.5t-33.5 -16t-28 -30t-27 -47.5h-2l21 278q21 -11 79 -11h429v-2z" />
    <glyph glyph-name="eight" unicode="8" horiz-adv-x="591" 
d="M377 432q196 -68 196 -220q0 -54 -21.5 -95.5t-59 -69.5t-87.5 -42.5t-108 -14.5q-59 0 -110 11.5t-89 33.5t-59.5 54.5t-21.5 74.5q0 31 12.5 55.5t34.5 42.5t51.5 29.5t63.5 17.5q-27 12 -51 30t-42 42t-29 53.5t-11 63.5q0 53 19.5 92.5t53 66t78 40t93.5 13.5
q48 0 91 -10t75 -29.5t50.5 -47t18.5 -63.5q0 -30 -13 -52.5t-34 -38.5t-47.5 -25t-53.5 -12zM179 586q1 -41 25 -66.5t69 -44.5l92 -38q24 21 38.5 51.5t14.5 74.5q0 59 -33 94.5t-95 35.5q-51 0 -81 -29.5t-30 -77.5zM190 303q-28 -20 -43 -52.5t-15 -77.5q0 -36 12 -66.5
t34 -52.5t52 -34t67 -12q62 0 98.5 31.5t36.5 83.5q0 50 -31 76.5t-87 50.5z" />
    <glyph glyph-name="nine" unicode="9" horiz-adv-x="619" 
d="M253 -10q-44 0 -84.5 8.5t-71 26t-48.5 44t-18 63.5q0 46 31.5 72.5t75.5 26.5q36 0 66.5 -19t38.5 -57h-2q-10 8 -25 8q-23 0 -36.5 -19t-13.5 -49q0 -40 23 -63.5t64 -23.5t70 23.5t47.5 64.5t27 95.5t8.5 115.5q0 14 -0.5 29.5t-1.5 29.5q-20 -46 -61.5 -75
t-104.5 -29q-42 0 -80.5 12.5t-68 38.5t-47 65t-17.5 92q0 57 20.5 101.5t57 75t86 47t106.5 16.5q66 0 121 -26.5t94 -73t60.5 -109.5t21.5 -136q0 -74 -23 -142t-66.5 -119.5t-106.5 -82.5t-143 -31zM205 494q0 -90 22 -142.5t70 -52.5q46 0 69.5 53.5t23.5 141.5
q0 44 -5.5 80.5t-17 62.5t-29.5 40.5t-43 14.5q-47 0 -68.5 -53.5t-21.5 -144.5z" />
    <glyph glyph-name="colon" unicode=":" horiz-adv-x="249" 
d="M224 380q0 -42 -28.5 -71.5t-71.5 -29.5t-71.5 29.5t-28.5 71.5t28.5 71.5t71.5 29.5t71.5 -29.5t28.5 -71.5zM224 93q0 -42 -28.5 -71.5t-71.5 -29.5t-71.5 29.5t-28.5 71.5t28.5 71.5t71.5 29.5t71.5 -29.5t28.5 -71.5z" />
    <glyph glyph-name="semicolon" unicode=";" horiz-adv-x="249" 
d="M224 380q0 -42 -28.5 -71.5t-71.5 -29.5t-71.5 29.5t-28.5 71.5t28.5 71.5t71.5 29.5t71.5 -29.5t28.5 -71.5zM167 27q-8 -11 -23.5 -17.5t-36.5 -6.5q-35 0 -59 24t-24 64q0 42 27.5 68t68.5 26q48 0 77.5 -33.5t29.5 -87.5q0 -46 -16.5 -82t-45 -60t-66.5 -36.5
t-81 -12.5v16q31 2 58.5 10.5t48 25t32.5 42t10 60.5z" />
    <glyph glyph-name="less" unicode="&#x3c;" horiz-adv-x="351" 
d="M312 494v-35l-243 -139l243 -139v-35l-284 165v18z" />
    <glyph glyph-name="equal" unicode="=" horiz-adv-x="484" 
d="M438 403v-30h-392v30h392zM438 273v-30h-392v30h392z" />
    <glyph glyph-name="greater" unicode="&#x3e;" horiz-adv-x="351" 
d="M39 146v35l243 139l-243 139v35l284 -165v-18z" />
    <glyph glyph-name="question" unicode="?" horiz-adv-x="555" 
d="M260 692q-51 0 -82 -30t-31 -73q0 -35 18.5 -57.5t50.5 -22.5q5 0 13.5 1t14.5 5l2 -1q-11 -32 -37.5 -52t-68.5 -20q-23 0 -44 8t-36.5 22.5t-24.5 35t-9 46.5q0 36 17.5 64.5t49 49t74.5 31.5t93 11q61 0 110.5 -14t85 -40.5t54.5 -63t19 -81.5q0 -47 -21 -86.5
t-56 -69.5t-81.5 -50t-96.5 -28v-40h-20v183q62 20 95.5 57t33.5 98q0 24 -8 45t-23.5 37t-38.5 25.5t-53 9.5zM263 194q43 0 71.5 -29.5t28.5 -71.5t-28.5 -71.5t-71.5 -29.5q-42 0 -70.5 29.5t-28.5 71.5t28.5 71.5t70.5 29.5z" />
    <glyph glyph-name="at" unicode="@" horiz-adv-x="918" 
d="M658 159q-9 -32 0.5 -50t35.5 -18q23 0 47.5 16.5t45 48t34 76t13.5 101.5q0 75 -27.5 132.5t-74 96.5t-108.5 59t-130 20q-87 0 -157 -34.5t-120 -92t-77 -133.5t-27 -159q0 -88 29.5 -155.5t79 -113.5t116 -69t139.5 -23q94 0 173 24.5t142 78.5l2 -4q-57 -63 -141 -94
t-176 -31q-91 0 -170.5 24t-139 72t-93.5 121t-34 171q0 91 34 171t94.5 139.5t143.5 94t182 34.5q78 0 148 -22t122.5 -64.5t83 -103.5t30.5 -139q0 -72 -20.5 -127t-54 -92t-75.5 -56t-86 -19q-60 0 -95.5 26t-42.5 71q-23 -46 -57.5 -71.5t-87.5 -25.5q-61 0 -99 42
t-38 113q0 54 16.5 103t47.5 86.5t74 59.5t97 22q53 0 81 -23.5t36 -57.5q27 32 70.5 52t87.5 20zM550 340q10 41 -1.5 62t-36.5 21q-24 0 -47.5 -23.5t-41.5 -60.5t-29 -80.5t-11 -84.5q0 -32 11 -56.5t34 -24.5q32 0 57 37.5t37 91.5z" />
    <glyph glyph-name="A" unicode="A" horiz-adv-x="745" 
d="M0 0v2q28 18 49.5 46t43.5 75l275 587h4l292 -598q11 -23 20.5 -40t18.5 -29.5t19 -22t23 -18.5v-2h-315v2q22 13 32 26t10 30q0 14 -3.5 27.5t-11.5 29.5l-43 91h-248l-34 -75q-13 -29 -13 -54q0 -23 13.5 -42.5t41.5 -32.5v-2h-174zM400 235l-113 241l-108 -241h221z
" />
    <glyph glyph-name="B" unicode="B" horiz-adv-x="708" 
d="M25 2q17 11 27.5 22t16.5 24.5t8.5 31t2.5 42.5v457q0 25 -2.5 42.5t-8.5 31t-16.5 24t-27.5 21.5v2h367q56 0 102.5 -9.5t79.5 -30.5t51.5 -54t18.5 -81q0 -37 -15 -66t-40.5 -49.5t-59.5 -32.5t-72 -14q41 -2 82 -12.5t73.5 -31.5t53 -53.5t20.5 -78.5
q0 -51 -20.5 -86.5t-58 -58t-88.5 -32.5t-113 -10h-381v2zM322 371q66 0 105 39.5t39 111.5q0 73 -39 112t-105 39h-54v-302h54zM337 27q81 0 123.5 41t42.5 119q0 77 -42.5 118t-123.5 41h-69v-319h69z" />
    <glyph glyph-name="C" unicode="C" horiz-adv-x="685" 
d="M646 472q-19 47 -42 87t-51 68.5t-60.5 44.5t-70.5 16q-46 0 -82.5 -24t-61 -65.5t-37.5 -96.5t-13 -118q0 -71 18.5 -126.5t50.5 -93.5t75 -58t92 -20q62 0 112.5 26.5t84.5 96.5l6 -2q-26 -101 -102.5 -159t-194.5 -58q-74 0 -137 25t-109 71t-72 110.5t-26 143.5
q0 82 30 150t81 117t119.5 76t146.5 27q34 0 60.5 -4.5t47.5 -10.5t37 -10.5t28 -4.5q20 0 34.5 8t30.5 22l7 -238h-2z" />
    <glyph glyph-name="D" unicode="D" horiz-adv-x="776" 
d="M25 2q17 11 27.5 22t16.5 24.5t8.5 31t2.5 42.5v457q0 25 -2.5 42.5t-8.5 31t-16.5 24t-27.5 21.5v2h299q93 0 171 -21t134.5 -64t88 -108.5t31.5 -153.5q0 -90 -31.5 -156.5t-87.5 -110t-132 -65t-165 -21.5h-308v2zM320 25q111 0 169.5 84t58.5 244q0 150 -59.5 236
t-173.5 86h-47v-650h52z" />
    <glyph glyph-name="E" unicode="E" horiz-adv-x="662" 
d="M515 700q25 0 42 2t28 7l34 -194h-2q-22 38 -43.5 67t-48.5 49.5t-61.5 31t-81.5 10.5h-114v-297h91q30 0 52.5 4.5t39 17.5t29.5 35t25 57h2v-252h-2q-12 35 -25 56t-29.5 33t-39 16t-52.5 4h-91v-320h130q50 0 86 13.5t64 37.5t50 56.5t44 69.5h2l-32 -204h-587v2
q17 11 27.5 22t16.5 24.5t8.5 31t2.5 42.5v457q0 25 -2.5 42.5t-8.5 31t-16.5 24t-27.5 21.5v2h490z" />
    <glyph glyph-name="F" unicode="F" horiz-adv-x="628" 
d="M268 119q0 -24 3.5 -41t12 -30t23.5 -23.5t38 -22.5v-2h-320v2q17 11 27.5 22t16.5 24.5t8.5 31t2.5 42.5v457q0 25 -2.5 42.5t-8.5 31t-16.5 24t-27.5 21.5v2h480q26 0 43 2t28 7l34 -194h-2q-22 38 -43.5 67t-48.5 49.5t-61.5 31t-81.5 10.5h-105v-312h94
q30 0 52.5 4.5t39 17.5t29 35t24.5 57h2v-252h-2q-12 35 -24.5 56t-29 33t-39 16t-52.5 4h-94v-213z" />
    <glyph glyph-name="G" unicode="G" horiz-adv-x="769" 
d="M427 688q-48 0 -84.5 -24.5t-61.5 -69.5t-38 -108t-13 -141q0 -70 11 -130.5t32 -104.5t52 -69.5t71 -25.5q59 0 91.5 37t32.5 103v53q0 25 -2.5 42.5t-8.5 31t-16.5 24t-27.5 21.5v2h293v-2q-17 -11 -27.5 -21.5t-16.5 -24t-8.5 -31t-2.5 -42.5v-218h-2l-87 100
q-35 -42 -94 -71t-128 -29q-81 0 -148.5 25.5t-115.5 72t-75 112t-27 145.5q0 82 30.5 149.5t83 115.5t122 74t147.5 26q35 0 63 -4.5t49.5 -10.5t38 -10.5t28.5 -4.5q20 0 34.5 8t30.5 22l7 -238h-2q-20 47 -44.5 86.5t-53.5 68.5t-62.5 45t-70.5 16z" />
    <glyph glyph-name="H" unicode="H" horiz-adv-x="826" 
d="M80 579q0 25 -2.5 42.5t-8.5 31t-16.5 24t-27.5 21.5v2h298v-2q-16 -11 -27 -21.5t-17 -24t-8.5 -31t-2.5 -42.5v-202h289v202q0 25 -2.5 42.5t-8.5 31t-16.5 24t-27.5 21.5v2h299v-2q-17 -11 -27.5 -21.5t-16.5 -24t-8.5 -31t-2.5 -42.5v-457q0 -25 2.5 -42.5t8.5 -31
t16.5 -24.5t27.5 -22v-2h-299v2q17 11 27.5 22t16.5 24.5t8.5 31t2.5 42.5v225h-289v-225q0 -25 2.5 -42.5t8.5 -31t17 -24.5t27 -22v-2h-298v2q17 11 27.5 22t16.5 24.5t8.5 31t2.5 42.5v457z" />
    <glyph glyph-name="I" unicode="I" horiz-adv-x="348" 
d="M268 122q0 -25 2.5 -42.5t8.5 -31t17 -24.5t27 -22v-2h-298v2q17 11 27.5 22t16.5 24.5t8.5 31t2.5 42.5v457q0 25 -2.5 42.5t-8.5 31t-16.5 24t-27.5 21.5v2h298v-2q-16 -11 -27 -21.5t-17 -24t-8.5 -31t-2.5 -42.5v-457z" />
    <glyph glyph-name="J" unicode="J" horiz-adv-x="607" 
d="M350 579q0 25 -2.5 42.5t-8.5 31t-16.5 24t-27.5 21.5v2h299v-2q-17 -11 -27.5 -21.5t-16.5 -24t-8.5 -31t-2.5 -42.5v-359q0 -63 -23.5 -107t-62.5 -71t-90.5 -39.5t-108.5 -12.5q-47 0 -92 10.5t-80.5 31.5t-57 53t-21.5 74q0 56 37.5 86t91.5 30q31 0 57 -10.5
t41 -30.5q-38 1 -56 -28.5t-18 -71.5q0 -52 24.5 -88.5t73.5 -36.5q51 0 73.5 38.5t22.5 107.5v424z" />
    <glyph glyph-name="K" unicode="K" horiz-adv-x="769" 
d="M25 2q17 11 27.5 22t16.5 24.5t8.5 31t2.5 42.5v457q0 25 -2.5 42.5t-8.5 31t-16.5 24t-27.5 21.5v2h298v-2q-16 -11 -27 -21.5t-17 -24t-8.5 -31t-2.5 -42.5v-250l285 268q26 24 26 49q0 34 -40 52v2h206v-2q-51 -20 -88 -47.5t-73 -60.5l-127 -120l216 -359
q47 -74 106 -109v-2h-318v2q14 8 20 16t6 22t-7 30.5t-21 42.5l-143 228l-48 -45v-174q0 -25 2.5 -42.5t8.5 -31t17 -24.5t27 -22v-2h-298v2z" />
    <glyph glyph-name="L" unicode="L" horiz-adv-x="643" 
d="M323 698q-16 -11 -27 -21.5t-17 -24t-8.5 -31t-2.5 -42.5v-552h114q50 0 85 13t62.5 38t51 62.5t50.5 86.5h2l-37 -227h-571v2q17 11 27.5 22t16.5 24.5t8.5 31t2.5 42.5v457q0 25 -2.5 42.5t-8.5 31t-16.5 24t-27.5 21.5v2h298v-2z" />
    <glyph glyph-name="M" unicode="M" horiz-adv-x="903" 
d="M112 158q0 -62 18.5 -99t63.5 -57v-2h-189v2q39 22 57 57t18 92v428q0 25 -2.5 42.5t-8.5 31t-16.5 24t-27.5 21.5v2h252l186 -439l181 439h234v-2q-17 -11 -27.5 -21.5t-16.5 -24t-8.5 -31t-2.5 -42.5v-456q0 -25 3 -43t9.5 -31.5t18 -24.5t27.5 -22v-2h-304v2
q17 11 28 22t17.5 24.5t9.5 31.5t3 43v485l-253 -619h-4l-266 620v-451z" />
    <glyph glyph-name="N" unicode="N" horiz-adv-x="724" 
d="M722 698q-39 -22 -56.5 -57t-17.5 -92v-552h-45l-491 609v-448q0 -62 18.5 -99t63.5 -57v-2h-189v2q39 22 57 57t18 92v428q0 25 -2.5 42.5t-8.5 31t-16.5 24t-27.5 21.5v2h257l334 -414v256q0 62 -19 99t-64 57v2h189v-2z" />
    <glyph glyph-name="O" unicode="O" 
d="M745 350q0 -79 -27 -145t-75 -114t-114 -74.5t-143 -26.5q-78 0 -144 26.5t-114 74.5t-75 114t-27 145t27 145t75 114t114 74.5t144 26.5q77 0 143 -26.5t114 -74.5t75 -114t27 -145zM539 350q0 165 -33.5 252.5t-119.5 87.5t-120 -87.5t-34 -252.5t34 -252.5t120 -87.5
t119.5 87.5t33.5 252.5z" />
    <glyph glyph-name="P" unicode="P" horiz-adv-x="678" 
d="M268 119q0 -24 3.5 -41t12 -30t23.5 -23.5t38 -22.5v-2h-320v2q17 11 27.5 22t16.5 24.5t8.5 31t2.5 42.5v457q0 25 -2.5 42.5t-8.5 31t-16.5 24t-27.5 21.5v2h367q63 0 113.5 -13.5t86.5 -39.5t55 -64t19 -88q0 -49 -19 -87.5t-54.5 -64.5t-86 -39.5t-112.5 -13.5h-126
v-171zM327 317q80 0 118.5 49.5t38.5 128.5t-38.5 128.5t-118.5 49.5h-59v-356h59z" />
    <glyph glyph-name="Q" unicode="Q" 
d="M654 -171q-40 0 -68 15t-48 39.5t-33.5 55.5t-25.5 62q-47 -11 -93 -11q-78 0 -144 26.5t-114 74.5t-75 114t-27 145t27 145t75 114t114 74.5t144 26.5q77 0 143 -26.5t114 -74.5t75 -114t27 -145q0 -104 -46 -184.5t-124 -126.5q14 -19 28 -37t30.5 -31.5t36 -21.5
t43.5 -8q23 0 43 10t33 32h3q-2 -72 -37.5 -113t-100.5 -41zM232 350q0 -97 11 -167.5t37 -112.5q11 41 40.5 69.5t80.5 28.5q37 0 64 -13.5t48 -35.5q14 42 20 100t6 131q0 165 -33.5 252.5t-119.5 87.5t-120 -87.5t-34 -252.5zM386 10q48 0 79 28q-17 43 -37.5 73
t-56.5 30q-29 0 -50.5 -24.5t-27.5 -61.5l-7 5q36 -50 100 -50z" />
    <glyph glyph-name="R" unicode="R" horiz-adv-x="759" 
d="M424 700q56 0 104 -10.5t83 -33t54.5 -58t19.5 -86.5q0 -44 -19 -77.5t-51 -56t-73.5 -34t-86.5 -11.5q81 -5 125.5 -36t65.5 -94l26 -78q8 -25 17 -43.5t20.5 -32.5t27 -25t36.5 -22v-2h-247q-17 20 -29 47t-22 61l-34 122q-6 21 -14.5 38t-22 29.5t-32.5 19.5t-46 7
h-58v-202q0 -25 2.5 -42.5t8.5 -31t17 -24.5t27 -22v-2h-298v2q17 11 27.5 22t16.5 24.5t8.5 31t2.5 42.5v457q0 25 -2.5 42.5t-8.5 31t-16.5 24t-27.5 21.5v2h399zM342 351q69 0 107 42t38 118q0 75 -36.5 118.5t-108.5 43.5h-74v-322h74z" />
    <glyph glyph-name="S" unicode="S" horiz-adv-x="589" 
d="M289 690q-51 0 -85.5 -28.5t-34.5 -80.5q0 -30 12.5 -51.5t34 -36.5t49.5 -26t59 -21q41 -13 83.5 -28.5t77 -41t56.5 -65.5t22 -102q0 -53 -21.5 -94t-58.5 -68.5t-85.5 -42t-102.5 -14.5q-31 0 -57 4.5t-48.5 10t-41 10t-34.5 4.5q-20 0 -36.5 -8t-33.5 -21l-18 232h2
q25 -48 55.5 -87t65 -67t71.5 -43t74 -15q62 0 99 30.5t37 88.5q0 36 -17 59.5t-45 40t-63.5 28.5t-72.5 25q-37 12 -73 27.5t-64 39.5t-45.5 60t-17.5 88q0 49 18.5 88.5t52.5 67t81.5 42.5t104.5 15q28 0 52 -4.5t44.5 -9.5t38 -9.5t32.5 -4.5q20 0 34 9t26 19l4 -202h-2
q-23 40 -47 73.5t-51.5 57.5t-59.5 37.5t-71 13.5z" />
    <glyph glyph-name="T" unicode="T" horiz-adv-x="764" 
d="M648 700q26 0 42.5 2t27.5 7l34 -237h-2q-32 51 -57 89t-50.5 63t-54.5 37.5t-69 12.5h-43v-555q0 -25 2.5 -42t9.5 -30t18 -23.5t27 -21.5v-2h-302v2q17 11 28 21.5t17.5 23.5t9 30t2.5 42v555h-43q-40 0 -69 -12.5t-54.5 -37.5t-50.5 -63t-57 -89h-2l34 237
q11 -5 27.5 -7t42.5 -2h532z" />
    <glyph glyph-name="U" unicode="U" horiz-adv-x="728" 
d="M654 271q0 -70 -20 -122.5t-56.5 -88t-88 -53t-114.5 -17.5q-67 0 -123 17.5t-96.5 53t-63 88.5t-22.5 124v306q0 25 -2.5 42.5t-8.5 31t-16.5 24t-27.5 21.5v2h299v-2q-16 -11 -27 -21.5t-17 -24t-8.5 -31t-2.5 -42.5v-304q0 -107 43 -165.5t131 -58.5q41 0 75.5 14.5
t60 43t39.5 70t14 95.5v268q0 62 -18.5 99t-63.5 57v2h189v-2q-39 -22 -57 -57t-18 -92v-278z" />
    <glyph glyph-name="V" unicode="V" horiz-adv-x="732" 
d="M607 569q13 29 13 54q0 49 -55 75v2h174v-2q-28 -18 -49.5 -46t-43.5 -75l-275 -587h-4l-292 598q-11 23 -20.5 40t-18.5 29.5t-19 22t-24 18.5v2h312v-2q-22 -13 -32 -26t-10 -30q0 -14 3.5 -27.5t11.5 -29.5l171 -364z" />
    <glyph glyph-name="W" unicode="W" horiz-adv-x="985" 
d="M315 -10h-5l-243 598q-19 47 -35 69.5t-39 40.5v2h298v-2q-20 -12 -30 -25.5t-10 -32.5q0 -23 12 -55l130 -329l87 228l-40 104q-19 47 -34.5 69.5t-38.5 40.5v2h293v-2q-20 -12 -30 -25.5t-10 -32.5q0 -13 3.5 -26t8.5 -29l118 -334l121 322q8 24 8 42q0 53 -55 83v2
h170v-2q-25 -19 -47 -47t-39 -73l-232 -588h-5l-176 457z" />
    <glyph glyph-name="X" unicode="X" horiz-adv-x="745" 
d="M-2 0v2q36 20 63 46t57 65l171 221l-168 255q-29 44 -51.5 66.5t-49.5 42.5v2h306v-2q-12 -11 -17.5 -21.5t-5.5 -24.5t6.5 -28t16.5 -29l102 -155l112 145q10 14 16 28t6 28q0 16 -9 30.5t-29 26.5v2h175v-2q-38 -20 -64.5 -46t-57.5 -65l-133 -171l202 -305
q29 -43 51.5 -66t49.5 -43v-2h-306v2q11 11 17 21.5t6 24.5t-6.5 28t-17.5 29l-135 204l-146 -189q-22 -30 -22 -58q1 -17 9.5 -32.5t28.5 -27.5v-2h-177z" />
    <glyph glyph-name="Y" unicode="Y" horiz-adv-x="707" 
d="M577 580q7 12 11 24t4 24q0 20 -11.5 38t-37.5 32v2h170v-2q-32 -23 -53.5 -49t-44.5 -64l-175 -290v-176q0 -25 2.5 -42t9 -30t17.5 -23.5t28 -21.5v-2h-293v2q17 11 28 21.5t17.5 23.5t9 30t2.5 42v176l-178 293q-23 38 -42 62.5t-48 47.5v2h312v-2q-20 -15 -28.5 -28
t-8.5 -31q0 -22 14 -46l148 -258z" />
    <glyph glyph-name="Z" unicode="Z" horiz-adv-x="694" 
d="M21 2l420 671h-163q-44 0 -76 -13t-58 -37.5t-49 -58.5t-49 -76h-2l34 221q11 -5 28 -7t42 -2h514v-2l-410 -671h165q47 0 80 11.5t61 36t53.5 63.5t57.5 93h2l-31 -231h-619v2z" />
    <glyph glyph-name="bracketleft" unicode="[" horiz-adv-x="355" 
d="M337 749v-3l-115 -37v-791l115 -38v-3h-258v872h258z" />
    <glyph glyph-name="backslash" unicode="\" horiz-adv-x="353" 
d="M318 -123l-298 872h35l298 -872h-35z" />
    <glyph glyph-name="bracketright" unicode="]" horiz-adv-x="355" 
d="M18 -123v3l115 38v791l-115 37v3h258v-872h-258z" />
    <glyph glyph-name="asciicircum" unicode="^" horiz-adv-x="450" 
d="M410 412h-53l-132 215l-131 -215h-54l183 298h4z" />
    <glyph glyph-name="underscore" unicode="_" horiz-adv-x="325" 
d="M287 -59v-64h-249v64h249z" />
    <glyph glyph-name="a" unicode="a" horiz-adv-x="565" 
d="M585 37q-19 -21 -52 -33.5t-69 -12.5q-61 0 -92.5 24t-38.5 65q0 3 -1 12.5t-1 13.5q-12 -51 -54.5 -82t-106.5 -31q-29 0 -56 7.5t-47.5 23t-32.5 39t-12 55.5q0 42 19 69t51.5 43.5t74 26.5t86.5 18l76 14v97q0 19 -4 37t-13 32.5t-23.5 23t-35.5 8.5q-35 0 -53 -22
t-18 -54q0 -61 48 -61q9 0 19 3q-15 -29 -42.5 -44t-64.5 -15q-39 0 -67 22.5t-28 61.5q0 29 15.5 52.5t43 40t66.5 25.5t86 9q124 0 186.5 -40.5t62.5 -134.5q0 -46 -1 -93t-1 -101q0 -49 10 -75t47 -26q5 0 11.5 1t11.5 3v-2zM287 261q-48 -10 -69.5 -38.5t-21.5 -77.5
q0 -38 14.5 -60.5t43.5 -22.5q35 0 54.5 30t19.5 73l1 106z" />
    <glyph glyph-name="b" unicode="b" horiz-adv-x="635" 
d="M367 -10q-66 0 -111.5 26.5t-67.5 75.5q-22 -40 -56 -66t-83 -34q7 46 8 100t1 120v426q0 25 -2.5 42t-9.5 29t-18 20.5t-29 17.5v2h238v-378q16 56 58.5 95t109.5 39q44 0 82 -17.5t67 -50.5t45.5 -79.5t16.5 -103.5q0 -62 -19.5 -111t-53.5 -83t-79.5 -52t-96.5 -18z
M427 243q0 93 -24.5 142t-71.5 49q-38 0 -66 -38.5t-28 -101.5v-147q0 -28 7 -51.5t19.5 -40.5t29 -26.5t35.5 -9.5q52 0 75.5 56t23.5 168z" />
    <glyph glyph-name="c" unicode="c" horiz-adv-x="512" 
d="M308 488q-26 0 -45.5 -16t-32 -43.5t-19 -65t-6.5 -81.5q0 -103 42 -156.5t112 -53.5q43 0 80 21t60 68l6 -3q-21 -81 -83 -124.5t-146 -43.5q-52 0 -98.5 17t-81.5 49t-56 78t-21 104q0 63 22 112.5t61 84t91.5 52.5t112.5 18q41 0 75.5 -8.5t59.5 -25t39.5 -40.5
t14.5 -55q0 -45 -29 -68t-65 -23q-40 0 -62.5 18t-24.5 40q9 -3 18 -3q28 0 40 20t12 49q0 36 -19 57.5t-57 21.5z" />
    <glyph glyph-name="d" unicode="d" horiz-adv-x="640" 
d="M398 638q0 25 -3 42t-9.5 29t-18 20.5t-29.5 17.5v2h239v-640q0 -24 1.5 -39.5t6.5 -27t14.5 -20.5t25.5 -20v-2h-227v124q-16 -56 -59 -95t-109 -39q-43 0 -81.5 17.5t-67.5 50.5t-45.5 79.5t-16.5 104.5q0 60 17.5 108.5t48 83t71.5 53t87 18.5q62 0 100.5 -31
t54.5 -81v245zM304 61q38 0 66 36.5t28 96.5v114q0 68 -29 108t-67 40q-48 0 -71 -54t-23 -160q0 -88 24.5 -134.5t71.5 -46.5z" />
    <glyph glyph-name="e" unicode="e" horiz-adv-x="536" 
d="M281 505q60 0 105 -18t74 -50t43.5 -74.5t14.5 -92.5h-318q0 -94 44.5 -146t116.5 -52q46 0 84 21t61 68l7 -3q-22 -81 -84.5 -124.5t-148.5 -43.5q-54 0 -101.5 17t-83 50t-56 81t-20.5 109q0 59 21 106.5t56.5 81.5t83 52t101.5 18zM346 291q0 42 -2 78t-9 62.5
t-20 41.5t-34 15q-39 0 -58.5 -54t-21.5 -143h145z" />
    <glyph glyph-name="f" unicode="f" horiz-adv-x="345" 
d="M10 470v11l58 22v29q0 57 18 99.5t50 70.5t76 41.5t97 13.5q35 0 64.5 -6t52 -19t35 -32.5t12.5 -46.5q0 -38 -26.5 -60t-62.5 -22q-22 0 -40 6.5t-28 17.5q22 5 34.5 23.5t12.5 53.5q0 30 -13 49.5t-41 19.5q-35 0 -48.5 -28.5t-13.5 -70.5v-147h124l-5 -25h-119v-361
q0 -25 4.5 -41.5t14 -28t24 -20t34.5 -17.5v-2h-303v2q17 11 26 19.5t14 20t6 27t1 40.5v361h-58z" />
    <glyph glyph-name="g" unicode="g" horiz-adv-x="584" 
d="M569 -33q0 -50 -26.5 -87t-70 -61t-100.5 -36t-119 -12q-44 0 -88.5 5t-80.5 17t-58.5 32.5t-22.5 51.5q0 32 32.5 53.5t94.5 24.5q-45 10 -75.5 40t-30.5 79q0 48 33.5 81.5t79.5 46.5q-48 21 -72 57.5t-24 81.5q0 36 15 66t44 51.5t71.5 34t96.5 12.5q102 0 160 -43
q8 13 17 27t21 26t27.5 19.5t35.5 7.5q39 0 61.5 -20t22.5 -55q0 -22 -8.5 -37t-22 -24.5t-29.5 -13.5t-32 -4v2q12 15 12 35t-12 35t-38 15q-14 0 -25.5 -6t-20.5 -15q60 -43 60 -113q0 -36 -15 -66t-44.5 -51.5t-72 -34t-97.5 -12.5q-66 0 -116 18q-18 -7 -30 -17.5
t-12 -26.5q0 -36 48 -36h217q88 0 141 -37.5t53 -110.5zM268 489q-30 0 -42.5 -38t-12.5 -110q0 -73 12.5 -110t42.5 -37q31 0 43.5 37t12.5 110q0 72 -12.5 110t-43.5 38zM253 -211q40 0 74.5 6t60.5 18t41 30t15 42q0 35 -23 50.5t-68 15.5h-166q-41 0 -65.5 -17
t-24.5 -55q0 -23 12.5 -40t33.5 -28t49.5 -16.5t60.5 -5.5z" />
    <glyph glyph-name="h" unicode="h" horiz-adv-x="635" 
d="M243 365q19 68 64.5 104t109.5 36q41 0 70.5 -13.5t49 -36.5t29 -55t9.5 -68v-223q0 -25 1 -40.5t6 -27t14.5 -20t25.5 -19.5v-2h-272v2q16 11 25.5 19.5t14 20t5.5 27t1 40.5v228q0 35 -16 59t-51 24q-38 0 -62 -32t-24 -100v-179q0 -25 1 -40.5t6 -27t14.5 -20
t25.5 -19.5v-2h-272v2q16 11 25.5 19.5t14 20t5.5 27t1 40.5v529q0 25 -2.5 42t-9.5 29t-18 20.5t-29 17.5v2h238v-384z" />
    <glyph glyph-name="i" unicode="i" horiz-adv-x="309" 
d="M55 651q0 41 28.5 68t71.5 27q44 0 73 -27t29 -68t-29 -68.5t-73 -27.5q-43 0 -71.5 27.5t-28.5 68.5zM247 109q0 -25 1 -40.5t6 -27t14.5 -20t25.5 -19.5v-2h-273v2q17 11 26 19.5t14 20t6 27t1 40.5v275q0 26 -1.5 42t-7 27.5t-16 20.5t-28.5 19v2h232v-386z" />
    <glyph glyph-name="j" unicode="j" horiz-adv-x="293" 
d="M48 651q0 41 28.5 68t71.5 27q44 0 73 -27t29 -68t-29 -68.5t-73 -27.5q-43 0 -71.5 27.5t-28.5 68.5zM2 -229q-34 0 -64.5 6t-53 19t-36 32.5t-13.5 45.5q0 36 28 57t66 21q23 0 41.5 -5.5t29.5 -15.5q-23 -5 -37 -24t-14 -51q0 -31 13 -50t42 -19q32 0 44.5 26t12.5 71
v500q0 26 -2 42t-7.5 27.5t-15.5 20.5t-28 19v2h232v-519q0 -54 -19 -92.5t-51 -63.5t-75.5 -37t-92.5 -12z" />
    <glyph glyph-name="k" unicode="k" horiz-adv-x="624" 
d="M262 279q21 0 36 5t35 24l89 85q34 32 32 59q0 14 -9 25t-24 16v2h196v-2q-50 -15 -81 -34t-63 -48l-57 -55l121 -232q20 -37 45.5 -70t59.5 -52v-2h-252q2 13 -2 31.5t-15 39.5l-82 163q-8 14 -15 20t-20 6h-13v-151q0 -25 1 -40.5t6 -27t14.5 -20t25.5 -19.5v-2h-272v2
q16 11 25.5 19.5t14 20t5.5 27t1 40.5v529q0 25 -2.5 42t-9.5 29t-18 20.5t-29 17.5v2h238v-470h19z" />
    <glyph glyph-name="l" unicode="l" horiz-adv-x="305" 
d="M243 109q0 -25 1 -40.5t6 -27t14.5 -20t25.5 -19.5v-2h-272v2q16 11 25.5 19.5t14 20t5.5 27t1 40.5v529q0 25 -2.5 42t-9.5 29t-18 20.5t-29 17.5v2h238v-640z" />
    <glyph glyph-name="m" unicode="m" horiz-adv-x="944" 
d="M564 365q17 68 59 104t106 36q41 0 70 -13.5t48 -36.5t28 -55t9 -68v-223q0 -25 1 -40.5t6 -27t14.5 -20t25.5 -19.5v-2h-273v2q17 11 26 19.5t14 20t6 27t1 40.5v228q0 35 -13.5 59t-48.5 24t-56.5 -32t-21.5 -100v-179q0 -25 1.5 -40.5t6 -27t14 -20t25.5 -19.5v-2
h-272v2q16 11 25.5 19.5t14 20t5.5 27t1 40.5v228q0 35 -13 59t-48 24t-56.5 -32t-21.5 -100v-179q0 -25 1 -40.5t6 -27t14.5 -20t25.5 -19.5v-2h-273v2q17 11 26 19.5t14 20t6 27t1 40.5v275q0 26 -1.5 42t-7 27.5t-16 20.5t-28.5 19v2h232v-130q17 68 58.5 104t105.5 36
q71 0 108.5 -39.5t44.5 -100.5z" />
    <glyph glyph-name="n" unicode="n" horiz-adv-x="639" 
d="M247 365q18 68 64 104t109 36q41 0 71 -13.5t49.5 -36.5t29 -55t9.5 -68v-223q0 -25 1 -40.5t6 -27t14.5 -20t25.5 -19.5v-2h-273v2q17 11 26 19.5t14 20t6 27t1 40.5v228q0 35 -16.5 59t-51.5 24q-38 0 -61.5 -32t-23.5 -100v-179q0 -25 1 -40.5t6 -27t14.5 -20
t25.5 -19.5v-2h-273v2q17 11 26 19.5t14 20t6 27t1 40.5v275q0 26 -1.5 42t-7 27.5t-16 20.5t-28.5 19v2h232v-130z" />
    <glyph glyph-name="o" unicode="o" horiz-adv-x="588" 
d="M294 -10q-57 0 -107 18.5t-87.5 52t-59 81.5t-21.5 106t21.5 105.5t59 81t87.5 52t107 18.5t107 -18.5t87.5 -52t59 -81t21.5 -105.5t-21.5 -106t-59 -81.5t-87.5 -52t-107 -18.5zM294 7q47 0 66 61t19 180q0 118 -19 179t-66 61t-66 -61t-19 -179q0 -119 19 -180t66 -61
z" />
    <glyph glyph-name="p" unicode="p" horiz-adv-x="639" 
d="M242 -110q0 -25 1 -41t5.5 -27t14 -20t25.5 -19v-2h-272v2q16 10 25.5 19t14 20t6 27t1.5 41v494q0 26 -2 42t-7.5 27.5t-16 20.5t-27.5 19v2h232v-124q15 56 58 95t109 39q44 0 82 -17.5t67 -50.5t45.5 -79.5t16.5 -103.5q0 -60 -17.5 -108.5t-48 -83t-71 -53.5
t-86.5 -19q-63 0 -101.5 31t-53.5 81v-212zM335 434q-38 0 -65.5 -36.5t-27.5 -96.5v-114q0 -68 29 -107.5t67 -39.5q48 0 70.5 53.5t22.5 159.5q0 88 -24 134.5t-72 46.5z" />
    <glyph glyph-name="q" unicode="q" horiz-adv-x="629" 
d="M577 -110q0 -25 1 -41t5.5 -27t14 -20t25.5 -19v-2h-272v2q17 10 26 19t14 20t6 27t1 41v234q-16 -56 -59 -95t-109 -39q-43 0 -81.5 17t-67.5 49t-45.5 79t-16.5 107q0 62 20.5 111t55 82.5t79.5 51.5t94 18q63 0 110.5 -27t69.5 -75q22 42 57.5 67t78.5 33h2
q-7 -46 -8 -100t-1 -120v-393zM398 340q0 32 -7.5 57.5t-20.5 43t-29.5 27t-33.5 9.5q-52 0 -75.5 -56.5t-23.5 -168.5q0 -93 24.5 -142t71.5 -49q38 0 66 38.5t28 101.5v139z" />
    <glyph glyph-name="r" unicode="r" horiz-adv-x="516" 
d="M373 298q15 6 23.5 19t8.5 30q0 26 -16 41t-46 15q-38 0 -67 -37t-29 -103v-154q0 -25 4.5 -41.5t14 -28t24 -20t34.5 -17.5v-2h-303v2q17 11 26 19.5t14 20t6 27t1 40.5v275q0 26 -1.5 42t-7 27.5t-16 20.5t-28.5 19v2h232v-161q9 34 22.5 65t32.5 54.5t44.5 37.5
t58.5 14q49 0 78 -29.5t29 -74.5q0 -55 -31 -84t-72 -29q-12 0 -21.5 3t-14.5 7z" />
    <glyph glyph-name="s" unicode="s" horiz-adv-x="473" 
d="M213 488q-34 0 -54 -17t-20 -45q0 -17 6.5 -28.5t20.5 -21t38 -18t58 -19.5q49 -15 83.5 -32t57 -38.5t33 -49t10.5 -63.5q0 -38 -15 -69t-41.5 -52.5t-64 -33t-82.5 -11.5q-52 0 -88.5 10.5t-63.5 10.5q-19 0 -29.5 -7t-21.5 -15l-11 183h2q43 -81 94.5 -123t117.5 -42
q37 0 61 18t24 54q0 19 -8 32t-23.5 22t-37.5 16.5t-50 16.5q-93 29 -135 70.5t-42 113.5q0 35 14 63.5t38.5 49t57.5 31.5t71 11q24 0 43 -3.5t35.5 -8t31 -8.5t27.5 -4q17 0 29.5 7t26.5 18v-162h-2q-33 65 -85 104.5t-106 39.5z" />
    <glyph glyph-name="t" unicode="t" horiz-adv-x="406" 
d="M398 180q-5 -36 -16.5 -70t-33 -61t-53.5 -43t-78 -16q-34 0 -63.5 10t-51 31t-33 53t-11.5 75l2 311h-54v11q78 17 136 64.5t85 123.5h10v-174h150l-5 -25h-145v-315q0 -38 15 -59t45 -21q35 0 57 28.5t32 80.5z" />
    <glyph glyph-name="u" unicode="u" horiz-adv-x="629" 
d="M388 384q0 26 -1.5 42t-7 27.5t-16 20.5t-28.5 19v2h232v-389q0 -24 2 -40t8 -27t16 -19t26 -18v-2h-231v133q-17 -69 -62.5 -106t-110.5 -37q-40 0 -70 13.5t-49.5 37t-29 55.5t-9.5 68v220q0 26 -1.5 42t-7 27.5t-16 20.5t-27.5 19v2h231v-336q0 -33 16.5 -58t50.5 -25
q38 0 61.5 31.5t23.5 100.5v176z" />
    <glyph glyph-name="v" unicode="v" horiz-adv-x="545" 
d="M442 381q12 24 12 48q0 22 -11.5 38.5t-37.5 25.5v2h148v-2q-12 -10 -21.5 -19.5t-18 -21.5t-17.5 -28t-21 -39l-201 -395h-2l-206 397q-12 23 -20.5 38.5t-16 26.5t-16.5 20.5t-21 20.5v2h273v-2q-17 -10 -22.5 -20t-5.5 -25q0 -12 4 -26t11 -28l98 -201z" />
    <glyph glyph-name="w" unicode="w" horiz-adv-x="788" 
d="M250 -10h-2l-185 397q-10 22 -18 37.5t-15.5 27t-16.5 21t-21 20.5v2h258v-2q-12 -10 -17 -19.5t-5 -25.5q0 -14 4.5 -28t10.5 -28l86 -188l65 136l-20 47q-10 23 -18 38t-16 26.5t-17 21t-21 20.5v2h261v-2q-30 -19 -30 -46q0 -12 4.5 -26t9.5 -29l68 -181l74 176
q9 20 9 40q0 22 -12.5 39.5t-38.5 26.5v2h149v-2q-13 -10 -22.5 -19.5t-18 -21t-17 -27t-19.5 -39.5l-175 -396h-2l-136 322z" />
    <glyph glyph-name="x" unicode="x" horiz-adv-x="571" 
d="M-9 0v2q38 19 67.5 48.5t58.5 68.5l87 118l-89 140q-14 21 -26 37.5t-24 29.5t-26.5 25t-32.5 24v2h276v-2q-15 -11 -15 -31q0 -16 9.5 -35t24.5 -42l46 -73l47 73q11 17 18 33t7 30q0 32 -32 45v2h155v-2q-39 -18 -68 -47.5t-56 -69.5l-58 -84l110 -174q14 -21 26 -37.5
t24.5 -29.5t27 -25t32.5 -24v-2h-275v2q14 12 14 31q0 16 -9.5 35t-24.5 42l-67 105l-76 -105q-11 -16 -18.5 -31.5t-7.5 -29.5q0 -31 32 -47v-2h-157z" />
    <glyph glyph-name="y" unicode="y" horiz-adv-x="544" 
d="M66 387q-12 23 -20 38.5t-16 26.5t-17 20.5t-21 20.5v2h273v-2q-16 -10 -22 -20t-6 -25q0 -12 4 -27t11 -29l106 -221l85 208q10 24 10 46q0 25 -13.5 42t-37.5 26v2h150v-2q-13 -10 -23 -19.5t-18.5 -22t-17 -29t-18.5 -40.5l-204 -488q-26 -63 -59 -93t-81 -30
q-45 0 -74.5 24t-29.5 69q0 42 25.5 64t60.5 22q16 0 29 -4q-26 -15 -26 -47q0 -24 16 -39.5t40 -15.5q29 0 48 17.5t36 55.5l23 50z" />
    <glyph glyph-name="z" unicode="z" horiz-adv-x="529" 
d="M227 474q-31 0 -55.5 -9.5t-46.5 -28.5t-43 -47.5t-47 -66.5h-2l14 183q23 -10 62 -10h392v-2l-282 -472h65q39 0 66.5 9t51.5 29t48 52t57 78h2l-29 -189h-465v2l285 472h-73z" />
    <glyph glyph-name="braceleft" unicode="{" horiz-adv-x="382" 
d="M11 315q24 1 45 8.5t36.5 25t24.5 45t9 67.5q0 32 -7.5 65t-7.5 72q0 72 54 111.5t151 39.5q16 0 28.5 -1.5t24.5 -3.5v-2q-60 0 -86.5 -36.5t-26.5 -94.5q0 -44 9 -83t9 -73q0 -40 -21.5 -66.5t-52 -43t-62.5 -23.5t-53 -9q21 -1 53 -8.5t62.5 -24t52 -43t21.5 -66.5
q0 -34 -9 -73t-9 -83q0 -58 26.5 -94.5t86.5 -36.5v-2q-12 -2 -24.5 -3.5t-28.5 -1.5q-97 0 -151 39.5t-54 111.5q0 39 7.5 72t7.5 65q0 40 -9 67.5t-24.5 45t-36.5 25t-45 8.5v4z" />
    <glyph glyph-name="bar" unicode="|" horiz-adv-x="204" 
d="M117 749v-872h-30v872h30z" />
    <glyph glyph-name="braceright" unicode="}" horiz-adv-x="382" 
d="M371 311q-24 -1 -45 -8.5t-36.5 -25t-24.5 -45t-9 -67.5q0 -32 7.5 -65t7.5 -72q0 -72 -54 -111.5t-151 -39.5q-16 0 -28.5 1.5t-24.5 3.5v2q60 0 86.5 36.5t26.5 94.5q0 44 -9 83t-9 73q0 40 21.5 66.5t52 43t62.5 24t53 8.5q-21 2 -53 9t-62.5 23.5t-52 43t-21.5 66.5
q0 34 9 73t9 83q0 58 -26.5 94.5t-86.5 36.5v2q12 2 24.5 3.5t28.5 1.5q97 0 151 -39.5t54 -111.5q0 -39 -7.5 -72t-7.5 -65q0 -40 9 -67.5t24.5 -45t36.5 -25t45 -8.5v-4z" />
    <glyph glyph-name="asciitilde" unicode="~" horiz-adv-x="504" 
d="M44 241q6 78 42 124.5t92 46.5q29 0 51.5 -7.5t43 -16t42 -16t46.5 -7.5q32 0 57 13.5t40 42.5h2q-6 -78 -42 -124.5t-91 -46.5q-29 0 -51.5 7t-43.5 16t-42 16t-47 7q-32 0 -57.5 -13t-39.5 -42h-2z" />
    <glyph glyph-name="uni00A0" unicode="&#xa0;" horiz-adv-x="200" 
 />
    <glyph glyph-name="exclamdown" unicode="&#xa1;" horiz-adv-x="304" 
d="M152 560q43 0 71.5 -29.5t28.5 -71.5t-28.5 -71.5t-71.5 -29.5q-42 0 -71 29.5t-29 71.5t29 71.5t71 29.5zM150 308h4l112 -456h-228z" />
    <glyph glyph-name="cent" unicode="&#xa2;" horiz-adv-x="533" 
d="M270 -10q-50 2 -94.5 19.5t-77.5 49.5t-52.5 77t-19.5 102q0 63 22 112.5t60 84t90.5 52.5t113.5 18l7 91h20l-7 -91q36 -1 67 -10t53.5 -25t35.5 -38.5t13 -51.5q0 -42 -24.5 -63.5t-56.5 -21.5q-30 0 -49.5 15.5t-27.5 38.5q5 -3 10.5 -4t9.5 -1q23 0 34 18.5t11 46.5
q0 32 -19 55.5t-59 23.5l-32 -403q15 -6 31 -9.5t34 -3.5q43 0 81 21t61 68l7 -3q-20 -78 -80.5 -122t-141.5 -46l-8 -104h-20zM201 282q0 -69 21 -115.5t57 -70.5l31 391q-27 -4 -47.5 -21.5t-34 -44.5t-20.5 -62.5t-7 -76.5z" />
    <glyph glyph-name="sterling" unicode="&#xa3;" horiz-adv-x="661" 
d="M494 -26q-37 0 -68.5 9.5t-58.5 24.5t-51.5 33t-48.5 36q-34 -42 -76 -64.5t-90 -22.5q-42 0 -69 22.5t-27 60.5q0 39 27.5 63.5t72.5 24.5q21 0 47 -5t55 -13q1 7 1.5 14.5t0.5 15.5q0 45 -9.5 85.5t-20.5 79.5h-106v23h100q-8 31 -14 62t-6 64q0 54 21.5 95.5t59 70
t89 43t111.5 14.5q40 0 74.5 -8t59.5 -24.5t39 -41t14 -57.5q0 -43 -28 -66.5t-65 -23.5q-31 0 -55.5 11.5t-37.5 31.5q32 0 53 20t21 59q0 37 -18 59.5t-57 22.5q-38 0 -58 -31.5t-20 -76.5v-224h129v-23h-131q-5 -67 -20 -122t-39 -98q36 -9 72.5 -16t70.5 -7q70 0 99 24
t29 65q0 10 -3.5 22t-11.5 25q44 -17 68 -48.5t24 -75.5q0 -33 -12.5 -58t-33 -41.5t-47.5 -25t-56 -8.5zM96 14q39 0 67.5 27t39.5 76q-22 11 -46 17t-52 6q-35 0 -54.5 -18.5t-19.5 -48.5q0 -28 18.5 -43.5t46.5 -15.5z" />
    <glyph glyph-name="yen" unicode="&#xa5;" horiz-adv-x="673" 
d="M192 0v2q17 11 27.5 21.5t16.5 23.5t8.5 30t2.5 42v124h-169v22h169v30l-23 43h-146v23h134l-122 227q-20 39 -40.5 63t-49.5 47v2h311v-2q-20 -15 -28.5 -28t-8.5 -30q0 -22 14 -48l129 -258l132 251q13 23 13 49q-1 19 -11.5 36t-34.5 28v2h157v-2q-29 -23 -49.5 -47.5
t-41.5 -64.5l-121 -225h134v-23h-146l-23 -43v-30h169v-22h-169v-124q0 -25 2.5 -42t9 -30t17 -23.5t26.5 -21.5v-2h-289z" />
    <glyph glyph-name="section" unicode="&#xa7;" horiz-adv-x="567" 
d="M275 -225q-38 0 -71 7.5t-57 22t-37.5 34t-13.5 43.5q0 35 20.5 54t52.5 19q22 0 39.5 -8t25.5 -16q-16 -5 -25.5 -19.5t-9.5 -40.5q0 -38 21 -59t55 -21q41 0 62 24.5t21 59.5q0 22 -5.5 38.5t-17 31.5t-30 31.5t-44.5 38.5l-110 91q-54 46 -84.5 86.5t-30.5 94.5
q0 26 7.5 49.5t20 43.5t28 36.5t30.5 28.5q-10 17 -16 39t-6 52q0 38 15 69.5t41.5 55t61.5 36.5t75 13q38 0 70.5 -7.5t56.5 -22t37.5 -34t13.5 -43.5q0 -35 -20.5 -54t-51.5 -19q-23 0 -40.5 8t-25.5 16q35 10 35 60q0 38 -20.5 59t-54.5 21q-41 0 -62 -24.5t-21 -59.5
q0 -22 5.5 -38.5t17 -31.5t30 -31.5t44.5 -38.5l109 -91q55 -46 85 -86.5t30 -94.5q0 -25 -7.5 -49t-19.5 -44t-27.5 -36.5t-31.5 -28.5q11 -17 17 -39t6 -52q0 -38 -15 -69.5t-41.5 -55t-61.5 -36.5t-75 -13zM348 142q24 -20 48.5 -43t42.5 -49q11 22 11 50
q0 29 -13.5 50.5t-46.5 48.5l-170 144q-25 20 -49.5 43t-41.5 49q-12 -21 -12 -50t14 -50.5t47 -48.5z" />
    <glyph glyph-name="dieresis" unicode="&#xa8;" horiz-adv-x="500" 
d="M144 553q-37 0 -62 26t-25 62q0 37 25 63.5t62 26.5t62.5 -26.5t25.5 -63.5q0 -36 -25.5 -62t-62.5 -26zM355 553q-37 0 -63 26t-26 62q0 37 26 63.5t63 26.5t62.5 -26.5t25.5 -63.5q0 -36 -25.5 -62t-62.5 -26z" />
    <glyph glyph-name="copyright" unicode="&#xa9;" horiz-adv-x="810" 
d="M765 350q0 -78 -28.5 -144t-77 -114t-114 -75t-140.5 -27t-140.5 27t-114 75t-77 114t-28.5 144t28.5 144t77 114t114 75t140.5 27t140.5 -27t114 -75t77 -114t28.5 -144zM745 350q0 74 -26.5 136.5t-73 107.5t-108 70.5t-132.5 25.5q-70 0 -132 -25.5t-108.5 -70.5
t-73 -107.5t-26.5 -136.5t26.5 -136.5t73 -107.5t108.5 -70.5t132 -25.5q71 0 132.5 25.5t108 70.5t73 107.5t26.5 136.5zM437 550q-25 0 -44 -13.5t-32 -37.5t-19.5 -56.5t-6.5 -69.5q0 -43 11 -75.5t30 -54.5t43.5 -33t51.5 -11q38 0 68.5 14.5t52.5 56.5l3 -1
q-17 -61 -62.5 -101t-115.5 -40q-48 0 -88 15.5t-69 44.5t-45 69.5t-16 90.5t17.5 91t47.5 70.5t70.5 45.5t87.5 16q23 0 40 -3.5t30.5 -7.5t24.5 -7.5t21 -3.5q12 0 21.5 6t18.5 16l3 -150h-4q-12 26 -26.5 49.5t-32 41t-38 28t-43.5 10.5z" />
    <glyph glyph-name="ordfeminine" unicode="&#xaa;" horiz-adv-x="430" 
d="M419 389q-14 -14 -36.5 -23t-47.5 -9q-43 0 -65 16.5t-27 44.5l-1 18q-8 -35 -37 -56t-73 -21q-20 0 -38.5 5t-32.5 15.5t-22.5 27t-8.5 38.5q0 29 13.5 47t35.5 29.5t50.5 18t59.5 12.5l52 9v65q0 26 -11.5 47t-40.5 21q-23 0 -35.5 -14t-12.5 -35q0 -42 33 -42
q5 0 13 2q-10 -20 -29 -30.5t-44 -10.5q-28 0 -47.5 16t-19.5 43q0 41 40 64t105 23q85 0 129 -27.5t44 -92.5q0 -32 -0.5 -63t-0.5 -68q0 -34 6.5 -51.5t32.5 -17.5q9 0 16 3v-4zM213 541q-32 -7 -46.5 -27t-14.5 -51q0 -24 10 -38.5t29 -14.5q23 0 35.5 19t13.5 48l1 70z
M367 294v-22h-304v22h304z" />
    <glyph glyph-name="guillemotleft" unicode="&#xab;" horiz-adv-x="509" 
d="M18 246q32 16 66.5 37.5t68.5 47.5t66.5 55.5t59.5 61.5h4q-21 -63 -48 -115.5t-53 -88.5q26 -36 53 -88.5t48 -115.5h-4q-27 32 -59.5 61.5t-66.5 55.5t-68.5 47.5t-66.5 37.5v4zM219 246q32 16 66.5 37.5t69 47.5t67 55.5t59.5 61.5h4q-22 -63 -49 -115.5t-53 -88.5
q26 -36 53 -88.5t49 -115.5h-4q-27 32 -59.5 61.5t-67 55.5t-69 47.5t-66.5 37.5v4z" />
    <glyph glyph-name="registered" unicode="&#xae;" horiz-adv-x="481" 
d="M436 514q0 -42 -15.5 -78t-41.5 -62t-61.5 -40.5t-76.5 -14.5t-76.5 14.5t-62 40.5t-42 62t-15.5 78q0 43 15.5 79t42 62t62 40.5t76.5 14.5t76.5 -14.5t61.5 -40.5t41.5 -62t15.5 -79zM417 514q0 39 -13.5 72t-37.5 56.5t-56 36.5t-69 13t-69.5 -13t-56.5 -36.5
t-37.5 -56.5t-13.5 -72t13.5 -71.5t37.5 -56t56.5 -36.5t69.5 -13t69 13t56 36.5t37.5 56t13.5 71.5zM254 627q35 0 61 -14t26 -46q0 -29 -24.5 -42t-52.5 -13q49 -3 62 -42l9 -26q6 -17 11 -23.5t16 -12.5v-4h-75q-11 13 -17 35l-11 35q-5 15 -12 25t-23 10h-12v-65
q0 -16 3 -23t14 -13v-4h-98v4q11 6 14 13t3 23v143q0 16 -3 23t-14 13v4h123zM228 519q22 0 35 10.5t13 36.5q0 25 -12.5 37.5t-35.5 12.5h-16v-97h16z" />
    <glyph glyph-name="macron" unicode="&#xaf;" horiz-adv-x="500" 
d="M102 634h309v-37h-309v37z" />
    <glyph glyph-name="degree" unicode="&#xb0;" horiz-adv-x="279" 
d="M249 599q0 -23 -8.5 -43t-23.5 -35t-35 -23.5t-43 -8.5t-43 8.5t-34.5 23.5t-23 35t-8.5 43t8.5 43t23 35t34.5 24t43 9t43 -9t35 -24t23.5 -35t8.5 -43zM222 599q0 35 -24 59.5t-59 24.5q-34 0 -58 -24.5t-24 -59.5q0 -34 24 -59t58 -25q35 0 59 25t24 59z" />
    <glyph glyph-name="plusminus" unicode="&#xb1;" horiz-adv-x="479" 
d="M254 223h-30v137h-180v30h180v136h30v-136h181v-30h-181v-137zM435 159v-29h-391v29h391z" />
    <glyph glyph-name="uni00B2" unicode="&#xb2;" horiz-adv-x="282" 
d="M125 689q-20 0 -31 -12t-11 -31q0 -23 10 -33t22 -10t18 7h3q-7 -22 -22 -31t-34 -9q-24 0 -40 15.5t-16 41.5q0 38 29.5 57.5t71.5 19.5q25 0 47.5 -4.5t40 -14.5t28 -27t10.5 -41q0 -48 -43 -79t-114 -58h78q35 0 50 6t29 27h4l-10 -103h-229v3q44 46 72.5 77.5
t45 56.5t22.5 46.5t6 46.5q0 20 -8.5 34.5t-28.5 14.5z" />
    <glyph glyph-name="uni00B3" unicode="&#xb3;" horiz-adv-x="285" 
d="M132 421q18 0 27 19.5t9 48.5q0 35 -11.5 53t-37.5 18v9q24 2 33 19.5t9 47.5q0 25 -6.5 39t-21.5 14q-14 0 -23 -11t-9 -30q0 -17 5 -27.5t16 -10.5q6 0 9 2l2 -1q-5 -8 -15.5 -14.5t-29.5 -6.5q-24 0 -38.5 13.5t-14.5 34.5q0 34 29.5 50t68.5 16q47 0 82 -18t35 -54
q0 -31 -23.5 -46.5t-57.5 -18.5q39 -2 65.5 -21t26.5 -57q0 -42 -37.5 -62.5t-91.5 -20.5q-22 0 -42.5 4.5t-36 13.5t-24.5 22.5t-9 32.5q0 26 17 39.5t42 13.5q21 0 32.5 -6.5t16.5 -14.5l-3 -2q-3 3 -8 3q-11 0 -17 -11.5t-6 -30.5q0 -22 10.5 -35.5t27.5 -13.5z" />
    <glyph glyph-name="paragraph" unicode="&#xb6;" horiz-adv-x="516" 
d="M431 -50q0 -38 -11 -71.5t-32 -58.5t-51 -40t-69 -15q-28 0 -56 7t-50 21.5t-35.5 37t-13.5 52.5q0 36 23.5 56.5t52.5 20.5q26 0 43 -12.5t23 -32.5h-1q-11 8 -26 8q-16 0 -27.5 -13t-11.5 -36q0 -36 23.5 -58.5t66.5 -22.5q29 0 52 12t39.5 33t25.5 49.5t9 62.5v727
h-39v-562h-27v151q-59 0 -112.5 14.5t-94 42.5t-64.5 68.5t-24 91.5t24 91.5t64.5 68.5t94 42.5t112.5 14.5h152v-2q-18 -10 -29.5 -18t-18 -19t-9.5 -26.5t-3 -40.5v-644z" />
    <glyph glyph-name="periodcentered" unicode="&#xb7;" horiz-adv-x="276" 
d="M237 282q0 -42 -28.5 -71.5t-71.5 -29.5t-71.5 29.5t-28.5 71.5t28.5 71.5t71.5 29.5t71.5 -29.5t28.5 -71.5z" />
    <glyph glyph-name="cedilla" unicode="&#xb8;" horiz-adv-x="500" 
d="M140 -138q12 -21 29.5 -33t40.5 -12t36 14t13 38q0 32 -20.5 43.5t-55.5 13.5l52 80h19l-36 -56q71 3 113 -19t42 -68q0 -21 -9.5 -37t-25.5 -27.5t-36.5 -17t-43.5 -5.5q-51 0 -83.5 25t-41.5 54z" />
    <glyph glyph-name="uni00B9" unicode="&#xb9;" horiz-adv-x="210" 
d="M58 662q0 15 -9.5 20t-37.5 13v5h141v-252q0 -15 9 -20t37 -13v-5h-186v5q28 8 37 13t9 20v214z" />
    <glyph glyph-name="ordmasculine" unicode="&#xba;" horiz-adv-x="431" 
d="M215 356q-39 0 -73.5 12.5t-60.5 36t-41 56t-15 72.5t15 72.5t41 56t60.5 36t73.5 12.5t73.5 -12.5t61 -36t41.5 -56t15 -72.5t-15 -72.5t-41.5 -56t-61 -36t-73.5 -12.5zM215 373q33 0 45.5 39.5t12.5 120.5t-12.5 120.5t-45.5 39.5q-32 0 -44.5 -39.5t-12.5 -120.5
t12.5 -120.5t44.5 -39.5zM368 294v-22h-304v22h304z" />
    <glyph glyph-name="guillemotright" unicode="&#xbb;" horiz-adv-x="509" 
d="M294 242q-31 -16 -66 -37.5t-69 -47.5t-66.5 -55.5t-59.5 -61.5h-4q21 63 48 115.5t53 88.5q-26 36 -53 88.5t-48 115.5h4q27 -32 59.5 -61.5t66.5 -55.5t69 -47.5t66 -37.5v-4zM495 242q-31 -16 -65.5 -37.5t-69 -47.5t-67 -55.5t-59.5 -61.5h-4q21 63 48 115.5t53 88.5
q-26 36 -53 88.5t-48 115.5h4q27 -32 59.5 -61.5t67 -55.5t69 -47.5t65.5 -37.5v-4z" />
    <glyph glyph-name="onequarter" unicode="&#xbc;" horiz-adv-x="428" 
d="M159 662q0 15 -9.5 20t-37.5 13v5h142v-252q0 -15 9 -20t37 -13v-5h-187v5q28 8 37 13t9 20v214zM385 342h-365v16h365v-16zM60 79v3l140 208h81v-194h17q20 0 25.5 4.5t15.5 20.5h4v-66h-4q-10 15 -15.5 19.5t-25.5 4.5h-17v-28q0 -20 4.5 -28t17.5 -19v-4h-138v4
q13 11 17.5 19t4.5 28v28h-127zM89 96h98v146z" />
    <glyph glyph-name="onehalf" unicode="&#xbd;" horiz-adv-x="405" 
d="M159 662q0 15 -9.5 20t-37.5 13v5h142v-252q0 -15 9 -20t37 -13v-5h-187v5q28 8 37 13t9 20v214zM385 342h-365v16h365v-16zM193 279q-20 0 -31 -12t-11 -31q0 -23 10 -33t22 -10t18 7h3q-7 -22 -22 -31t-34 -9q-24 0 -40 15.5t-16 41.5q0 38 29.5 57.5t71.5 19.5
q25 0 47.5 -4.5t40 -14.5t28 -27t10.5 -41q0 -48 -43 -79t-114 -58h78q35 0 50 6t29 27h4l-10 -103h-229v3q44 46 72.5 77.5t45 56.5t22.5 46.5t6 46.5q0 20 -8.5 34.5t-28.5 14.5z" />
    <glyph glyph-name="threequarters" unicode="&#xbe;" horiz-adv-x="428" 
d="M200 421q18 0 27 19.5t9 48.5q0 35 -11.5 53t-37.5 18v9q24 2 33 19.5t9 47.5q0 25 -6.5 39t-21.5 14q-14 0 -23 -11t-9 -30q0 -17 5 -27.5t16 -10.5q6 0 9 2l2 -1q-5 -8 -15.5 -14.5t-29.5 -6.5q-24 0 -38.5 13.5t-14.5 34.5q0 34 29.5 50t68.5 16q47 0 82 -18t35 -54
q0 -31 -23.5 -46.5t-57.5 -18.5q39 -2 65.5 -21t26.5 -57q0 -42 -37.5 -62.5t-91.5 -20.5q-22 0 -42.5 4.5t-36 13.5t-24.5 22.5t-9 32.5q0 26 17 39.5t42 13.5q21 0 32.5 -6.5t16.5 -14.5l-3 -2q-3 3 -8 3q-11 0 -17 -11.5t-6 -30.5q0 -22 10.5 -35.5t27.5 -13.5zM385 342
h-365v16h365v-16zM60 79v3l140 208h81v-194h17q20 0 25.5 4.5t15.5 20.5h4v-66h-4q-10 15 -15.5 19.5t-25.5 4.5h-17v-28q0 -20 4.5 -28t17.5 -19v-4h-138v4q13 11 17.5 19t4.5 28v28h-127zM89 96h98v146z" />
    <glyph glyph-name="questiondown" unicode="&#xbf;" horiz-adv-x="555" 
d="M292 358q-43 0 -71.5 29.5t-28.5 71.5t28.5 71.5t71.5 29.5q42 0 70.5 -29.5t28.5 -71.5t-28.5 -71.5t-70.5 -29.5zM295 -140q51 0 82 30t31 73q0 35 -18.5 57.5t-50.5 22.5q-5 0 -13.5 -1t-14.5 -5l-2 1q11 32 37.5 52t68.5 20q23 0 44 -8t36.5 -22.5t24.5 -35t9 -46.5
q0 -36 -17.5 -64.5t-49 -49t-74.5 -31.5t-93 -11q-61 0 -110.5 14t-85 40.5t-54.5 63t-19 81.5q0 47 21 86.5t56.5 69.5t81.5 50t96 28v40h20v-183q-62 -20 -95.5 -57t-33.5 -98q0 -24 8 -45t23.5 -37t38.5 -25.5t53 -9.5z" />
    <glyph glyph-name="Agrave" unicode="&#xc0;" horiz-adv-x="745" 
d="M373 898q1 -39 8.5 -79.5t26.5 -73.5h-4q-60 31 -100 69t-63 84h132zM0 0v2q28 18 49.5 46t43.5 75l275 587h4l292 -598q11 -23 20.5 -40t18.5 -29.5t19 -22t23 -18.5v-2h-315v2q22 13 32 26t10 30q0 14 -3.5 27.5t-11.5 29.5l-43 91h-248l-34 -75q-13 -29 -13 -54
q0 -23 13.5 -42.5t41.5 -32.5v-2h-174zM400 235l-113 241l-108 -241h221z" />
    <glyph glyph-name="Aacute" unicode="&#xc1;" horiz-adv-x="745" 
d="M504 898q-47 -93 -162 -153h-5q19 33 26.5 73.5t9.5 79.5h131zM0 0v2q28 18 49.5 46t43.5 75l275 587h4l292 -598q11 -23 20.5 -40t18.5 -29.5t19 -22t23 -18.5v-2h-315v2q22 13 32 26t10 30q0 14 -3.5 27.5t-11.5 29.5l-43 91h-248l-34 -75q-13 -29 -13 -54
q0 -23 13.5 -42.5t41.5 -32.5v-2h-174zM400 235l-113 241l-108 -241h221z" />
    <glyph glyph-name="Acircumflex" unicode="&#xc2;" horiz-adv-x="745" 
d="M504 735q-38 11 -71.5 28.5t-59.5 36.5q-26 -19 -59.5 -36.5t-71.5 -28.5h-7q19 19 39.5 42.5t39 47.5t33.5 47.5t24 42.5h4q9 -19 24 -42.5t33.5 -47.5t39 -47.5t39.5 -42.5h-7zM0 0v2q28 18 49.5 46t43.5 75l275 587h4l292 -598q11 -23 20.5 -40t18.5 -29.5t19 -22
t23 -18.5v-2h-315v2q22 13 32 26t10 30q0 14 -3.5 27.5t-11.5 29.5l-43 91h-248l-34 -75q-13 -29 -13 -54q0 -23 13.5 -42.5t41.5 -32.5v-2h-174zM400 235l-113 241l-108 -241h221z" />
    <glyph glyph-name="Atilde" unicode="&#xc3;" horiz-adv-x="745" 
d="M514 893q-5 -60 -29 -94.5t-61 -34.5q-19 0 -34.5 6t-30 13t-28.5 13t-31 6q-45 0 -64 -44h-4q5 60 29 94t61 34q19 0 34.5 -6t30 -13t29 -13t30.5 -6q45 0 64 45h4zM0 0v2q28 18 49.5 46t43.5 75l275 587h4l292 -598q11 -23 20.5 -40t18.5 -29.5t19 -22t23 -18.5v-2
h-315v2q22 13 32 26t10 30q0 14 -3.5 27.5t-11.5 29.5l-43 91h-248l-34 -75q-13 -29 -13 -54q0 -23 13.5 -42.5t41.5 -32.5v-2h-174zM400 235l-113 241l-108 -241h221z" />
    <glyph glyph-name="Adieresis" unicode="&#xc4;" horiz-adv-x="745" 
d="M259 745q-37 0 -62 26t-25 62q0 37 25 63.5t62 26.5t62.5 -26.5t25.5 -63.5q0 -36 -25.5 -62t-62.5 -26zM470 745q-37 0 -63 26t-26 62q0 37 26 63.5t63 26.5t62.5 -26.5t25.5 -63.5q0 -36 -25.5 -62t-62.5 -26zM0 0v2q28 18 49.5 46t43.5 75l275 587h4l292 -598
q11 -23 20.5 -40t18.5 -29.5t19 -22t23 -18.5v-2h-315v2q22 13 32 26t10 30q0 14 -3.5 27.5t-11.5 29.5l-43 91h-248l-34 -75q-13 -29 -13 -54q0 -23 13.5 -42.5t41.5 -32.5v-2h-174zM400 235l-113 241l-108 -241h221z" />
    <glyph glyph-name="Aring" unicode="&#xc5;" horiz-adv-x="745" 
d="M365 950q22 0 41.5 -8.5t34.5 -23t23.5 -34t8.5 -41.5t-8.5 -42t-23.5 -34.5t-34.5 -23t-41.5 -8.5t-41.5 8.5t-34.5 23t-23.5 34.5t-8.5 42t8.5 41.5t23.5 34t34.5 23t41.5 8.5zM365 766q32 0 55 22.5t23 54.5q0 31 -23 53.5t-55 22.5t-54.5 -22.5t-22.5 -53.5
q0 -32 22.5 -54.5t54.5 -22.5zM0 0v2q28 18 49.5 46t43.5 75l275 587h4l292 -598q11 -23 20.5 -40t18.5 -29.5t19 -22t23 -18.5v-2h-315v2q22 13 32 26t10 30q0 14 -3.5 27.5t-11.5 29.5l-43 91h-248l-34 -75q-13 -29 -13 -54q0 -23 13.5 -42.5t41.5 -32.5v-2h-174zM400 235
l-113 241l-108 -241h221z" />
    <glyph glyph-name="AE" unicode="&#xc6;" horiz-adv-x="1079" 
d="M0 0v2q26 18 45.5 42t47.5 67l328 499q10 16 10 31q0 17 -13 29.5t-39 27.5v2h553q26 0 42.5 2t27.5 7l34 -194h-2q-21 38 -43 67t-48.5 49.5t-61 31t-81.5 10.5h-114v-297h91q30 0 52.5 4.5t39 17.5t29 35t24.5 57h2v-252h-2q-12 35 -24.5 56t-29 33t-39 16t-52.5 4h-91
v-320h130q50 0 86 13.5t63.5 37.5t50 56.5t43.5 69.5h2l-32 -204h-586v2q17 11 27.5 22t16.5 24.5t8.5 31t2.5 42.5v137h-270l-84 -128q-21 -31 -21 -62q0 -22 11 -39.5t37 -27.5v-2h-171zM498 288v382l-251 -382h251z" />
    <glyph glyph-name="Ccedilla" unicode="&#xc7;" horiz-adv-x="685" 
d="M367 -224q-51 0 -83.5 25t-41.5 54l7 7q12 -21 29.5 -33t40.5 -12t36 14t13 38q0 32 -20.5 43.5t-55.5 13.5l43 66q-67 6 -123.5 33t-98 72.5t-64.5 107t-23 135.5q0 82 30 150t81 117t119.5 76t146.5 27q34 0 60.5 -4.5t47.5 -10.5t37 -10.5t28 -4.5q20 0 34.5 8
t30.5 22l7 -238h-2q-19 47 -42 87t-51 68.5t-60.5 44.5t-70.5 16q-46 0 -82.5 -24t-61 -65.5t-37.5 -96.5t-13 -118q0 -71 18.5 -126.5t50.5 -93.5t75 -58t92 -20q62 0 112.5 26.5t84.5 96.5l6 -2q-26 -101 -102.5 -159t-194.5 -58h-17l-26 -40q71 3 113 -19t42 -68
q0 -21 -9.5 -37t-25.5 -27.5t-36.5 -17t-43.5 -5.5z" />
    <glyph glyph-name="Egrave" unicode="&#xc8;" horiz-adv-x="662" 
d="M331 898q1 -39 8.5 -79.5t26.5 -73.5h-4q-60 31 -100 69t-63 84h132zM515 700q25 0 42 2t28 7l34 -194h-2q-22 38 -43.5 67t-48.5 49.5t-61.5 31t-81.5 10.5h-114v-297h91q30 0 52.5 4.5t39 17.5t29.5 35t25 57h2v-252h-2q-12 35 -25 56t-29.5 33t-39 16t-52.5 4h-91
v-320h130q50 0 86 13.5t64 37.5t50 56.5t44 69.5h2l-32 -204h-587v2q17 11 27.5 22t16.5 24.5t8.5 31t2.5 42.5v457q0 25 -2.5 42.5t-8.5 31t-16.5 24t-27.5 21.5v2h490z" />
    <glyph glyph-name="Eacute" unicode="&#xc9;" horiz-adv-x="662" 
d="M462 898q-47 -93 -162 -153h-5q19 33 26.5 73.5t9.5 79.5h131zM515 700q25 0 42 2t28 7l34 -194h-2q-22 38 -43.5 67t-48.5 49.5t-61.5 31t-81.5 10.5h-114v-297h91q30 0 52.5 4.5t39 17.5t29.5 35t25 57h2v-252h-2q-12 35 -25 56t-29.5 33t-39 16t-52.5 4h-91v-320h130
q50 0 86 13.5t64 37.5t50 56.5t44 69.5h2l-32 -204h-587v2q17 11 27.5 22t16.5 24.5t8.5 31t2.5 42.5v457q0 25 -2.5 42.5t-8.5 31t-16.5 24t-27.5 21.5v2h490z" />
    <glyph glyph-name="Ecircumflex" unicode="&#xca;" horiz-adv-x="662" 
d="M462 735q-38 11 -71.5 28.5t-59.5 36.5q-26 -19 -59.5 -36.5t-71.5 -28.5h-7q19 19 39.5 42.5t39 47.5t33.5 47.5t24 42.5h4q9 -19 24 -42.5t33.5 -47.5t39 -47.5t39.5 -42.5h-7zM515 700q25 0 42 2t28 7l34 -194h-2q-22 38 -43.5 67t-48.5 49.5t-61.5 31t-81.5 10.5
h-114v-297h91q30 0 52.5 4.5t39 17.5t29.5 35t25 57h2v-252h-2q-12 35 -25 56t-29.5 33t-39 16t-52.5 4h-91v-320h130q50 0 86 13.5t64 37.5t50 56.5t44 69.5h2l-32 -204h-587v2q17 11 27.5 22t16.5 24.5t8.5 31t2.5 42.5v457q0 25 -2.5 42.5t-8.5 31t-16.5 24t-27.5 21.5v2
h490z" />
    <glyph glyph-name="Edieresis" unicode="&#xcb;" horiz-adv-x="662" 
d="M233 745q-37 0 -62 26t-25 62q0 37 25 63.5t62 26.5t62.5 -26.5t25.5 -63.5q0 -36 -25.5 -62t-62.5 -26zM444 745q-37 0 -63 26t-26 62q0 37 26 63.5t63 26.5t62.5 -26.5t25.5 -63.5q0 -36 -25.5 -62t-62.5 -26zM515 700q25 0 42 2t28 7l34 -194h-2q-22 38 -43.5 67
t-48.5 49.5t-61.5 31t-81.5 10.5h-114v-297h91q30 0 52.5 4.5t39 17.5t29.5 35t25 57h2v-252h-2q-12 35 -25 56t-29.5 33t-39 16t-52.5 4h-91v-320h130q50 0 86 13.5t64 37.5t50 56.5t44 69.5h2l-32 -204h-587v2q17 11 27.5 22t16.5 24.5t8.5 31t2.5 42.5v457
q0 25 -2.5 42.5t-8.5 31t-16.5 24t-27.5 21.5v2h490z" />
    <glyph glyph-name="Igrave" unicode="&#xcc;" horiz-adv-x="348" 
d="M174 898q1 -39 8.5 -79.5t26.5 -73.5h-4q-60 31 -100 69t-63 84h132zM268 122q0 -25 2.5 -42.5t8.5 -31t17 -24.5t27 -22v-2h-298v2q17 11 27.5 22t16.5 24.5t8.5 31t2.5 42.5v457q0 25 -2.5 42.5t-8.5 31t-16.5 24t-27.5 21.5v2h298v-2q-16 -11 -27 -21.5t-17 -24
t-8.5 -31t-2.5 -42.5v-457z" />
    <glyph glyph-name="Iacute" unicode="&#xcd;" horiz-adv-x="348" 
d="M305 898q-47 -93 -162 -153h-5q19 33 26.5 73.5t9.5 79.5h131zM268 122q0 -25 2.5 -42.5t8.5 -31t17 -24.5t27 -22v-2h-298v2q17 11 27.5 22t16.5 24.5t8.5 31t2.5 42.5v457q0 25 -2.5 42.5t-8.5 31t-16.5 24t-27.5 21.5v2h298v-2q-16 -11 -27 -21.5t-17 -24t-8.5 -31
t-2.5 -42.5v-457z" />
    <glyph glyph-name="Icircumflex" unicode="&#xce;" horiz-adv-x="348" 
d="M347 728q-51 14 -95 36t-78 45q-34 -23 -78.5 -45t-95.5 -36h-11q26 25 53.5 55t52 61t45 61.5t32.5 55.5h4q12 -25 32 -55.5t45 -61.5t52 -61t53 -55h-11zM268 122q0 -25 2.5 -42.5t8.5 -31t17 -24.5t27 -22v-2h-298v2q17 11 27.5 22t16.5 24.5t8.5 31t2.5 42.5v457
q0 25 -2.5 42.5t-8.5 31t-16.5 24t-27.5 21.5v2h298v-2q-16 -11 -27 -21.5t-17 -24t-8.5 -31t-2.5 -42.5v-457z" />
    <glyph glyph-name="Idieresis" unicode="&#xcf;" horiz-adv-x="348" 
d="M68 745q-37 0 -62 26t-25 62q0 37 25 63.5t62 26.5t62.5 -26.5t25.5 -63.5q0 -36 -25.5 -62t-62.5 -26zM279 745q-37 0 -63 26t-26 62q0 37 26 63.5t63 26.5t62.5 -26.5t25.5 -63.5q0 -36 -25.5 -62t-62.5 -26zM268 122q0 -25 2.5 -42.5t8.5 -31t17 -24.5t27 -22v-2h-298
v2q17 11 27.5 22t16.5 24.5t8.5 31t2.5 42.5v457q0 25 -2.5 42.5t-8.5 31t-16.5 24t-27.5 21.5v2h298v-2q-16 -11 -27 -21.5t-17 -24t-8.5 -31t-2.5 -42.5v-457z" />
    <glyph glyph-name="Eth" unicode="&#xd0;" horiz-adv-x="776" 
d="M25 2q17 11 27.5 22t16.5 24.5t8.5 31t2.5 42.5v225h-55v30h55v202q0 25 -2.5 42.5t-8.5 31t-16.5 24t-27.5 21.5v2h299q93 0 171 -21t134.5 -64t88 -108.5t31.5 -153.5q0 -90 -31.5 -156.5t-87.5 -110t-132 -65t-165 -21.5h-308v2zM320 25q111 0 169.5 84t58.5 244
q0 150 -59.5 236t-173.5 86h-47v-298h112v-30h-112v-322h52z" />
    <glyph glyph-name="Ntilde" unicode="&#xd1;" horiz-adv-x="724" 
d="M563 929q-6 -79 -38.5 -125.5t-81.5 -46.5q-25 0 -46 8t-40 17.5t-38 17.5t-41 8q-59 0 -86 -59h-5q6 79 38.5 125t81.5 46q26 0 46.5 -8t39.5 -17.5t38 -17.5t41 -8q60 0 86 60h5zM722 698q-39 -22 -56.5 -57t-17.5 -92v-552h-45l-491 609v-448q0 -62 18.5 -99t63.5 -57
v-2h-189v2q39 22 57 57t18 92v428q0 25 -2.5 42.5t-8.5 31t-16.5 24t-27.5 21.5v2h257l334 -414v256q0 62 -19 99t-64 57v2h189v-2z" />
    <glyph glyph-name="Ograve" unicode="&#xd2;" 
d="M386 898q1 -39 8.5 -79.5t26.5 -73.5h-4q-60 31 -100 69t-63 84h132zM745 350q0 -79 -27 -145t-75 -114t-114 -74.5t-143 -26.5q-78 0 -144 26.5t-114 74.5t-75 114t-27 145t27 145t75 114t114 74.5t144 26.5q77 0 143 -26.5t114 -74.5t75 -114t27 -145zM539 350
q0 165 -33.5 252.5t-119.5 87.5t-120 -87.5t-34 -252.5t34 -252.5t120 -87.5t119.5 87.5t33.5 252.5z" />
    <glyph glyph-name="Oacute" unicode="&#xd3;" 
d="M517 898q-47 -93 -162 -153h-5q19 33 26.5 73.5t9.5 79.5h131zM745 350q0 -79 -27 -145t-75 -114t-114 -74.5t-143 -26.5q-78 0 -144 26.5t-114 74.5t-75 114t-27 145t27 145t75 114t114 74.5t144 26.5q77 0 143 -26.5t114 -74.5t75 -114t27 -145zM539 350
q0 165 -33.5 252.5t-119.5 87.5t-120 -87.5t-34 -252.5t34 -252.5t120 -87.5t119.5 87.5t33.5 252.5z" />
    <glyph glyph-name="Ocircumflex" unicode="&#xd4;" 
d="M517 735q-38 11 -71.5 28.5t-59.5 36.5q-26 -19 -59.5 -36.5t-71.5 -28.5h-7q19 19 39.5 42.5t39 47.5t33.5 47.5t24 42.5h4q9 -19 24 -42.5t33.5 -47.5t39 -47.5t39.5 -42.5h-7zM745 350q0 -79 -27 -145t-75 -114t-114 -74.5t-143 -26.5q-78 0 -144 26.5t-114 74.5
t-75 114t-27 145t27 145t75 114t114 74.5t144 26.5q77 0 143 -26.5t114 -74.5t75 -114t27 -145zM539 350q0 165 -33.5 252.5t-119.5 87.5t-120 -87.5t-34 -252.5t34 -252.5t120 -87.5t119.5 87.5t33.5 252.5z" />
    <glyph glyph-name="Otilde" unicode="&#xd5;" 
d="M527 893q-5 -60 -29 -94.5t-61 -34.5q-19 0 -34.5 6t-30 13t-28.5 13t-31 6q-45 0 -64 -44h-4q5 60 29 94t61 34q19 0 34.5 -6t30 -13t29 -13t30.5 -6q45 0 64 45h4zM745 350q0 -79 -27 -145t-75 -114t-114 -74.5t-143 -26.5q-78 0 -144 26.5t-114 74.5t-75 114t-27 145
t27 145t75 114t114 74.5t144 26.5q77 0 143 -26.5t114 -74.5t75 -114t27 -145zM539 350q0 165 -33.5 252.5t-119.5 87.5t-120 -87.5t-34 -252.5t34 -252.5t120 -87.5t119.5 87.5t33.5 252.5z" />
    <glyph glyph-name="Odieresis" unicode="&#xd6;" 
d="M280 745q-37 0 -62 26t-25 62q0 37 25 63.5t62 26.5t62.5 -26.5t25.5 -63.5q0 -36 -25.5 -62t-62.5 -26zM491 745q-37 0 -63 26t-26 62q0 37 26 63.5t63 26.5t62.5 -26.5t25.5 -63.5q0 -36 -25.5 -62t-62.5 -26zM745 350q0 -79 -27 -145t-75 -114t-114 -74.5t-143 -26.5
q-78 0 -144 26.5t-114 74.5t-75 114t-27 145t27 145t75 114t114 74.5t144 26.5q77 0 143 -26.5t114 -74.5t75 -114t27 -145zM539 350q0 165 -33.5 252.5t-119.5 87.5t-120 -87.5t-34 -252.5t34 -252.5t120 -87.5t119.5 87.5t33.5 252.5z" />
    <glyph glyph-name="multiply" unicode="&#xd7;" horiz-adv-x="398" 
d="M67 476l132 -134l132 134l21 -21l-133 -134l133 -134l-21 -20l-132 134l-132 -134l-21 20l133 134l-133 134z" />
    <glyph glyph-name="Oslash" unicode="&#xd8;" 
d="M386 -10q-71 0 -131.5 22t-108.5 63l-81 -87l-20 16l82 88q-48 48 -74.5 113.5t-26.5 144.5t27 145t75 114t114 74.5t144 26.5q71 0 131.5 -22t108.5 -63l75 80l20 -17l-76 -81q48 -48 74 -113.5t26 -143.5q0 -79 -27 -145t-75 -114t-114 -74.5t-143 -26.5zM232 350
q0 -39 1.5 -73.5t5.5 -65.5l289 309q-14 84 -48 127t-94 43q-86 0 -120 -87.5t-34 -252.5zM386 10q86 0 119.5 87.5t33.5 252.5q0 38 -1.5 72.5t-5.5 64.5l-288 -308q14 -84 48 -126.5t94 -42.5z" />
    <glyph glyph-name="Ugrave" unicode="&#xd9;" horiz-adv-x="728" 
d="M364 898q1 -39 8.5 -79.5t26.5 -73.5h-4q-60 31 -100 69t-63 84h132zM654 271q0 -70 -20 -122.5t-56.5 -88t-88 -53t-114.5 -17.5q-67 0 -123 17.5t-96.5 53t-63 88.5t-22.5 124v306q0 25 -2.5 42.5t-8.5 31t-16.5 24t-27.5 21.5v2h299v-2q-16 -11 -27 -21.5t-17 -24
t-8.5 -31t-2.5 -42.5v-304q0 -107 43 -165.5t131 -58.5q41 0 75.5 14.5t60 43t39.5 70t14 95.5v268q0 62 -18.5 99t-63.5 57v2h189v-2q-39 -22 -57 -57t-18 -92v-278z" />
    <glyph glyph-name="Uacute" unicode="&#xda;" horiz-adv-x="728" 
d="M495 898q-47 -93 -162 -153h-5q19 33 26.5 73.5t9.5 79.5h131zM654 271q0 -70 -20 -122.5t-56.5 -88t-88 -53t-114.5 -17.5q-67 0 -123 17.5t-96.5 53t-63 88.5t-22.5 124v306q0 25 -2.5 42.5t-8.5 31t-16.5 24t-27.5 21.5v2h299v-2q-16 -11 -27 -21.5t-17 -24t-8.5 -31
t-2.5 -42.5v-304q0 -107 43 -165.5t131 -58.5q41 0 75.5 14.5t60 43t39.5 70t14 95.5v268q0 62 -18.5 99t-63.5 57v2h189v-2q-39 -22 -57 -57t-18 -92v-278z" />
    <glyph glyph-name="Ucircumflex" unicode="&#xdb;" horiz-adv-x="728" 
d="M573 728q-51 14 -95 36t-78 45q-34 -23 -78.5 -45t-95.5 -36h-11q26 25 53.5 55t52 61t45 61.5t32.5 55.5h4q12 -25 32 -55.5t45 -61.5t52 -61t53 -55h-11zM654 271q0 -70 -20 -122.5t-56.5 -88t-88 -53t-114.5 -17.5q-67 0 -123 17.5t-96.5 53t-63 88.5t-22.5 124v306
q0 25 -2.5 42.5t-8.5 31t-16.5 24t-27.5 21.5v2h299v-2q-16 -11 -27 -21.5t-17 -24t-8.5 -31t-2.5 -42.5v-304q0 -107 43 -165.5t131 -58.5q41 0 75.5 14.5t60 43t39.5 70t14 95.5v268q0 62 -18.5 99t-63.5 57v2h189v-2q-39 -22 -57 -57t-18 -92v-278z" />
    <glyph glyph-name="Udieresis" unicode="&#xdc;" horiz-adv-x="728" 
d="M293 745q-37 0 -62 26t-25 62q0 37 25 63.5t62 26.5t62.5 -26.5t25.5 -63.5q0 -36 -25.5 -62t-62.5 -26zM504 745q-37 0 -63 26t-26 62q0 37 26 63.5t63 26.5t62.5 -26.5t25.5 -63.5q0 -36 -25.5 -62t-62.5 -26zM654 271q0 -70 -20 -122.5t-56.5 -88t-88 -53
t-114.5 -17.5q-67 0 -123 17.5t-96.5 53t-63 88.5t-22.5 124v306q0 25 -2.5 42.5t-8.5 31t-16.5 24t-27.5 21.5v2h299v-2q-16 -11 -27 -21.5t-17 -24t-8.5 -31t-2.5 -42.5v-304q0 -107 43 -165.5t131 -58.5q41 0 75.5 14.5t60 43t39.5 70t14 95.5v268q0 62 -18.5 99
t-63.5 57v2h189v-2q-39 -22 -57 -57t-18 -92v-278z" />
    <glyph glyph-name="Yacute" unicode="&#xdd;" horiz-adv-x="707" 
d="M485 898q-47 -93 -162 -153h-5q19 33 26.5 73.5t9.5 79.5h131zM577 580q7 12 11 24t4 24q0 20 -11.5 38t-37.5 32v2h170v-2q-32 -23 -53.5 -49t-44.5 -64l-175 -290v-176q0 -25 2.5 -42t9 -30t17.5 -23.5t28 -21.5v-2h-293v2q17 11 28 21.5t17.5 23.5t9 30t2.5 42v176
l-178 293q-23 38 -42 62.5t-48 47.5v2h312v-2q-20 -15 -28.5 -28t-8.5 -31q0 -22 14 -46l148 -258z" />
    <glyph glyph-name="Thorn" unicode="&#xde;" horiz-adv-x="678" 
d="M392 562q63 0 113.5 -13.5t86.5 -39.5t55 -64t19 -88q0 -49 -19 -87.5t-54.5 -64.5t-86 -39.5t-112.5 -13.5h-126v-33q0 -24 3.5 -41t12 -30t23.5 -23.5t38 -22.5v-2h-320v2q17 11 27.5 22t16.5 24.5t8.5 31t2.5 42.5v457q0 25 -2.5 42.5t-8.5 31t-16.5 24t-27.5 21.5v2
h298v-2q-16 -11 -27 -21.5t-17 -24t-8.5 -31t-2.5 -42.5v-17h124zM327 179q80 0 118.5 49.5t38.5 128.5t-38.5 128.5t-118.5 49.5h-59v-356h59z" />
    <glyph glyph-name="germandbls" unicode="&#xdf;" horiz-adv-x="712" 
d="M21 0v2q17 11 26 19.5t14 20t6 27t1 40.5v361h-58v11l58 22v17q0 60 21 105t60 74t94 43.5t123 14.5q100 0 156.5 -34.5t56.5 -93.5q0 -25 -10 -45t-27.5 -35t-40.5 -27t-50 -23q-31 -14 -45 -26.5t-14 -32.5q0 -13 8 -23.5t25.5 -21.5t46 -24t69.5 -31q82 -37 117.5 -79
t35.5 -105q0 -37 -14 -67.5t-40.5 -52.5t-63 -34t-81.5 -12q-26 0 -43.5 3.5t-31 7t-25 7t-25.5 3.5q-19 0 -29.5 -7t-21.5 -15l-11 180h2q45 -88 91 -125t94 -37q35 0 58 19t23 52q0 35 -25.5 56.5t-79.5 43.5q-45 17 -75.5 35t-49 38t-26 43t-7.5 51q0 50 26.5 84.5
t64.5 65.5q36 31 58 60.5t22 74.5q0 48 -30 79.5t-88 31.5t-88.5 -44.5t-30.5 -125.5v-571h-226z" />
    <glyph glyph-name="agrave" unicode="&#xe0;" horiz-adv-x="565" 
d="M283 693q1 -39 8.5 -79.5t26.5 -73.5h-4q-60 31 -100 69t-63 84h132zM585 37q-19 -21 -52 -33.5t-69 -12.5q-61 0 -92.5 24t-38.5 65q0 3 -1 12.5t-1 13.5q-12 -51 -54.5 -82t-106.5 -31q-29 0 -56 7.5t-47.5 23t-32.5 39t-12 55.5q0 42 19 69t51.5 43.5t74 26.5t86.5 18
l76 14v97q0 19 -4 37t-13 32.5t-23.5 23t-35.5 8.5q-35 0 -53 -22t-18 -54q0 -61 48 -61q9 0 19 3q-15 -29 -42.5 -44t-64.5 -15q-39 0 -67 22.5t-28 61.5q0 29 15.5 52.5t43 40t66.5 25.5t86 9q124 0 186.5 -40.5t62.5 -134.5q0 -46 -1 -93t-1 -101q0 -49 10 -75t47 -26
q5 0 11.5 1t11.5 3v-2zM287 261q-48 -10 -69.5 -38.5t-21.5 -77.5q0 -38 14.5 -60.5t43.5 -22.5q35 0 54.5 30t19.5 73l1 106z" />
    <glyph glyph-name="aacute" unicode="&#xe1;" horiz-adv-x="565" 
d="M414 693q-47 -93 -162 -153h-5q19 33 26.5 73.5t9.5 79.5h131zM585 37q-19 -21 -52 -33.5t-69 -12.5q-61 0 -92.5 24t-38.5 65q0 3 -1 12.5t-1 13.5q-12 -51 -54.5 -82t-106.5 -31q-29 0 -56 7.5t-47.5 23t-32.5 39t-12 55.5q0 42 19 69t51.5 43.5t74 26.5t86.5 18l76 14
v97q0 19 -4 37t-13 32.5t-23.5 23t-35.5 8.5q-35 0 -53 -22t-18 -54q0 -61 48 -61q9 0 19 3q-15 -29 -42.5 -44t-64.5 -15q-39 0 -67 22.5t-28 61.5q0 29 15.5 52.5t43 40t66.5 25.5t86 9q124 0 186.5 -40.5t62.5 -134.5q0 -46 -1 -93t-1 -101q0 -49 10 -75t47 -26
q5 0 11.5 1t11.5 3v-2zM287 261q-48 -10 -69.5 -38.5t-21.5 -77.5q0 -38 14.5 -60.5t43.5 -22.5q35 0 54.5 30t19.5 73l1 106z" />
    <glyph glyph-name="acircumflex" unicode="&#xe2;" horiz-adv-x="565" 
d="M414 530q-38 11 -71.5 28.5t-59.5 36.5q-26 -19 -59.5 -36.5t-71.5 -28.5h-7q19 19 39.5 42.5t39 47.5t33.5 47.5t24 42.5h4q9 -19 24 -42.5t33.5 -47.5t39 -47.5t39.5 -42.5h-7zM585 37q-19 -21 -52 -33.5t-69 -12.5q-61 0 -92.5 24t-38.5 65q0 3 -1 12.5t-1 13.5
q-12 -51 -54.5 -82t-106.5 -31q-29 0 -56 7.5t-47.5 23t-32.5 39t-12 55.5q0 42 19 69t51.5 43.5t74 26.5t86.5 18l76 14v97q0 19 -4 37t-13 32.5t-23.5 23t-35.5 8.5q-35 0 -53 -22t-18 -54q0 -61 48 -61q9 0 19 3q-15 -29 -42.5 -44t-64.5 -15q-39 0 -67 22.5t-28 61.5
q0 29 15.5 52.5t43 40t66.5 25.5t86 9q124 0 186.5 -40.5t62.5 -134.5q0 -46 -1 -93t-1 -101q0 -49 10 -75t47 -26q5 0 11.5 1t11.5 3v-2zM287 261q-48 -10 -69.5 -38.5t-21.5 -77.5q0 -38 14.5 -60.5t43.5 -22.5q35 0 54.5 30t19.5 73l1 106z" />
    <glyph glyph-name="atilde" unicode="&#xe3;" horiz-adv-x="565" 
d="M424 688q-5 -60 -29 -94.5t-61 -34.5q-19 0 -34.5 6t-30 13t-28.5 13t-31 6q-45 0 -64 -44h-4q5 60 29 94t61 34q19 0 34.5 -6t30 -13t29 -13t30.5 -6q45 0 64 45h4zM585 37q-19 -21 -52 -33.5t-69 -12.5q-61 0 -92.5 24t-38.5 65q0 3 -1 12.5t-1 13.5q-12 -51 -54.5 -82
t-106.5 -31q-29 0 -56 7.5t-47.5 23t-32.5 39t-12 55.5q0 42 19 69t51.5 43.5t74 26.5t86.5 18l76 14v97q0 19 -4 37t-13 32.5t-23.5 23t-35.5 8.5q-35 0 -53 -22t-18 -54q0 -61 48 -61q9 0 19 3q-15 -29 -42.5 -44t-64.5 -15q-39 0 -67 22.5t-28 61.5q0 29 15.5 52.5t43 40
t66.5 25.5t86 9q124 0 186.5 -40.5t62.5 -134.5q0 -46 -1 -93t-1 -101q0 -49 10 -75t47 -26q5 0 11.5 1t11.5 3v-2zM287 261q-48 -10 -69.5 -38.5t-21.5 -77.5q0 -38 14.5 -60.5t43.5 -22.5q35 0 54.5 30t19.5 73l1 106z" />
    <glyph glyph-name="adieresis" unicode="&#xe4;" horiz-adv-x="565" 
d="M174 553q-37 0 -62 26t-25 62q0 37 25 63.5t62 26.5t62.5 -26.5t25.5 -63.5q0 -36 -25.5 -62t-62.5 -26zM385 553q-37 0 -63 26t-26 62q0 37 26 63.5t63 26.5t62.5 -26.5t25.5 -63.5q0 -36 -25.5 -62t-62.5 -26zM585 37q-19 -21 -52 -33.5t-69 -12.5q-61 0 -92.5 24
t-38.5 65q0 3 -1 12.5t-1 13.5q-12 -51 -54.5 -82t-106.5 -31q-29 0 -56 7.5t-47.5 23t-32.5 39t-12 55.5q0 42 19 69t51.5 43.5t74 26.5t86.5 18l76 14v97q0 19 -4 37t-13 32.5t-23.5 23t-35.5 8.5q-35 0 -53 -22t-18 -54q0 -61 48 -61q9 0 19 3q-15 -29 -42.5 -44
t-64.5 -15q-39 0 -67 22.5t-28 61.5q0 29 15.5 52.5t43 40t66.5 25.5t86 9q124 0 186.5 -40.5t62.5 -134.5q0 -46 -1 -93t-1 -101q0 -49 10 -75t47 -26q5 0 11.5 1t11.5 3v-2zM287 261q-48 -10 -69.5 -38.5t-21.5 -77.5q0 -38 14.5 -60.5t43.5 -22.5q35 0 54.5 30t19.5 73
l1 106z" />
    <glyph glyph-name="aring" unicode="&#xe5;" horiz-adv-x="565" 
d="M280 760q22 0 41.5 -8.5t34.5 -23t23.5 -34t8.5 -41.5t-8.5 -42t-23.5 -34.5t-34.5 -23t-41.5 -8.5t-41.5 8.5t-34.5 23t-23.5 34.5t-8.5 42t8.5 41.5t23.5 34t34.5 23t41.5 8.5zM280 576q32 0 55 22.5t23 54.5q0 31 -23 53.5t-55 22.5t-54.5 -22.5t-22.5 -53.5
q0 -32 22.5 -54.5t54.5 -22.5zM585 37q-19 -21 -52 -33.5t-69 -12.5q-61 0 -92.5 24t-38.5 65q0 3 -1 12.5t-1 13.5q-12 -51 -54.5 -82t-106.5 -31q-29 0 -56 7.5t-47.5 23t-32.5 39t-12 55.5q0 42 19 69t51.5 43.5t74 26.5t86.5 18l76 14v97q0 19 -4 37t-13 32.5t-23.5 23
t-35.5 8.5q-35 0 -53 -22t-18 -54q0 -61 48 -61q9 0 19 3q-15 -29 -42.5 -44t-64.5 -15q-39 0 -67 22.5t-28 61.5q0 29 15.5 52.5t43 40t66.5 25.5t86 9q124 0 186.5 -40.5t62.5 -134.5q0 -46 -1 -93t-1 -101q0 -49 10 -75t47 -26q5 0 11.5 1t11.5 3v-2zM287 261
q-48 -10 -69.5 -38.5t-21.5 -77.5q0 -38 14.5 -60.5t43.5 -22.5q35 0 54.5 30t19.5 73l1 106z" />
    <glyph glyph-name="ae" unicode="&#xe6;" horiz-adv-x="838" 
d="M815 158q-22 -81 -84.5 -124.5t-147.5 -43.5q-75 0 -136.5 33t-93.5 96q-9 -23 -25 -45.5t-39 -40.5t-52.5 -29t-66.5 -11q-29 0 -56 7.5t-47.5 23t-32.5 39t-12 55.5q0 42 19 68.5t51.5 43t74 26t86.5 17.5l76 14v99q0 19 -4 37t-13 32.5t-23.5 23t-35.5 8.5
q-35 0 -53 -22t-18 -54q0 -61 48 -61q9 0 19 3q-15 -29 -42.5 -44t-64.5 -15q-39 0 -67 22.5t-28 61.5q0 29 15.5 52.5t43 40t66.5 25.5t86 9q60 0 98 -17t60 -49q33 30 76.5 48t91.5 18q60 0 104.5 -18t74 -50t43.5 -74.5t14 -92.5h-318q0 -94 44.5 -146t117.5 -52
q46 0 83.5 21t60.5 68zM649 291q0 42 -2.5 78t-9.5 62.5t-20 41.5t-34 15q-38 0 -58 -54t-22 -143h146zM287 260q-48 -11 -69.5 -38.5t-21.5 -76.5q0 -38 14.5 -60.5t43.5 -22.5q37 0 56 30.5t19 76.5v100z" />
    <glyph glyph-name="ccedilla" unicode="&#xe7;" horiz-adv-x="512" 
d="M276 -224q-51 0 -83.5 25t-41.5 54l7 7q12 -21 29.5 -33t40.5 -12t36 14t13 38q0 32 -20.5 43.5t-55.5 13.5l43 66q-46 5 -87 24t-72 50.5t-48.5 74.5t-17.5 97q0 63 22 112.5t61 84t91.5 52.5t112.5 18q41 0 75.5 -8.5t59.5 -25t39.5 -40.5t14.5 -55q0 -45 -29 -68
t-65 -23q-40 0 -62.5 18t-24.5 40q9 -3 18 -3q28 0 40 20t12 49q0 36 -19 57.5t-57 21.5q-26 0 -45.5 -16t-32 -43.5t-19 -65t-6.5 -81.5q0 -103 42 -156.5t112 -53.5q43 0 80 21t60 68l6 -3q-21 -81 -83 -124.5t-146 -43.5h-14l-26 -40q71 3 113 -19t42 -68q0 -21 -9.5 -37
t-25.5 -27.5t-36.5 -17t-43.5 -5.5z" />
    <glyph glyph-name="egrave" unicode="&#xe8;" horiz-adv-x="536" 
d="M268 693q1 -39 8.5 -79.5t26.5 -73.5h-4q-60 31 -100 69t-63 84h132zM281 505q60 0 105 -18t74 -50t43.5 -74.5t14.5 -92.5h-318q0 -94 44.5 -146t116.5 -52q46 0 84 21t61 68l7 -3q-22 -81 -84.5 -124.5t-148.5 -43.5q-54 0 -101.5 17t-83 50t-56 81t-20.5 109
q0 59 21 106.5t56.5 81.5t83 52t101.5 18zM346 291q0 42 -2 78t-9 62.5t-20 41.5t-34 15q-39 0 -58.5 -54t-21.5 -143h145z" />
    <glyph glyph-name="eacute" unicode="&#xe9;" horiz-adv-x="536" 
d="M399 693q-47 -93 -162 -153h-5q19 33 26.5 73.5t9.5 79.5h131zM281 505q60 0 105 -18t74 -50t43.5 -74.5t14.5 -92.5h-318q0 -94 44.5 -146t116.5 -52q46 0 84 21t61 68l7 -3q-22 -81 -84.5 -124.5t-148.5 -43.5q-54 0 -101.5 17t-83 50t-56 81t-20.5 109q0 59 21 106.5
t56.5 81.5t83 52t101.5 18zM346 291q0 42 -2 78t-9 62.5t-20 41.5t-34 15q-39 0 -58.5 -54t-21.5 -143h145z" />
    <glyph glyph-name="ecircumflex" unicode="&#xea;" horiz-adv-x="536" 
d="M399 530q-38 11 -71.5 28.5t-59.5 36.5q-26 -19 -59.5 -36.5t-71.5 -28.5h-7q19 19 39.5 42.5t39 47.5t33.5 47.5t24 42.5h4q9 -19 24 -42.5t33.5 -47.5t39 -47.5t39.5 -42.5h-7zM281 505q60 0 105 -18t74 -50t43.5 -74.5t14.5 -92.5h-318q0 -94 44.5 -146t116.5 -52
q46 0 84 21t61 68l7 -3q-22 -81 -84.5 -124.5t-148.5 -43.5q-54 0 -101.5 17t-83 50t-56 81t-20.5 109q0 59 21 106.5t56.5 81.5t83 52t101.5 18zM346 291q0 42 -2 78t-9 62.5t-20 41.5t-34 15q-39 0 -58.5 -54t-21.5 -143h145z" />
    <glyph glyph-name="edieresis" unicode="&#xeb;" horiz-adv-x="536" 
d="M180 553q-37 0 -62 26t-25 62q0 37 25 63.5t62 26.5t62.5 -26.5t25.5 -63.5q0 -36 -25.5 -62t-62.5 -26zM391 553q-37 0 -63 26t-26 62q0 37 26 63.5t63 26.5t62.5 -26.5t25.5 -63.5q0 -36 -25.5 -62t-62.5 -26zM281 505q60 0 105 -18t74 -50t43.5 -74.5t14.5 -92.5h-318
q0 -94 44.5 -146t116.5 -52q46 0 84 21t61 68l7 -3q-22 -81 -84.5 -124.5t-148.5 -43.5q-54 0 -101.5 17t-83 50t-56 81t-20.5 109q0 59 21 106.5t56.5 81.5t83 52t101.5 18zM346 291q0 42 -2 78t-9 62.5t-20 41.5t-34 15q-39 0 -58.5 -54t-21.5 -143h145z" />
    <glyph glyph-name="igrave" unicode="&#xec;" horiz-adv-x="309" 
d="M155 693q1 -39 8.5 -79.5t26.5 -73.5h-4q-60 31 -100 69t-63 84h132zM247 109q0 -25 1 -40.5t6 -27t14.5 -20t25.5 -19.5v-2h-273v2q17 11 26 19.5t14 20t6 27t1 40.5v275q0 26 -1.5 42t-7 27.5t-16 20.5t-28.5 19v2h232v-386z" />
    <glyph glyph-name="iacute" unicode="&#xed;" horiz-adv-x="309" 
d="M286 693q-47 -93 -162 -153h-5q19 33 26.5 73.5t9.5 79.5h131zM247 109q0 -25 1 -40.5t6 -27t14.5 -20t25.5 -19.5v-2h-273v2q17 11 26 19.5t14 20t6 27t1 40.5v275q0 26 -1.5 42t-7 27.5t-16 20.5t-28.5 19v2h232v-386z" />
    <glyph glyph-name="icircumflex" unicode="&#xee;" horiz-adv-x="309" 
d="M328 534q-51 15 -95.5 38t-78.5 48q-34 -25 -78.5 -48t-95.5 -38h-10q25 26 52.5 56.5t52 62.5t45 63t32.5 57h4q12 -26 32.5 -57t45 -63t52 -62.5t52.5 -56.5h-10zM247 109q0 -25 1 -40.5t6 -27t14.5 -20t25.5 -19.5v-2h-273v2q17 11 26 19.5t14 20t6 27t1 40.5v275
q0 26 -1.5 42t-7 27.5t-16 20.5t-28.5 19v2h232v-386z" />
    <glyph glyph-name="idieresis" unicode="&#xef;" horiz-adv-x="309" 
d="M48 553q-37 0 -62 26t-25 62q0 37 25 63.5t62 26.5t62.5 -26.5t25.5 -63.5q0 -36 -25.5 -62t-62.5 -26zM259 553q-37 0 -63 26t-26 62q0 37 26 63.5t63 26.5t62.5 -26.5t25.5 -63.5q0 -36 -25.5 -62t-62.5 -26zM247 109q0 -25 1 -40.5t6 -27t14.5 -20t25.5 -19.5v-2h-273
v2q17 11 26 19.5t14 20t6 27t1 40.5v275q0 26 -1.5 42t-7 27.5t-16 20.5t-28.5 19v2h232v-386z" />
    <glyph glyph-name="eth" unicode="&#xf0;" horiz-adv-x="587" 
d="M294 -10q-56 0 -106 18t-87.5 52t-59.5 81.5t-22 106.5t22 106t59.5 81t87 52t105.5 18q20 0 43 -7t35 -20q-5 39 -22 76.5t-43 71.5l-150 -57l-10 26l141 53q-32 35 -73.5 61t-90.5 39l1 11q65 -8 125 -28.5t112 -54.5l113 42l9 -26l-94 -35q81 -61 130 -154t49 -219
q0 -72 -22 -126.5t-59.5 -92t-87 -56.5t-105.5 -19zM294 7q47 0 65.5 61t18.5 180q0 118 -18.5 179t-65.5 61q-48 0 -66.5 -61t-18.5 -179q0 -119 18.5 -180t66.5 -61z" />
    <glyph glyph-name="ntilde" unicode="&#xf1;" horiz-adv-x="639" 
d="M520 739q-6 -79 -38.5 -125.5t-81.5 -46.5q-25 0 -46 8t-40 17.5t-38 17.5t-41 8q-59 0 -86 -59h-5q6 79 38.5 125t81.5 46q26 0 46.5 -8t39.5 -17.5t38 -17.5t41 -8q60 0 86 60h5zM247 365q18 68 64 104t109 36q41 0 71 -13.5t49.5 -36.5t29 -55t9.5 -68v-223
q0 -25 1 -40.5t6 -27t14.5 -20t25.5 -19.5v-2h-273v2q17 11 26 19.5t14 20t6 27t1 40.5v228q0 35 -16.5 59t-51.5 24q-38 0 -61.5 -32t-23.5 -100v-179q0 -25 1 -40.5t6 -27t14.5 -20t25.5 -19.5v-2h-273v2q17 11 26 19.5t14 20t6 27t1 40.5v275q0 26 -1.5 42t-7 27.5
t-16 20.5t-28.5 19v2h232v-130z" />
    <glyph glyph-name="ograve" unicode="&#xf2;" horiz-adv-x="588" 
d="M294 693q1 -39 8.5 -79.5t26.5 -73.5h-4q-60 31 -100 69t-63 84h132zM294 -10q-57 0 -107 18.5t-87.5 52t-59 81.5t-21.5 106t21.5 105.5t59 81t87.5 52t107 18.5t107 -18.5t87.5 -52t59 -81t21.5 -105.5t-21.5 -106t-59 -81.5t-87.5 -52t-107 -18.5zM294 7q47 0 66 61
t19 180q0 118 -19 179t-66 61t-66 -61t-19 -179q0 -119 19 -180t66 -61z" />
    <glyph glyph-name="oacute" unicode="&#xf3;" horiz-adv-x="588" 
d="M425 693q-47 -93 -162 -153h-5q19 33 26.5 73.5t9.5 79.5h131zM294 -10q-57 0 -107 18.5t-87.5 52t-59 81.5t-21.5 106t21.5 105.5t59 81t87.5 52t107 18.5t107 -18.5t87.5 -52t59 -81t21.5 -105.5t-21.5 -106t-59 -81.5t-87.5 -52t-107 -18.5zM294 7q47 0 66 61t19 180
q0 118 -19 179t-66 61t-66 -61t-19 -179q0 -119 19 -180t66 -61z" />
    <glyph glyph-name="ocircumflex" unicode="&#xf4;" horiz-adv-x="588" 
d="M425 530q-38 11 -71.5 28.5t-59.5 36.5q-26 -19 -59.5 -36.5t-71.5 -28.5h-7q19 19 39.5 42.5t39 47.5t33.5 47.5t24 42.5h4q9 -19 24 -42.5t33.5 -47.5t39 -47.5t39.5 -42.5h-7zM294 -10q-57 0 -107 18.5t-87.5 52t-59 81.5t-21.5 106t21.5 105.5t59 81t87.5 52
t107 18.5t107 -18.5t87.5 -52t59 -81t21.5 -105.5t-21.5 -106t-59 -81.5t-87.5 -52t-107 -18.5zM294 7q47 0 66 61t19 180q0 118 -19 179t-66 61t-66 -61t-19 -179q0 -119 19 -180t66 -61z" />
    <glyph glyph-name="otilde" unicode="&#xf5;" horiz-adv-x="588" 
d="M435 688q-5 -60 -29 -94.5t-61 -34.5q-19 0 -34.5 6t-30 13t-28.5 13t-31 6q-45 0 -64 -44h-4q5 60 29 94t61 34q19 0 34.5 -6t30 -13t29 -13t30.5 -6q45 0 64 45h4zM294 -10q-57 0 -107 18.5t-87.5 52t-59 81.5t-21.5 106t21.5 105.5t59 81t87.5 52t107 18.5t107 -18.5
t87.5 -52t59 -81t21.5 -105.5t-21.5 -106t-59 -81.5t-87.5 -52t-107 -18.5zM294 7q47 0 66 61t19 180q0 118 -19 179t-66 61t-66 -61t-19 -179q0 -119 19 -180t66 -61z" />
    <glyph glyph-name="odieresis" unicode="&#xf6;" horiz-adv-x="588" 
d="M188 553q-37 0 -62 26t-25 62q0 37 25 63.5t62 26.5t62.5 -26.5t25.5 -63.5q0 -36 -25.5 -62t-62.5 -26zM399 553q-37 0 -63 26t-26 62q0 37 26 63.5t63 26.5t62.5 -26.5t25.5 -63.5q0 -36 -25.5 -62t-62.5 -26zM294 -10q-57 0 -107 18.5t-87.5 52t-59 81.5t-21.5 106
t21.5 105.5t59 81t87.5 52t107 18.5t107 -18.5t87.5 -52t59 -81t21.5 -105.5t-21.5 -106t-59 -81.5t-87.5 -52t-107 -18.5zM294 7q47 0 66 61t19 180q0 118 -19 179t-66 61t-66 -61t-19 -179q0 -119 19 -180t66 -61z" />
    <glyph glyph-name="divide" unicode="&#xf7;" horiz-adv-x="479" 
d="M207 487q0 14 9 23t23 9t23.5 -9t9.5 -23t-9.5 -23.5t-23.5 -9.5t-23 9.5t-9 23.5zM435 337v-30h-391v30h391zM207 157q0 14 9 23.5t23 9.5t23.5 -9.5t9.5 -23.5q0 -13 -9.5 -22.5t-23.5 -9.5t-23 9.5t-9 22.5z" />
    <glyph glyph-name="oslash" unicode="&#xf8;" horiz-adv-x="588" 
d="M294 -10q-100 0 -174 54l-53 -56l-19 18l52 54q-38 34 -59.5 81.5t-21.5 106.5q0 58 21.5 105.5t59 81t87.5 52t107 18.5q51 0 95.5 -14.5t80.5 -41.5l53 56l19 -18l-52 -54q37 -34 58 -81t21 -104q0 -58 -21.5 -106t-59 -81.5t-87.5 -52t-107 -18.5zM209 248
q0 -20 0.5 -37t1.5 -34l164 172q-7 69 -26.5 104t-54.5 35q-47 0 -66 -61t-19 -179zM294 7q47 0 66 61t19 180q0 18 -0.5 34.5t-1.5 31.5l-163 -172q14 -135 80 -135z" />
    <glyph glyph-name="ugrave" unicode="&#xf9;" horiz-adv-x="629" 
d="M315 693q1 -39 8.5 -79.5t26.5 -73.5h-4q-60 31 -100 69t-63 84h132zM388 384q0 26 -1.5 42t-7 27.5t-16 20.5t-28.5 19v2h232v-389q0 -24 2 -40t8 -27t16 -19t26 -18v-2h-231v133q-17 -69 -62.5 -106t-110.5 -37q-40 0 -70 13.5t-49.5 37t-29 55.5t-9.5 68v220
q0 26 -1.5 42t-7 27.5t-16 20.5t-27.5 19v2h231v-336q0 -33 16.5 -58t50.5 -25q38 0 61.5 31.5t23.5 100.5v176z" />
    <glyph glyph-name="uacute" unicode="&#xfa;" horiz-adv-x="629" 
d="M446 693q-47 -93 -162 -153h-5q19 33 26.5 73.5t9.5 79.5h131zM388 384q0 26 -1.5 42t-7 27.5t-16 20.5t-28.5 19v2h232v-389q0 -24 2 -40t8 -27t16 -19t26 -18v-2h-231v133q-17 -69 -62.5 -106t-110.5 -37q-40 0 -70 13.5t-49.5 37t-29 55.5t-9.5 68v220q0 26 -1.5 42
t-7 27.5t-16 20.5t-27.5 19v2h231v-336q0 -33 16.5 -58t50.5 -25q38 0 61.5 31.5t23.5 100.5v176z" />
    <glyph glyph-name="ucircumflex" unicode="&#xfb;" horiz-adv-x="629" 
d="M488 534q-51 15 -95.5 38t-78.5 48q-34 -25 -78.5 -48t-95.5 -38h-10q26 26 53 56.5t51.5 62.5t45 63t32.5 57h4q12 -26 32.5 -57t45 -63t52 -62.5t52.5 -56.5h-10zM388 384q0 26 -1.5 42t-7 27.5t-16 20.5t-28.5 19v2h232v-389q0 -24 2 -40t8 -27t16 -19t26 -18v-2h-231
v133q-17 -69 -62.5 -106t-110.5 -37q-40 0 -70 13.5t-49.5 37t-29 55.5t-9.5 68v220q0 26 -1.5 42t-7 27.5t-16 20.5t-27.5 19v2h231v-336q0 -33 16.5 -58t50.5 -25q38 0 61.5 31.5t23.5 100.5v176z" />
    <glyph glyph-name="udieresis" unicode="&#xfc;" horiz-adv-x="629" 
d="M208 553q-37 0 -62 26t-25 62q0 37 25 63.5t62 26.5t62.5 -26.5t25.5 -63.5q0 -36 -25.5 -62t-62.5 -26zM419 553q-37 0 -63 26t-26 62q0 37 26 63.5t63 26.5t62.5 -26.5t25.5 -63.5q0 -36 -25.5 -62t-62.5 -26zM388 384q0 26 -1.5 42t-7 27.5t-16 20.5t-28.5 19v2h232
v-389q0 -24 2 -40t8 -27t16 -19t26 -18v-2h-231v133q-17 -69 -62.5 -106t-110.5 -37q-40 0 -70 13.5t-49.5 37t-29 55.5t-9.5 68v220q0 26 -1.5 42t-7 27.5t-16 20.5t-27.5 19v2h231v-336q0 -33 16.5 -58t50.5 -25q38 0 61.5 31.5t23.5 100.5v176z" />
    <glyph glyph-name="yacute" unicode="&#xfd;" horiz-adv-x="544" 
d="M403 693q-47 -93 -162 -153h-5q19 33 26.5 73.5t9.5 79.5h131zM66 387q-12 23 -20 38.5t-16 26.5t-17 20.5t-21 20.5v2h273v-2q-16 -10 -22 -20t-6 -25q0 -12 4 -27t11 -29l106 -221l85 208q10 24 10 46q0 25 -13.5 42t-37.5 26v2h150v-2q-13 -10 -23 -19.5t-18.5 -22
t-17 -29t-18.5 -40.5l-204 -488q-26 -63 -59 -93t-81 -30q-45 0 -74.5 24t-29.5 69q0 42 25.5 64t60.5 22q16 0 29 -4q-26 -15 -26 -47q0 -24 16 -39.5t40 -15.5q29 0 48 17.5t36 55.5l23 50z" />
    <glyph glyph-name="thorn" unicode="&#xfe;" horiz-adv-x="637" 
d="M239 371q16 56 58.5 95t108.5 39q44 0 82.5 -17.5t67.5 -50.5t45.5 -79.5t16.5 -103.5q0 -60 -17.5 -108.5t-48 -83t-71 -53.5t-87.5 -19q-62 0 -100.5 31t-54.5 81v-212q0 -25 1 -41t6 -27t14.5 -20t25.5 -19v-2h-273v2q17 10 26 19t14 20t6 27t1 41v748q0 25 -2.5 41.5
t-9 28.5t-18 21t-29.5 18v2h238v-378zM333 434q-38 0 -66 -36.5t-28 -96.5v-114q0 -68 29 -107.5t67 -39.5q48 0 70.5 53.5t22.5 159.5q0 88 -24 134.5t-71 46.5z" />
    <glyph glyph-name="ydieresis" unicode="&#xff;" horiz-adv-x="544" 
d="M189 553q-37 0 -62 26t-25 62q0 37 25 63.5t62 26.5t62.5 -26.5t25.5 -63.5q0 -36 -25.5 -62t-62.5 -26zM400 553q-37 0 -63 26t-26 62q0 37 26 63.5t63 26.5t62.5 -26.5t25.5 -63.5q0 -36 -25.5 -62t-62.5 -26zM66 387q-12 23 -20 38.5t-16 26.5t-17 20.5t-21 20.5v2
h273v-2q-16 -10 -22 -20t-6 -25q0 -12 4 -27t11 -29l106 -221l85 208q10 24 10 46q0 25 -13.5 42t-37.5 26v2h150v-2q-13 -10 -23 -19.5t-18.5 -22t-17 -29t-18.5 -40.5l-204 -488q-26 -63 -59 -93t-81 -30q-45 0 -74.5 24t-29.5 69q0 42 25.5 64t60.5 22q16 0 29 -4
q-26 -15 -26 -47q0 -24 16 -39.5t40 -15.5q29 0 48 17.5t36 55.5l23 50z" />
    <glyph glyph-name="Amacron" unicode="&#x100;" horiz-adv-x="745" 
d="M210 821h309v-38h-309v38zM0 0v2q28 18 49.5 46t43.5 75l275 587h4l292 -598q11 -23 20.5 -40t18.5 -29.5t19 -22t23 -18.5v-2h-315v2q22 13 32 26t10 30q0 14 -3.5 27.5t-11.5 29.5l-43 91h-248l-34 -75q-13 -29 -13 -54q0 -23 13.5 -42.5t41.5 -32.5v-2h-174zM400 235
l-113 241l-108 -241h221z" />
    <glyph glyph-name="amacron" unicode="&#x101;" horiz-adv-x="565" 
d="M125 634h309v-37h-309v37zM585 37q-19 -21 -52 -33.5t-69 -12.5q-61 0 -92.5 24t-38.5 65q0 3 -1 12.5t-1 13.5q-12 -51 -54.5 -82t-106.5 -31q-29 0 -56 7.5t-47.5 23t-32.5 39t-12 55.5q0 42 19 69t51.5 43.5t74 26.5t86.5 18l76 14v97q0 19 -4 37t-13 32.5t-23.5 23
t-35.5 8.5q-35 0 -53 -22t-18 -54q0 -61 48 -61q9 0 19 3q-15 -29 -42.5 -44t-64.5 -15q-39 0 -67 22.5t-28 61.5q0 29 15.5 52.5t43 40t66.5 25.5t86 9q124 0 186.5 -40.5t62.5 -134.5q0 -46 -1 -93t-1 -101q0 -49 10 -75t47 -26q5 0 11.5 1t11.5 3v-2zM287 261
q-48 -10 -69.5 -38.5t-21.5 -77.5q0 -38 14.5 -60.5t43.5 -22.5q35 0 54.5 30t19.5 73l1 106z" />
    <glyph glyph-name="Abreve" unicode="&#x102;" horiz-adv-x="745" 
d="M493 908q0 -70 -33 -111.5t-87 -41.5t-87 41.5t-33 111.5h4q3 -18 15 -31t28.5 -21.5t35.5 -12t37 -3.5t37 3.5t35.5 12t28.5 21.5t15 31h4zM0 0v2q28 18 49.5 46t43.5 75l275 587h4l292 -598q11 -23 20.5 -40t18.5 -29.5t19 -22t23 -18.5v-2h-315v2q22 13 32 26t10 30
q0 14 -3.5 27.5t-11.5 29.5l-43 91h-248l-34 -75q-13 -29 -13 -54q0 -23 13.5 -42.5t41.5 -32.5v-2h-174zM400 235l-113 241l-108 -241h221z" />
    <glyph glyph-name="abreve" unicode="&#x103;" horiz-adv-x="565" 
d="M403 703q0 -70 -33 -111.5t-87 -41.5t-87 41.5t-33 111.5h4q3 -18 15 -31t28.5 -21.5t35.5 -12t37 -3.5t37 3.5t35.5 12t28.5 21.5t15 31h4zM585 37q-19 -21 -52 -33.5t-69 -12.5q-61 0 -92.5 24t-38.5 65q0 3 -1 12.5t-1 13.5q-12 -51 -54.5 -82t-106.5 -31
q-29 0 -56 7.5t-47.5 23t-32.5 39t-12 55.5q0 42 19 69t51.5 43.5t74 26.5t86.5 18l76 14v97q0 19 -4 37t-13 32.5t-23.5 23t-35.5 8.5q-35 0 -53 -22t-18 -54q0 -61 48 -61q9 0 19 3q-15 -29 -42.5 -44t-64.5 -15q-39 0 -67 22.5t-28 61.5q0 29 15.5 52.5t43 40t66.5 25.5
t86 9q124 0 186.5 -40.5t62.5 -134.5q0 -46 -1 -93t-1 -101q0 -49 10 -75t47 -26q5 0 11.5 1t11.5 3v-2zM287 261q-48 -10 -69.5 -38.5t-21.5 -77.5q0 -38 14.5 -60.5t43.5 -22.5q35 0 54.5 30t19.5 73l1 106z" />
    <glyph glyph-name="Aogonek" unicode="&#x104;" horiz-adv-x="745" 
d="M535 -129q-19 -50 -54 -81t-95 -31q-45 0 -76.5 25t-31.5 67q0 28 14.5 50.5t37.5 41t51.5 34.5t57.5 31q18 10 25.5 23t7.5 27t-3.5 27.5t-11.5 29.5l-43 91h-248l-34 -75q-13 -29 -13 -54q0 -23 13.5 -42.5t41.5 -32.5v-2h-174v2q28 18 49.5 46t43.5 75l275 587h4
l292 -598q11 -23 20.5 -40t18.5 -29.5t19 -22t23 -18.5v-2h-296q-38 -30 -53 -58t-15 -53q0 -32 17.5 -48.5t43.5 -16.5q27 0 48 10.5t42 38.5zM400 235l-113 241l-108 -241h221z" />
    <glyph glyph-name="aogonek" unicode="&#x105;" horiz-adv-x="565" 
d="M436 -241q-45 0 -76.5 25t-31.5 67q0 26 13.5 46.5t35.5 37.5t50.5 31t58.5 26q-6 -1 -11.5 -1h-10.5q-61 0 -92.5 24t-38.5 65q0 3 -1 12.5t-1 13.5q-12 -51 -54.5 -82t-106.5 -31q-29 0 -56 7.5t-47.5 23t-32.5 39t-12 55.5q0 42 19 69t51.5 43.5t74 26.5t86.5 18
l76 14v97q0 19 -4 37t-13 32.5t-23.5 23t-35.5 8.5q-35 0 -53 -22t-18 -54q0 -61 48 -61q9 0 19 3q-15 -29 -42.5 -44t-64.5 -15q-39 0 -67 22.5t-28 61.5q0 29 15.5 52.5t43 40t66.5 25.5t86 9q124 0 186.5 -40.5t62.5 -134.5q0 -46 -1 -93t-1 -101q0 -49 10 -75t47 -26
q5 0 11.5 1t11.5 3v-2q-18 -15 -44 -28t-50.5 -29t-42 -37.5t-17.5 -53.5t17.5 -48.5t43.5 -16.5q28 0 48.5 10.5t41.5 38.5l3 -2q-19 -50 -53.5 -81t-95.5 -31zM287 261q-48 -10 -69.5 -38.5t-21.5 -77.5q0 -38 14.5 -60.5t43.5 -22.5q35 0 54.5 30t19.5 73l1 106z" />
    <glyph glyph-name="Cacute" unicode="&#x106;" horiz-adv-x="685" 
d="M536 931q-31 -60 -84 -109t-132 -87h-5q24 42 33 93.5t11 102.5h177zM646 472q-19 47 -42 87t-51 68.5t-60.5 44.5t-70.5 16q-46 0 -82.5 -24t-61 -65.5t-37.5 -96.5t-13 -118q0 -71 18.5 -126.5t50.5 -93.5t75 -58t92 -20q62 0 112.5 26.5t84.5 96.5l6 -2
q-26 -101 -102.5 -159t-194.5 -58q-74 0 -137 25t-109 71t-72 110.5t-26 143.5q0 82 30 150t81 117t119.5 76t146.5 27q34 0 60.5 -4.5t47.5 -10.5t37 -10.5t28 -4.5q20 0 34.5 8t30.5 22l7 -238h-2z" />
    <glyph glyph-name="cacute" unicode="&#x107;" horiz-adv-x="512" 
d="M443 749q-60 -124 -215 -204h-6q25 45 35 98t12 106h174zM308 488q-26 0 -45.5 -16t-32 -43.5t-19 -65t-6.5 -81.5q0 -103 42 -156.5t112 -53.5q43 0 80 21t60 68l6 -3q-21 -81 -83 -124.5t-146 -43.5q-52 0 -98.5 17t-81.5 49t-56 78t-21 104q0 63 22 112.5t61 84
t91.5 52.5t112.5 18q41 0 75.5 -8.5t59.5 -25t39.5 -40.5t14.5 -55q0 -45 -29 -68t-65 -23q-40 0 -62.5 18t-24.5 40q9 -3 18 -3q28 0 40 20t12 49q0 36 -19 57.5t-57 21.5z" />
    <glyph glyph-name="Ccircumflex" unicode="&#x108;" horiz-adv-x="685" 
d="M568 728q-51 14 -95 36t-78 45q-34 -23 -78.5 -45t-95.5 -36h-11q26 25 53.5 55t52 61t45 61.5t32.5 55.5h4q12 -25 32 -55.5t45 -61.5t52 -61t53 -55h-11zM646 472q-19 47 -42 87t-51 68.5t-60.5 44.5t-70.5 16q-46 0 -82.5 -24t-61 -65.5t-37.5 -96.5t-13 -118
q0 -71 18.5 -126.5t50.5 -93.5t75 -58t92 -20q62 0 112.5 26.5t84.5 96.5l6 -2q-26 -101 -102.5 -159t-194.5 -58q-74 0 -137 25t-109 71t-72 110.5t-26 143.5q0 82 30 150t81 117t119.5 76t146.5 27q34 0 60.5 -4.5t47.5 -10.5t37 -10.5t28 -4.5q20 0 34.5 8t30.5 22
l7 -238h-2z" />
    <glyph glyph-name="ccircumflex" unicode="&#x109;" horiz-adv-x="512" 
d="M477 534q-51 15 -95.5 38t-78.5 48q-34 -25 -78.5 -48t-95.5 -38h-10q26 26 53 56.5t51.5 62.5t45 63t32.5 57h4q12 -26 32.5 -57t45 -63t52 -62.5t52.5 -56.5h-10zM308 488q-26 0 -45.5 -16t-32 -43.5t-19 -65t-6.5 -81.5q0 -103 42 -156.5t112 -53.5q43 0 80 21t60 68
l6 -3q-21 -81 -83 -124.5t-146 -43.5q-52 0 -98.5 17t-81.5 49t-56 78t-21 104q0 63 22 112.5t61 84t91.5 52.5t112.5 18q41 0 75.5 -8.5t59.5 -25t39.5 -40.5t14.5 -55q0 -45 -29 -68t-65 -23q-40 0 -62.5 18t-24.5 40q9 -3 18 -3q28 0 40 20t12 49q0 36 -19 57.5t-57 21.5
z" />
    <glyph glyph-name="Cdotaccent" unicode="&#x10a;" horiz-adv-x="685" 
d="M294 842q0 42 28.5 69t71.5 27t72.5 -27t29.5 -69q0 -40 -29.5 -68t-72.5 -28t-71.5 28t-28.5 68zM646 472q-19 47 -42 87t-51 68.5t-60.5 44.5t-70.5 16q-46 0 -82.5 -24t-61 -65.5t-37.5 -96.5t-13 -118q0 -71 18.5 -126.5t50.5 -93.5t75 -58t92 -20q62 0 112.5 26.5
t84.5 96.5l6 -2q-26 -101 -102.5 -159t-194.5 -58q-74 0 -137 25t-109 71t-72 110.5t-26 143.5q0 82 30 150t81 117t119.5 76t146.5 27q34 0 60.5 -4.5t47.5 -10.5t37 -10.5t28 -4.5q20 0 34.5 8t30.5 22l7 -238h-2z" />
    <glyph glyph-name="cdotaccent" unicode="&#x10b;" horiz-adv-x="512" 
d="M202 650q0 42 28.5 69t71.5 27t72.5 -27t29.5 -69q0 -40 -29.5 -68t-72.5 -28t-71.5 28t-28.5 68zM308 488q-26 0 -45.5 -16t-32 -43.5t-19 -65t-6.5 -81.5q0 -103 42 -156.5t112 -53.5q43 0 80 21t60 68l6 -3q-21 -81 -83 -124.5t-146 -43.5q-52 0 -98.5 17t-81.5 49
t-56 78t-21 104q0 63 22 112.5t61 84t91.5 52.5t112.5 18q41 0 75.5 -8.5t59.5 -25t39.5 -40.5t14.5 -55q0 -45 -29 -68t-65 -23q-40 0 -62.5 18t-24.5 40q9 -3 18 -3q28 0 40 20t12 49q0 36 -19 57.5t-57 21.5z" />
    <glyph glyph-name="Ccaron" unicode="&#x10c;" horiz-adv-x="685" 
d="M221 964q51 -14 95.5 -36t78.5 -46q34 24 78.5 46t95.5 36h10q-25 -25 -52.5 -55t-52 -61.5t-45 -61.5t-32.5 -55h-4q-12 25 -32.5 55t-45 61.5t-51.5 61.5t-53 55h10zM646 472q-19 47 -42 87t-51 68.5t-60.5 44.5t-70.5 16q-46 0 -82.5 -24t-61 -65.5t-37.5 -96.5
t-13 -118q0 -71 18.5 -126.5t50.5 -93.5t75 -58t92 -20q62 0 112.5 26.5t84.5 96.5l6 -2q-26 -101 -102.5 -159t-194.5 -58q-74 0 -137 25t-109 71t-72 110.5t-26 143.5q0 82 30 150t81 117t119.5 76t146.5 27q34 0 60.5 -4.5t47.5 -10.5t37 -10.5t28 -4.5q20 0 34.5 8
t30.5 22l7 -238h-2z" />
    <glyph glyph-name="ccaron" unicode="&#x10d;" horiz-adv-x="512" 
d="M129 773q51 -15 95.5 -38t78.5 -47q34 24 78.5 47t95.5 38h10q-25 -25 -52.5 -56t-52 -63t-45 -63t-32.5 -57h-4q-12 26 -32.5 57t-45 63t-51.5 63t-53 56h10zM308 488q-26 0 -45.5 -16t-32 -43.5t-19 -65t-6.5 -81.5q0 -103 42 -156.5t112 -53.5q43 0 80 21t60 68l6 -3
q-21 -81 -83 -124.5t-146 -43.5q-52 0 -98.5 17t-81.5 49t-56 78t-21 104q0 63 22 112.5t61 84t91.5 52.5t112.5 18q41 0 75.5 -8.5t59.5 -25t39.5 -40.5t14.5 -55q0 -45 -29 -68t-65 -23q-40 0 -62.5 18t-24.5 40q9 -3 18 -3q28 0 40 20t12 49q0 36 -19 57.5t-57 21.5z" />
    <glyph glyph-name="Dcaron" unicode="&#x10e;" horiz-adv-x="776" 
d="M183 964q51 -14 95.5 -36t78.5 -46q34 24 78.5 46t95.5 36h10q-25 -25 -52.5 -55t-52 -61.5t-45 -61.5t-32.5 -55h-4q-12 25 -32.5 55t-45 61.5t-51.5 61.5t-53 55h10zM25 2q17 11 27.5 22t16.5 24.5t8.5 31t2.5 42.5v457q0 25 -2.5 42.5t-8.5 31t-16.5 24t-27.5 21.5v2
h299q93 0 171 -21t134.5 -64t88 -108.5t31.5 -153.5q0 -90 -31.5 -156.5t-87.5 -110t-132 -65t-165 -21.5h-308v2zM320 25q111 0 169.5 84t58.5 244q0 150 -59.5 236t-173.5 86h-47v-650h52z" />
    <glyph glyph-name="dcaron" unicode="&#x10f;" horiz-adv-x="640" 
d="M398 638q0 25 -3 42t-9.5 29t-18 20.5t-29.5 17.5v2h239v-640q0 -24 1.5 -39.5t6.5 -27t14.5 -20.5t25.5 -20v-2h-227v124q-16 -56 -59 -95t-109 -39q-43 0 -81.5 17.5t-67.5 50.5t-45.5 79.5t-16.5 104.5q0 60 17.5 108.5t48 83t71.5 53t87 18.5q62 0 100.5 -31
t54.5 -81v245zM790 749q-15 -62 -54 -122t-101 -102h-3q10 49 14 107.5t0 116.5h144zM304 61q38 0 66 36.5t28 96.5v114q0 68 -29 108t-67 40q-48 0 -71 -54t-23 -160q0 -88 24.5 -134.5t71.5 -46.5z" />
    <glyph glyph-name="Dcroat" unicode="&#x110;" horiz-adv-x="776" 
d="M25 2q17 11 27.5 22t16.5 24.5t8.5 31t2.5 42.5v225h-55v30h55v202q0 25 -2.5 42.5t-8.5 31t-16.5 24t-27.5 21.5v2h299q93 0 171 -21t134.5 -64t88 -108.5t31.5 -153.5q0 -90 -31.5 -156.5t-87.5 -110t-132 -65t-165 -21.5h-308v2zM320 25q111 0 169.5 84t58.5 244
q0 150 -59.5 236t-173.5 86h-47v-298h112v-30h-112v-322h52z" />
    <glyph glyph-name="dcroat" unicode="&#x111;" horiz-adv-x="644" 
d="M398 124q-16 -56 -59 -95t-109 -39q-43 0 -81.5 17.5t-67.5 50.5t-45.5 79.5t-16.5 104.5q0 60 17.5 108.5t48 83t71.5 53t87 18.5q62 0 100.5 -31t54.5 -81v189h-110v25h110v31q0 25 -3 42t-9.5 29t-18 20.5t-29.5 17.5v2h239v-142h55v-25h-55v-473q0 -24 1.5 -39.5
t6.5 -27t14.5 -20.5t25.5 -20v-2h-227v124zM304 61q38 0 66 36.5t28 96.5v114q0 68 -29 108t-67 40q-48 0 -71 -54t-23 -160q0 -88 24.5 -134.5t71.5 -46.5z" />
    <glyph glyph-name="Emacron" unicode="&#x112;" horiz-adv-x="662" 
d="M185 821h309v-38h-309v38zM515 700q25 0 42 2t28 7l34 -194h-2q-22 38 -43.5 67t-48.5 49.5t-61.5 31t-81.5 10.5h-114v-297h91q30 0 52.5 4.5t39 17.5t29.5 35t25 57h2v-252h-2q-12 35 -25 56t-29.5 33t-39 16t-52.5 4h-91v-320h130q50 0 86 13.5t64 37.5t50 56.5
t44 69.5h2l-32 -204h-587v2q17 11 27.5 22t16.5 24.5t8.5 31t2.5 42.5v457q0 25 -2.5 42.5t-8.5 31t-16.5 24t-27.5 21.5v2h490z" />
    <glyph glyph-name="emacron" unicode="&#x113;" horiz-adv-x="536" 
d="M131 634h309v-37h-309v37zM281 505q60 0 105 -18t74 -50t43.5 -74.5t14.5 -92.5h-318q0 -94 44.5 -146t116.5 -52q46 0 84 21t61 68l7 -3q-22 -81 -84.5 -124.5t-148.5 -43.5q-54 0 -101.5 17t-83 50t-56 81t-20.5 109q0 59 21 106.5t56.5 81.5t83 52t101.5 18zM346 291
q0 42 -2 78t-9 62.5t-20 41.5t-34 15q-39 0 -58.5 -54t-21.5 -143h145z" />
    <glyph glyph-name="Ebreve" unicode="&#x114;" horiz-adv-x="662" 
d="M500 935q0 -45 -12 -81.5t-33 -62.5t-50.5 -40t-65.5 -14t-65.5 14t-50.5 40t-32.5 62.5t-11.5 81.5h5q4 -22 20 -38.5t38 -26.5t47.5 -15t49.5 -5t49.5 5t47.5 15t38 26.5t20 38.5h6zM515 700q25 0 42 2t28 7l34 -194h-2q-22 38 -43.5 67t-48.5 49.5t-61.5 31
t-81.5 10.5h-114v-297h91q30 0 52.5 4.5t39 17.5t29.5 35t25 57h2v-252h-2q-12 35 -25 56t-29.5 33t-39 16t-52.5 4h-91v-320h130q50 0 86 13.5t64 37.5t50 56.5t44 69.5h2l-32 -204h-587v2q17 11 27.5 22t16.5 24.5t8.5 31t2.5 42.5v457q0 25 -2.5 42.5t-8.5 31t-16.5 24
t-27.5 21.5v2h490z" />
    <glyph glyph-name="ebreve" unicode="&#x115;" horiz-adv-x="536" 
d="M446 759q0 -46 -11.5 -83.5t-32.5 -64t-50.5 -41t-65.5 -14.5t-65.5 14.5t-50.5 41t-32.5 64t-11.5 83.5h5q4 -24 20 -41.5t38 -28t47.5 -15.5t49.5 -5t49.5 5t47.5 15.5t38 28t20 41.5h5zM281 505q60 0 105 -18t74 -50t43.5 -74.5t14.5 -92.5h-318q0 -94 44.5 -146
t116.5 -52q46 0 84 21t61 68l7 -3q-22 -81 -84.5 -124.5t-148.5 -43.5q-54 0 -101.5 17t-83 50t-56 81t-20.5 109q0 59 21 106.5t56.5 81.5t83 52t101.5 18zM346 291q0 42 -2 78t-9 62.5t-20 41.5t-34 15q-39 0 -58.5 -54t-21.5 -143h145z" />
    <glyph glyph-name="Edotaccent" unicode="&#x116;" horiz-adv-x="662" 
d="M239 837q0 42 28.5 69t71.5 27t72.5 -27t29.5 -69q0 -40 -29.5 -68t-72.5 -28t-71.5 28t-28.5 68zM515 700q25 0 42 2t28 7l34 -194h-2q-22 38 -43.5 67t-48.5 49.5t-61.5 31t-81.5 10.5h-114v-297h91q30 0 52.5 4.5t39 17.5t29.5 35t25 57h2v-252h-2q-12 35 -25 56
t-29.5 33t-39 16t-52.5 4h-91v-320h130q50 0 86 13.5t64 37.5t50 56.5t44 69.5h2l-32 -204h-587v2q17 11 27.5 22t16.5 24.5t8.5 31t2.5 42.5v457q0 25 -2.5 42.5t-8.5 31t-16.5 24t-27.5 21.5v2h490z" />
    <glyph glyph-name="edotaccent" unicode="&#x117;" horiz-adv-x="536" 
d="M185 650q0 42 28.5 69t71.5 27t72.5 -27t29.5 -69q0 -40 -29.5 -68t-72.5 -28t-71.5 28t-28.5 68zM281 505q60 0 105 -18t74 -50t43.5 -74.5t14.5 -92.5h-318q0 -94 44.5 -146t116.5 -52q46 0 84 21t61 68l7 -3q-22 -81 -84.5 -124.5t-148.5 -43.5q-54 0 -101.5 17
t-83 50t-56 81t-20.5 109q0 59 21 106.5t56.5 81.5t83 52t101.5 18zM346 291q0 42 -2 78t-9 62.5t-20 41.5t-34 15q-39 0 -58.5 -54t-21.5 -143h145z" />
    <glyph glyph-name="Eogonek" unicode="&#x118;" horiz-adv-x="662" 
d="M588 -129q-19 -50 -53.5 -81t-95.5 -31q-45 0 -76.5 25t-31.5 67q0 26 12.5 47t32.5 38.5t46.5 33t54.5 30.5h-452v2q17 11 27.5 22t16.5 24.5t8.5 31t2.5 42.5v457q0 25 -2.5 42.5t-8.5 31t-16.5 24t-27.5 21.5v2h490q25 0 42 2t28 7l34 -194h-2q-22 38 -43.5 67
t-48.5 49.5t-61.5 31t-81.5 10.5h-114v-297h91q30 0 52.5 4.5t39 17.5t29.5 35t25 57h2v-252h-2q-12 35 -25 56t-29.5 33t-39 16t-52.5 4h-91v-320h130q50 0 86 13.5t64 37.5t50 56.5t44 69.5h2l-32 -204h-111q-38 -30 -52.5 -58t-14.5 -53q0 -32 17.5 -48.5t43.5 -16.5
q27 0 48 10.5t42 38.5z" />
    <glyph glyph-name="eogonek" unicode="&#x119;" horiz-adv-x="536" 
d="M309 -241q-45 0 -76.5 25t-31.5 67q0 25 12 45.5t31.5 37.5t45 32.5t52.5 29.5q-14 -3 -30 -4.5t-32 -1.5q-54 0 -101.5 17t-83 50t-56 81t-20.5 109q0 59 21 106.5t56.5 81.5t83 52t101.5 18q60 0 105 -18t74 -50t43.5 -74.5t14.5 -92.5h-318q0 -94 44.5 -146t116.5 -52
q46 0 84 21t61 68l7 -3q-14 -54 -46.5 -88t-79.5 -62q-45 -27 -64 -56t-19 -63q0 -32 17.5 -48.5t43.5 -16.5q27 0 48 10.5t42 38.5l3 -2q-19 -50 -54 -81t-95 -31zM346 291q0 42 -2 78t-9 62.5t-20 41.5t-34 15q-39 0 -58.5 -54t-21.5 -143h145z" />
    <glyph glyph-name="Ecaron" unicode="&#x11a;" horiz-adv-x="662" 
d="M165 964q51 -14 95.5 -36t78.5 -46q34 24 78.5 46t95.5 36h10q-25 -25 -52.5 -55t-52 -61.5t-45 -61.5t-32.5 -55h-4q-12 25 -32.5 55t-45 61.5t-51.5 61.5t-53 55h10zM515 700q25 0 42 2t28 7l34 -194h-2q-22 38 -43.5 67t-48.5 49.5t-61.5 31t-81.5 10.5h-114v-297h91
q30 0 52.5 4.5t39 17.5t29.5 35t25 57h2v-252h-2q-12 35 -25 56t-29.5 33t-39 16t-52.5 4h-91v-320h130q50 0 86 13.5t64 37.5t50 56.5t44 69.5h2l-32 -204h-587v2q17 11 27.5 22t16.5 24.5t8.5 31t2.5 42.5v457q0 25 -2.5 42.5t-8.5 31t-16.5 24t-27.5 21.5v2h490z" />
    <glyph glyph-name="ecaron" unicode="&#x11b;" horiz-adv-x="536" 
d="M112 773q51 -15 95.5 -38t78.5 -47q34 24 78.5 47t95.5 38h10q-25 -25 -52.5 -56t-52 -63t-45 -63t-32.5 -57h-4q-12 26 -32.5 57t-45 63t-51.5 63t-53 56h10zM281 505q60 0 105 -18t74 -50t43.5 -74.5t14.5 -92.5h-318q0 -94 44.5 -146t116.5 -52q46 0 84 21t61 68l7 -3
q-22 -81 -84.5 -124.5t-148.5 -43.5q-54 0 -101.5 17t-83 50t-56 81t-20.5 109q0 59 21 106.5t56.5 81.5t83 52t101.5 18zM346 291q0 42 -2 78t-9 62.5t-20 41.5t-34 15q-39 0 -58.5 -54t-21.5 -143h145z" />
    <glyph glyph-name="Gcircumflex" unicode="&#x11c;" horiz-adv-x="769" 
d="M573 728q-51 14 -95 36t-78 45q-34 -23 -78.5 -45t-95.5 -36h-11q26 25 53.5 55t52 61t45 61.5t32.5 55.5h4q12 -25 32 -55.5t45 -61.5t52 -61t53 -55h-11zM427 688q-48 0 -84.5 -24.5t-61.5 -69.5t-38 -108t-13 -141q0 -70 11 -130.5t32 -104.5t52 -69.5t71 -25.5
q59 0 91.5 37t32.5 103v53q0 25 -2.5 42.5t-8.5 31t-16.5 24t-27.5 21.5v2h293v-2q-17 -11 -27.5 -21.5t-16.5 -24t-8.5 -31t-2.5 -42.5v-218h-2l-87 100q-35 -42 -94 -71t-128 -29q-81 0 -148.5 25.5t-115.5 72t-75 112t-27 145.5q0 82 30.5 149.5t83 115.5t122 74
t147.5 26q35 0 63 -4.5t49.5 -10.5t38 -10.5t28.5 -4.5q20 0 34.5 8t30.5 22l7 -238h-2q-20 47 -44.5 86.5t-53.5 68.5t-62.5 45t-70.5 16z" />
    <glyph glyph-name="gcircumflex" unicode="&#x11d;" horiz-adv-x="584" 
d="M434 534q-51 15 -95.5 38t-78.5 48q-34 -25 -78.5 -48t-95.5 -38h-10q26 26 53 56.5t51.5 62.5t45 63t32.5 57h4q12 -26 32.5 -57t45 -63t52 -62.5t52.5 -56.5h-10zM569 -33q0 -50 -26.5 -87t-70 -61t-100.5 -36t-119 -12q-44 0 -88.5 5t-80.5 17t-58.5 32.5t-22.5 51.5
q0 32 32.5 53.5t94.5 24.5q-45 10 -75.5 40t-30.5 79q0 48 33.5 81.5t79.5 46.5q-48 21 -72 57.5t-24 81.5q0 36 15 66t44 51.5t71.5 34t96.5 12.5q102 0 160 -43q8 13 17 27t21 26t27.5 19.5t35.5 7.5q39 0 61.5 -20t22.5 -55q0 -22 -8.5 -37t-22 -24.5t-29.5 -13.5t-32 -4
v2q12 15 12 35t-12 35t-38 15q-14 0 -25.5 -6t-20.5 -15q60 -43 60 -113q0 -36 -15 -66t-44.5 -51.5t-72 -34t-97.5 -12.5q-66 0 -116 18q-18 -7 -30 -17.5t-12 -26.5q0 -36 48 -36h217q88 0 141 -37.5t53 -110.5zM268 489q-30 0 -42.5 -38t-12.5 -110q0 -73 12.5 -110
t42.5 -37q31 0 43.5 37t12.5 110q0 72 -12.5 110t-43.5 38zM253 -211q40 0 74.5 6t60.5 18t41 30t15 42q0 35 -23 50.5t-68 15.5h-166q-41 0 -65.5 -17t-24.5 -55q0 -23 12.5 -40t33.5 -28t49.5 -16.5t60.5 -5.5z" />
    <glyph glyph-name="Gbreve" unicode="&#x11e;" horiz-adv-x="769" 
d="M560 939q0 -45 -12 -81.5t-33 -62.5t-50.5 -40t-65.5 -14t-65.5 14t-50.5 40t-32.5 62.5t-11.5 81.5h5q4 -22 20 -38.5t38 -26.5t47.5 -15t49.5 -5t49.5 5t47.5 15t38 26.5t20 38.5h6zM427 688q-48 0 -84.5 -24.5t-61.5 -69.5t-38 -108t-13 -141q0 -70 11 -130.5
t32 -104.5t52 -69.5t71 -25.5q59 0 91.5 37t32.5 103v53q0 25 -2.5 42.5t-8.5 31t-16.5 24t-27.5 21.5v2h293v-2q-17 -11 -27.5 -21.5t-16.5 -24t-8.5 -31t-2.5 -42.5v-218h-2l-87 100q-35 -42 -94 -71t-128 -29q-81 0 -148.5 25.5t-115.5 72t-75 112t-27 145.5
q0 82 30.5 149.5t83 115.5t122 74t147.5 26q35 0 63 -4.5t49.5 -10.5t38 -10.5t28.5 -4.5q20 0 34.5 8t30.5 22l7 -238h-2q-20 47 -44.5 86.5t-53.5 68.5t-62.5 45t-70.5 16z" />
    <glyph glyph-name="gbreve" unicode="&#x11f;" horiz-adv-x="584" 
d="M430 759q0 -46 -11.5 -83.5t-32.5 -64t-50.5 -41t-65.5 -14.5t-65.5 14.5t-50.5 41t-32.5 64t-11.5 83.5h5q4 -24 20 -41.5t38 -28t47.5 -15.5t49.5 -5t49.5 5t47.5 15.5t38 28t20 41.5h5zM569 -33q0 -50 -26.5 -87t-70 -61t-100.5 -36t-119 -12q-44 0 -88.5 5t-80.5 17
t-58.5 32.5t-22.5 51.5q0 32 32.5 53.5t94.5 24.5q-45 10 -75.5 40t-30.5 79q0 48 33.5 81.5t79.5 46.5q-48 21 -72 57.5t-24 81.5q0 36 15 66t44 51.5t71.5 34t96.5 12.5q102 0 160 -43q8 13 17 27t21 26t27.5 19.5t35.5 7.5q39 0 61.5 -20t22.5 -55q0 -22 -8.5 -37
t-22 -24.5t-29.5 -13.5t-32 -4v2q12 15 12 35t-12 35t-38 15q-14 0 -25.5 -6t-20.5 -15q60 -43 60 -113q0 -36 -15 -66t-44.5 -51.5t-72 -34t-97.5 -12.5q-66 0 -116 18q-18 -7 -30 -17.5t-12 -26.5q0 -36 48 -36h217q88 0 141 -37.5t53 -110.5zM268 489q-30 0 -42.5 -38
t-12.5 -110q0 -73 12.5 -110t42.5 -37q31 0 43.5 37t12.5 110q0 72 -12.5 110t-43.5 38zM253 -211q40 0 74.5 6t60.5 18t41 30t15 42q0 35 -23 50.5t-68 15.5h-166q-41 0 -65.5 -17t-24.5 -55q0 -23 12.5 -40t33.5 -28t49.5 -16.5t60.5 -5.5z" />
    <glyph glyph-name="Gdotaccent" unicode="&#x120;" horiz-adv-x="769" 
d="M298 842q0 42 28.5 69t71.5 27t72.5 -27t29.5 -69q0 -40 -29.5 -68t-72.5 -28t-71.5 28t-28.5 68zM427 688q-48 0 -84.5 -24.5t-61.5 -69.5t-38 -108t-13 -141q0 -70 11 -130.5t32 -104.5t52 -69.5t71 -25.5q59 0 91.5 37t32.5 103v53q0 25 -2.5 42.5t-8.5 31t-16.5 24
t-27.5 21.5v2h293v-2q-17 -11 -27.5 -21.5t-16.5 -24t-8.5 -31t-2.5 -42.5v-218h-2l-87 100q-35 -42 -94 -71t-128 -29q-81 0 -148.5 25.5t-115.5 72t-75 112t-27 145.5q0 82 30.5 149.5t83 115.5t122 74t147.5 26q35 0 63 -4.5t49.5 -10.5t38 -10.5t28.5 -4.5q20 0 34.5 8
t30.5 22l7 -238h-2q-20 47 -44.5 86.5t-53.5 68.5t-62.5 45t-70.5 16z" />
    <glyph glyph-name="gdotaccent" unicode="&#x121;" horiz-adv-x="584" 
d="M169 650q0 42 28.5 69t71.5 27t72.5 -27t29.5 -69q0 -40 -29.5 -68t-72.5 -28t-71.5 28t-28.5 68zM569 -33q0 -50 -26.5 -87t-70 -61t-100.5 -36t-119 -12q-44 0 -88.5 5t-80.5 17t-58.5 32.5t-22.5 51.5q0 32 32.5 53.5t94.5 24.5q-45 10 -75.5 40t-30.5 79
q0 48 33.5 81.5t79.5 46.5q-48 21 -72 57.5t-24 81.5q0 36 15 66t44 51.5t71.5 34t96.5 12.5q102 0 160 -43q8 13 17 27t21 26t27.5 19.5t35.5 7.5q39 0 61.5 -20t22.5 -55q0 -22 -8.5 -37t-22 -24.5t-29.5 -13.5t-32 -4v2q12 15 12 35t-12 35t-38 15q-14 0 -25.5 -6
t-20.5 -15q60 -43 60 -113q0 -36 -15 -66t-44.5 -51.5t-72 -34t-97.5 -12.5q-66 0 -116 18q-18 -7 -30 -17.5t-12 -26.5q0 -36 48 -36h217q88 0 141 -37.5t53 -110.5zM268 489q-30 0 -42.5 -38t-12.5 -110q0 -73 12.5 -110t42.5 -37q31 0 43.5 37t12.5 110q0 72 -12.5 110
t-43.5 38zM253 -211q40 0 74.5 6t60.5 18t41 30t15 42q0 35 -23 50.5t-68 15.5h-166q-41 0 -65.5 -17t-24.5 -55q0 -23 12.5 -40t33.5 -28t49.5 -16.5t60.5 -5.5z" />
    <glyph glyph-name="uni0122" unicode="&#x122;" horiz-adv-x="769" 
d="M427 688q-48 0 -84.5 -24.5t-61.5 -69.5t-38 -108t-13 -141q0 -70 11 -130.5t32 -104.5t52 -69.5t71 -25.5q59 0 91.5 37t32.5 103v53q0 25 -2.5 42.5t-8.5 31t-16.5 24t-27.5 21.5v2h293v-2q-17 -11 -27.5 -21.5t-16.5 -24t-8.5 -31t-2.5 -42.5v-218h-2l-87 100
q-35 -42 -94 -71t-128 -29q-81 0 -148.5 25.5t-115.5 72t-75 112t-27 145.5q0 82 30.5 149.5t83 115.5t122 74t147.5 26q35 0 63 -4.5t49.5 -10.5t38 -10.5t28.5 -4.5q20 0 34.5 8t30.5 22l7 -238h-2q-20 47 -44.5 86.5t-53.5 68.5t-62.5 45t-70.5 16zM494 -136
q0 -68 -50.5 -103t-129.5 -36v16q57 5 88.5 23.5t35.5 53.5q-8 -7 -23 -12t-32 -5q-33 0 -54.5 24t-21.5 56q0 35 25.5 59t62.5 24q45 0 72 -27.5t27 -72.5z" />
    <glyph glyph-name="uni0123" unicode="&#x123;" horiz-adv-x="584" 
d="M175 645q0 68 50.5 102.5t129.5 35.5v-16q-57 -5 -88.5 -23.5t-35.5 -53.5q8 7 23 12t33 5q32 0 53.5 -24t21.5 -56q0 -35 -25.5 -58.5t-62.5 -23.5q-45 0 -72 27.5t-27 72.5zM569 -33q0 -50 -26.5 -87t-70 -61t-100.5 -36t-119 -12q-44 0 -88.5 5t-80.5 17t-58.5 32.5
t-22.5 51.5q0 32 32.5 53.5t94.5 24.5q-45 10 -75.5 40t-30.5 79q0 48 33.5 81.5t79.5 46.5q-48 21 -72 57.5t-24 81.5q0 36 15 66t44 51.5t71.5 34t96.5 12.5q102 0 160 -43q8 13 17 27t21 26t27.5 19.5t35.5 7.5q39 0 61.5 -20t22.5 -55q0 -22 -8.5 -37t-22 -24.5
t-29.5 -13.5t-32 -4v2q12 15 12 35t-12 35t-38 15q-14 0 -25.5 -6t-20.5 -15q60 -43 60 -113q0 -36 -15 -66t-44.5 -51.5t-72 -34t-97.5 -12.5q-66 0 -116 18q-18 -7 -30 -17.5t-12 -26.5q0 -36 48 -36h217q88 0 141 -37.5t53 -110.5zM268 489q-30 0 -42.5 -38t-12.5 -110
q0 -73 12.5 -110t42.5 -37q31 0 43.5 37t12.5 110q0 72 -12.5 110t-43.5 38zM253 -211q40 0 74.5 6t60.5 18t41 30t15 42q0 35 -23 50.5t-68 15.5h-166q-41 0 -65.5 -17t-24.5 -55q0 -23 12.5 -40t33.5 -28t49.5 -16.5t60.5 -5.5z" />
    <glyph glyph-name="Hcircumflex" unicode="&#x124;" horiz-adv-x="826" 
d="M586 728q-51 14 -95 36t-78 45q-34 -23 -78.5 -45t-95.5 -36h-11q26 25 53.5 55t52 61t45 61.5t32.5 55.5h4q12 -25 32 -55.5t45 -61.5t52 -61t53 -55h-11zM80 579q0 25 -2.5 42.5t-8.5 31t-16.5 24t-27.5 21.5v2h298v-2q-16 -11 -27 -21.5t-17 -24t-8.5 -31t-2.5 -42.5
v-202h289v202q0 25 -2.5 42.5t-8.5 31t-16.5 24t-27.5 21.5v2h299v-2q-17 -11 -27.5 -21.5t-16.5 -24t-8.5 -31t-2.5 -42.5v-457q0 -25 2.5 -42.5t8.5 -31t16.5 -24.5t27.5 -22v-2h-299v2q17 11 27.5 22t16.5 24.5t8.5 31t2.5 42.5v225h-289v-225q0 -25 2.5 -42.5t8.5 -31
t17 -24.5t27 -22v-2h-298v2q17 11 27.5 22t16.5 24.5t8.5 31t2.5 42.5v457z" />
    <glyph glyph-name="hcircumflex" unicode="&#x125;" horiz-adv-x="635" 
d="M493 775q-51 14 -95 36t-78 45q-34 -23 -78.5 -45t-95.5 -36h-11q26 25 53.5 55t52 61t45 61.5t32.5 55.5h4q12 -25 32 -55.5t45 -61.5t52 -61t53 -55h-11zM243 365q19 68 64.5 104t109.5 36q41 0 70.5 -13.5t49 -36.5t29 -55t9.5 -68v-223q0 -25 1 -40.5t6 -27t14.5 -20
t25.5 -19.5v-2h-272v2q16 11 25.5 19.5t14 20t5.5 27t1 40.5v228q0 35 -16 59t-51 24q-38 0 -62 -32t-24 -100v-179q0 -25 1 -40.5t6 -27t14.5 -20t25.5 -19.5v-2h-272v2q16 11 25.5 19.5t14 20t5.5 27t1 40.5v529q0 25 -2.5 42t-9.5 29t-18 20.5t-29 17.5v2h238v-384z" />
    <glyph glyph-name="Hbar" unicode="&#x126;" horiz-adv-x="826" 
d="M25 2q17 11 27.5 22t16.5 24.5t8.5 31t2.5 42.5v342h-55v30h55v85q0 25 -2.5 42.5t-8.5 31t-16.5 24t-27.5 21.5v2h298v-2q-16 -11 -27 -21.5t-17 -24t-8.5 -31t-2.5 -42.5v-85h289v85q0 25 -2.5 42.5t-8.5 31t-16.5 24t-27.5 21.5v2h299v-2q-17 -11 -27.5 -21.5
t-16.5 -24t-8.5 -31t-2.5 -42.5v-85h55v-30h-55v-342q0 -25 2.5 -42.5t8.5 -31t16.5 -24.5t27.5 -22v-2h-299v2q17 11 27.5 22t16.5 24.5t8.5 31t2.5 42.5v192h-289v-192q0 -25 2.5 -42.5t8.5 -31t17 -24.5t27 -22v-2h-298v2zM268 464v-120h289v120h-289z" />
    <glyph glyph-name="hbar" unicode="&#x127;" horiz-adv-x="638" 
d="M22 -1v2q16 11 25.5 19.5t14 20t5.5 27t1 40.5v474h-55v25h55v30q0 25 -2.5 42t-9.5 29t-18 20.5t-29 17.5v2h238v-141h109v-25h-109v-218q19 68 64.5 104t109.5 36q41 0 70.5 -13.5t49 -36.5t29 -55t9.5 -68v-223q0 -25 1 -40.5t6 -27t14.5 -20t25.5 -19.5v-2h-272v2
q16 11 25.5 19.5t14 20t5.5 27t1 40.5v228q0 35 -16 59t-51 24q-38 0 -62 -32t-24 -100v-179q0 -25 1 -40.5t6 -27t14.5 -20t25.5 -19.5v-2h-272z" />
    <glyph glyph-name="Itilde" unicode="&#x128;" horiz-adv-x="348" 
d="M315 893q-5 -60 -29 -94.5t-61 -34.5q-19 0 -34.5 6t-30 13t-28.5 13t-31 6q-45 0 -64 -44h-4q5 60 29 94t61 34q19 0 34.5 -6t30 -13t29 -13t30.5 -6q45 0 64 45h4zM268 122q0 -25 2.5 -42.5t8.5 -31t17 -24.5t27 -22v-2h-298v2q17 11 27.5 22t16.5 24.5t8.5 31
t2.5 42.5v457q0 25 -2.5 42.5t-8.5 31t-16.5 24t-27.5 21.5v2h298v-2q-16 -11 -27 -21.5t-17 -24t-8.5 -31t-2.5 -42.5v-457z" />
    <glyph glyph-name="itilde" unicode="&#x129;" horiz-adv-x="309" 
d="M296 688q-5 -60 -29 -94.5t-61 -34.5q-19 0 -34.5 6t-30 13t-28.5 13t-31 6q-45 0 -64 -44h-4q5 60 29 94t61 34q19 0 34.5 -6t30 -13t29 -13t30.5 -6q45 0 64 45h4zM247 109q0 -25 1 -40.5t6 -27t14.5 -20t25.5 -19.5v-2h-273v2q17 11 26 19.5t14 20t6 27t1 40.5v275
q0 26 -1.5 42t-7 27.5t-16 20.5t-28.5 19v2h232v-386z" />
    <glyph glyph-name="Imacron" unicode="&#x12a;" horiz-adv-x="348" 
d="M19 821h309v-38h-309v38zM268 122q0 -25 2.5 -42.5t8.5 -31t17 -24.5t27 -22v-2h-298v2q17 11 27.5 22t16.5 24.5t8.5 31t2.5 42.5v457q0 25 -2.5 42.5t-8.5 31t-16.5 24t-27.5 21.5v2h298v-2q-16 -11 -27 -21.5t-17 -24t-8.5 -31t-2.5 -42.5v-457z" />
    <glyph glyph-name="imacron" unicode="&#x12b;" horiz-adv-x="309" 
d="M12 634h276v-37h-276v37zM247 109q0 -25 1 -40.5t6 -27t14.5 -20t25.5 -19.5v-2h-273v2q17 11 26 19.5t14 20t6 27t1 40.5v275q0 26 -1.5 42t-7 27.5t-16 20.5t-28.5 19v2h232v-386z" />
    <glyph glyph-name="Ibreve" unicode="&#x12c;" horiz-adv-x="348" 
d="M335 935q0 -45 -12 -81.5t-33 -62.5t-50.5 -40t-65.5 -14t-65.5 14t-50.5 40t-32.5 62.5t-11.5 81.5h5q4 -22 20 -38.5t38 -26.5t47.5 -15t49.5 -5t49.5 5t47.5 15t38 26.5t20 38.5h6zM268 122q0 -25 2.5 -42.5t8.5 -31t17 -24.5t27 -22v-2h-298v2q17 11 27.5 22
t16.5 24.5t8.5 31t2.5 42.5v457q0 25 -2.5 42.5t-8.5 31t-16.5 24t-27.5 21.5v2h298v-2q-16 -11 -27 -21.5t-17 -24t-8.5 -31t-2.5 -42.5v-457z" />
    <glyph glyph-name="ibreve" unicode="&#x12d;" horiz-adv-x="309" 
d="M296 759q0 -100 -39 -152t-105 -52q-65 0 -104 52t-39 152h4q4 -24 18.5 -41.5t34 -28t42.5 -15.5t44 -5t44.5 5t43 15.5t34 28t17.5 41.5h5zM247 109q0 -25 1 -40.5t6 -27t14.5 -20t25.5 -19.5v-2h-273v2q17 11 26 19.5t14 20t6 27t1 40.5v275q0 26 -1.5 42t-7 27.5
t-16 20.5t-28.5 19v2h232v-386z" />
    <glyph glyph-name="Iogonek" unicode="&#x12e;" horiz-adv-x="348" 
d="M301 -129q-19 -50 -53.5 -81t-95.5 -31q-45 0 -76.5 25t-31.5 67q0 26 12.5 47t32.5 38.5t46.5 33t54.5 30.5h-165v2q17 11 27.5 22t16.5 24.5t8.5 31t2.5 42.5v457q0 25 -2.5 42.5t-8.5 31t-16.5 24t-27.5 21.5v2h298v-2q-16 -11 -27 -21.5t-17 -24t-8.5 -31t-2.5 -42.5
v-457q0 -25 2.5 -42.5t8.5 -31t17 -24.5t27 -22v-2h-109q-38 -30 -52.5 -58t-14.5 -53q0 -32 17.5 -48.5t43.5 -16.5q27 0 48 10.5t42 38.5z" />
    <glyph glyph-name="iogonek" unicode="&#x12f;" horiz-adv-x="309" 
d="M55 651q0 41 28.5 68t71.5 27q44 0 73 -27t29 -68t-29 -68.5t-73 -27.5q-43 0 -71.5 27.5t-28.5 68.5zM281 -129q-19 -50 -53.5 -81t-95.5 -31q-45 0 -76.5 25t-31.5 67q0 26 12.5 47t32.5 38.5t46.5 33t54.5 30.5h-149v2q17 11 26 19.5t14 20t6 27t1 40.5v275
q0 26 -1.5 42t-7 27.5t-16 20.5t-28.5 19v2h232v-386q0 -25 1 -40.5t6 -27t14.5 -20t25.5 -19.5v-2h-100q-38 -30 -52.5 -58t-14.5 -53q0 -32 17.5 -48.5t43.5 -16.5q27 0 48 10.5t42 38.5z" />
    <glyph glyph-name="Idotaccent" unicode="&#x130;" horiz-adv-x="348" 
d="M73 837q0 42 28.5 69t71.5 27t72.5 -27t29.5 -69q0 -40 -29.5 -68t-72.5 -28t-71.5 28t-28.5 68zM268 122q0 -25 2.5 -42.5t8.5 -31t17 -24.5t27 -22v-2h-298v2q17 11 27.5 22t16.5 24.5t8.5 31t2.5 42.5v457q0 25 -2.5 42.5t-8.5 31t-16.5 24t-27.5 21.5v2h298v-2
q-16 -11 -27 -21.5t-17 -24t-8.5 -31t-2.5 -42.5v-457z" />
    <glyph glyph-name="dotlessi" unicode="&#x131;" horiz-adv-x="309" 
d="M247 109q0 -25 1 -40.5t6 -27t14.5 -20t25.5 -19.5v-2h-273v2q17 11 26 19.5t14 20t6 27t1 40.5v275q0 26 -1.5 42t-7 27.5t-16 20.5t-28.5 19v2h232v-386z" />
    <glyph glyph-name="Jcircumflex" unicode="&#x134;" horiz-adv-x="607" 
d="M613 728q-51 14 -95 36t-78 45q-34 -23 -78.5 -45t-95.5 -36h-11q26 25 53.5 55t52 61t45 61.5t32.5 55.5h4q12 -25 32 -55.5t45 -61.5t52 -61t53 -55h-11zM350 579q0 25 -2.5 42.5t-8.5 31t-16.5 24t-27.5 21.5v2h299v-2q-17 -11 -27.5 -21.5t-16.5 -24t-8.5 -31
t-2.5 -42.5v-359q0 -63 -23.5 -107t-62.5 -71t-90.5 -39.5t-108.5 -12.5q-47 0 -92 10.5t-80.5 31.5t-57 53t-21.5 74q0 56 37.5 86t91.5 30q31 0 57 -10.5t41 -30.5q-38 1 -56 -28.5t-18 -71.5q0 -52 24.5 -88.5t73.5 -36.5q51 0 73.5 38.5t22.5 107.5v424z" />
    <glyph glyph-name="jcircumflex" unicode="&#x135;" horiz-adv-x="293" 
d="M317 534q-51 15 -95.5 38t-78.5 48q-34 -25 -78.5 -48t-95.5 -38h-10q25 26 52.5 56.5t52 62.5t45 63t32.5 57h4q12 -26 32.5 -57t45 -63t52 -62.5t52.5 -56.5h-10zM240 -24q0 -54 -19 -92.5t-51 -63.5t-75.5 -37t-92.5 -12q-34 0 -64.5 6t-53 19t-36 32.5t-13.5 45.5
q0 36 28 57t66 21q23 0 41.5 -5.5t29.5 -15.5q-23 -5 -37 -24t-14 -51q0 -31 13 -50t42 -19q32 0 44.5 26t12.5 71v500q0 26 -2 42t-7.5 27.5t-15.5 20.5t-28 19v2h232v-519z" />
    <glyph glyph-name="uni0136" unicode="&#x136;" horiz-adv-x="769" 
d="M25 2q17 11 27.5 22t16.5 24.5t8.5 31t2.5 42.5v457q0 25 -2.5 42.5t-8.5 31t-16.5 24t-27.5 21.5v2h298v-2q-16 -11 -27 -21.5t-17 -24t-8.5 -31t-2.5 -42.5v-250l285 268q26 24 26 49q0 34 -40 52v2h206v-2q-51 -20 -88 -47.5t-73 -60.5l-127 -120l216 -359
q47 -74 106 -109v-2h-318v2q14 8 20 16t6 22t-7 30.5t-21 42.5l-143 228l-48 -45v-174q0 -25 2.5 -42.5t8.5 -31t17 -24.5t27 -22v-2h-298v2zM464 -136q0 -68 -50.5 -103t-129.5 -36v16q57 5 88.5 23.5t35.5 53.5q-8 -7 -23 -12t-32 -5q-33 0 -54.5 24t-21.5 56
q0 35 25.5 59t62.5 24q45 0 72 -27.5t27 -72.5z" />
    <glyph glyph-name="uni0137" unicode="&#x137;" horiz-adv-x="624" 
d="M262 279q21 0 36 5t35 24l89 85q34 32 32 59q0 14 -9 25t-24 16v2h196v-2q-50 -15 -81 -34t-63 -48l-57 -55l121 -232q20 -37 45.5 -70t59.5 -52v-2h-252q2 13 -2 31.5t-15 39.5l-82 163q-8 14 -15 20t-20 6h-13v-151q0 -25 1 -40.5t6 -27t14.5 -20t25.5 -19.5v-2h-272v2
q16 11 25.5 19.5t14 20t5.5 27t1 40.5v529q0 25 -2.5 42t-9.5 29t-18 20.5t-29 17.5v2h238v-470h19zM413 -136q0 -68 -50.5 -103t-129.5 -36v16q57 5 88.5 23.5t35.5 53.5q-8 -7 -23 -12t-32 -5q-33 0 -54.5 24t-21.5 56q0 35 25.5 59t62.5 24q45 0 72 -27.5t27 -72.5z" />
    <glyph glyph-name="kgreenlandic" unicode="&#x138;" horiz-adv-x="634" 
d="M272 279q21 0 36 5t35 24l89 85q34 32 32 59q0 14 -9 25t-24 16v2h196v-2q-50 -15 -81 -34t-63 -48l-57 -55l121 -232q20 -37 45.5 -70t59.5 -52v-2h-252q2 13 -2 31.5t-15 39.5l-82 163q-8 14 -14.5 20t-20.5 6h-13v-151q0 -25 1.5 -40.5t6 -27t14 -20t25.5 -19.5v-2
h-272v2q16 11 25.5 19.5t14 20t5.5 27t1 40.5v275q0 26 -2.5 42.5t-9.5 28.5t-18 20.5t-29 17.5v2h238v-216h19z" />
    <glyph glyph-name="Lacute" unicode="&#x139;" horiz-adv-x="643" 
d="M365 931q-31 -60 -84 -109t-132 -87h-5q24 42 33 93.5t11 102.5h177zM323 698q-16 -11 -27 -21.5t-17 -24t-8.5 -31t-2.5 -42.5v-552h114q50 0 85 13t62.5 38t51 62.5t50.5 86.5h2l-37 -227h-571v2q17 11 27.5 22t16.5 24.5t8.5 31t2.5 42.5v457q0 25 -2.5 42.5t-8.5 31
t-16.5 24t-27.5 21.5v2h298v-2z" />
    <glyph glyph-name="lacute" unicode="&#x13a;" horiz-adv-x="305" 
d="M288 972q-31 -60 -84 -109t-132 -87h-5q24 42 33 93.5t11 102.5h177zM243 109q0 -25 1 -40.5t6 -27t14.5 -20t25.5 -19.5v-2h-272v2q16 11 25.5 19.5t14 20t5.5 27t1 40.5v529q0 25 -2.5 42t-9.5 29t-18 20.5t-29 17.5v2h238v-640z" />
    <glyph glyph-name="uni013B" unicode="&#x13b;" horiz-adv-x="643" 
d="M323 698q-16 -11 -27 -21.5t-17 -24t-8.5 -31t-2.5 -42.5v-552h114q50 0 85 13t62.5 38t51 62.5t50.5 86.5h2l-37 -227h-571v2q17 11 27.5 22t16.5 24.5t8.5 31t2.5 42.5v457q0 25 -2.5 42.5t-8.5 31t-16.5 24t-27.5 21.5v2h298v-2zM422 -136q0 -68 -50.5 -103
t-129.5 -36v16q57 5 88.5 23.5t35.5 53.5q-8 -7 -23 -12t-32 -5q-33 0 -54.5 24t-21.5 56q0 35 25.5 59t62.5 24q45 0 72 -27.5t27 -72.5z" />
    <glyph glyph-name="uni013C" unicode="&#x13c;" horiz-adv-x="305" 
d="M243 109q0 -25 1 -40.5t6 -27t14.5 -20t25.5 -19.5v-2h-272v2q16 11 25.5 19.5t14 20t5.5 27t1 40.5v529q0 25 -2.5 42t-9.5 29t-18 20.5t-29 17.5v2h238v-640zM242 -136q0 -68 -50.5 -103t-129.5 -36v16q57 5 88.5 23.5t35.5 53.5q-8 -7 -23 -12t-32 -5q-33 0 -54.5 24
t-21.5 56q0 35 25.5 59t62.5 24q45 0 72 -27.5t27 -72.5z" />
    <glyph glyph-name="Lcaron" unicode="&#x13d;" horiz-adv-x="643" 
d="M323 698q-16 -11 -27 -21.5t-17 -24t-8.5 -31t-2.5 -42.5v-552h114q50 0 85 13t62.5 38t51 62.5t50.5 86.5h2l-37 -227h-571v2q17 11 27.5 22t16.5 24.5t8.5 31t2.5 42.5v457q0 25 -2.5 42.5t-8.5 31t-16.5 24t-27.5 21.5v2h298v-2zM585 700q-15 -62 -54 -122t-101 -102
h-3q10 49 14 107.5t0 116.5h144z" />
    <glyph glyph-name="lcaron" unicode="&#x13e;" horiz-adv-x="305" 
d="M243 109q0 -25 1 -40.5t6 -27t14.5 -20t25.5 -19.5v-2h-272v2q16 11 25.5 19.5t14 20t5.5 27t1 40.5v529q0 25 -2.5 42t-9.5 29t-18 20.5t-29 17.5v2h238v-640zM456 749q-15 -62 -54 -122t-101 -102h-3q10 49 14 107.5t0 116.5h144z" />
    <glyph glyph-name="Ldot" unicode="&#x13f;" horiz-adv-x="643" 
d="M323 698q-16 -11 -27 -21.5t-17 -24t-8.5 -31t-2.5 -42.5v-552h114q50 0 85 13t62.5 38t51 62.5t50.5 86.5h2l-37 -227h-571v2q17 11 27.5 22t16.5 24.5t8.5 31t2.5 42.5v457q0 25 -2.5 42.5t-8.5 31t-16.5 24t-27.5 21.5v2h298v-2zM434 393q0 42 28.5 69t71.5 27
t72.5 -27t29.5 -69q0 -40 -29.5 -68t-72.5 -28t-71.5 28t-28.5 68z" />
    <glyph glyph-name="ldot" unicode="&#x140;" horiz-adv-x="485" 
d="M243 109q0 -25 1 -40.5t6 -27t14.5 -20t25.5 -19.5v-2h-272v2q16 11 25.5 19.5t14 20t5.5 27t1 40.5v529q0 25 -2.5 42t-9.5 29t-18 20.5t-29 17.5v2h238v-640zM293 373q0 42 28.5 69t71.5 27t72.5 -27t29.5 -69q0 -40 -29.5 -68t-72.5 -28t-71.5 28t-28.5 68z" />
    <glyph glyph-name="Lslash" unicode="&#x141;" horiz-adv-x="643" 
d="M25 2q17 11 27.5 22t16.5 24.5t8.5 31t2.5 42.5v175l-55 -22v32l55 22v250q0 25 -2.5 42.5t-8.5 31t-16.5 24t-27.5 21.5v2h298v-2q-16 -11 -27 -21.5t-17 -24t-8.5 -31t-2.5 -42.5v-188l145 58v-32l-145 -56v-334h114q50 0 85 13t62.5 38t51 62.5t50.5 86.5h2l-37 -227
h-571v2z" />
    <glyph glyph-name="lslash" unicode="&#x142;" horiz-adv-x="318" 
d="M24 2q16 11 25.5 19.5t14 20t5.5 27t1 40.5v269l-64 -31v32l64 31v228q0 25 -2.5 42t-9.5 29t-18 20.5t-29 17.5v2h238v-273l64 30v-31l-64 -31v-335q0 -25 1 -40.5t6 -27t14.5 -20t25.5 -19.5v-2h-272v2z" />
    <glyph glyph-name="Nacute" unicode="&#x143;" horiz-adv-x="724" 
d="M516 931q-31 -60 -84 -109t-132 -87h-5q24 42 33 93.5t11 102.5h177zM722 698q-39 -22 -56.5 -57t-17.5 -92v-552h-45l-491 609v-448q0 -62 18.5 -99t63.5 -57v-2h-189v2q39 22 57 57t18 92v428q0 25 -2.5 42.5t-8.5 31t-16.5 24t-27.5 21.5v2h257l334 -414v256
q0 62 -19 99t-64 57v2h189v-2z" />
    <glyph glyph-name="nacute" unicode="&#x144;" horiz-adv-x="639" 
d="M472 749q-60 -124 -215 -204h-6q25 45 35 98t12 106h174zM247 365q18 68 64 104t109 36q41 0 71 -13.5t49.5 -36.5t29 -55t9.5 -68v-223q0 -25 1 -40.5t6 -27t14.5 -20t25.5 -19.5v-2h-273v2q17 11 26 19.5t14 20t6 27t1 40.5v228q0 35 -16.5 59t-51.5 24
q-38 0 -61.5 -32t-23.5 -100v-179q0 -25 1 -40.5t6 -27t14.5 -20t25.5 -19.5v-2h-273v2q17 11 26 19.5t14 20t6 27t1 40.5v275q0 26 -1.5 42t-7 27.5t-16 20.5t-28.5 19v2h232v-130z" />
    <glyph glyph-name="uni0145" unicode="&#x145;" horiz-adv-x="724" 
d="M722 698q-39 -22 -56.5 -57t-17.5 -92v-552h-45l-491 609v-448q0 -62 18.5 -99t63.5 -57v-2h-189v2q39 22 57 57t18 92v428q0 25 -2.5 42.5t-8.5 31t-16.5 24t-27.5 21.5v2h257l334 -414v256q0 62 -19 99t-64 57v2h189v-2zM457 -136q0 -68 -50.5 -103t-129.5 -36v16
q57 5 88.5 23.5t35.5 53.5q-8 -7 -23 -12t-32 -5q-33 0 -54.5 24t-21.5 56q0 35 25.5 59t62.5 24q45 0 72 -27.5t27 -72.5z" />
    <glyph glyph-name="uni0146" unicode="&#x146;" horiz-adv-x="639" 
d="M247 365q18 68 64 104t109 36q41 0 71 -13.5t49.5 -36.5t29 -55t9.5 -68v-223q0 -25 1 -40.5t6 -27t14.5 -20t25.5 -19.5v-2h-273v2q17 11 26 19.5t14 20t6 27t1 40.5v228q0 35 -16.5 59t-51.5 24q-38 0 -61.5 -32t-23.5 -100v-179q0 -25 1 -40.5t6 -27t14.5 -20
t25.5 -19.5v-2h-273v2q17 11 26 19.5t14 20t6 27t1 40.5v275q0 26 -1.5 42t-7 27.5t-16 20.5t-28.5 19v2h232v-130zM421 -136q0 -68 -50.5 -103t-129.5 -36v16q57 5 88.5 23.5t35.5 53.5q-8 -7 -23 -12t-32 -5q-33 0 -54.5 24t-21.5 56q0 35 25.5 59t62.5 24q45 0 72 -27.5
t27 -72.5z" />
    <glyph glyph-name="Ncaron" unicode="&#x147;" horiz-adv-x="724" 
d="M201 964q51 -14 95.5 -36t78.5 -46q34 24 78.5 46t95.5 36h10q-25 -25 -52.5 -55t-52 -61.5t-45 -61.5t-32.5 -55h-4q-12 25 -32.5 55t-45 61.5t-51.5 61.5t-53 55h10zM722 698q-39 -22 -56.5 -57t-17.5 -92v-552h-45l-491 609v-448q0 -62 18.5 -99t63.5 -57v-2h-189v2
q39 22 57 57t18 92v428q0 25 -2.5 42.5t-8.5 31t-16.5 24t-27.5 21.5v2h257l334 -414v256q0 62 -19 99t-64 57v2h189v-2z" />
    <glyph glyph-name="ncaron" unicode="&#x148;" horiz-adv-x="639" 
d="M158 773q51 -15 95.5 -38t78.5 -47q34 24 78.5 47t95.5 38h10q-25 -25 -52.5 -56t-52 -63t-45 -63t-32.5 -57h-4q-12 26 -32.5 57t-45 63t-51.5 63t-53 56h10zM247 365q18 68 64 104t109 36q41 0 71 -13.5t49.5 -36.5t29 -55t9.5 -68v-223q0 -25 1 -40.5t6 -27t14.5 -20
t25.5 -19.5v-2h-273v2q17 11 26 19.5t14 20t6 27t1 40.5v228q0 35 -16.5 59t-51.5 24q-38 0 -61.5 -32t-23.5 -100v-179q0 -25 1 -40.5t6 -27t14.5 -20t25.5 -19.5v-2h-273v2q17 11 26 19.5t14 20t6 27t1 40.5v275q0 26 -1.5 42t-7 27.5t-16 20.5t-28.5 19v2h232v-130z" />
    <glyph glyph-name="Eng" unicode="&#x14a;" horiz-adv-x="724" 
d="M112 606v-448q0 -62 18.5 -99t63.5 -57v-2h-189v2q39 22 57 57t18 92v428q0 25 -2.5 42.5t-8.5 31t-16.5 24t-27.5 21.5v2h257l334 -414v256q0 62 -19 99t-64 57v2h189v-2q-39 -22 -56.5 -57t-17.5 -92v-600q0 -88 -35.5 -133t-103.5 -45q-67 0 -110 29t-43 82
q0 36 28 58t66 22q23 0 41.5 -6t29.5 -16q-23 -5 -36.5 -23t-13.5 -50q0 -29 15 -47.5t42 -18.5q41 0 64.5 35t23.5 108v38z" />
    <glyph glyph-name="eng" unicode="&#x14b;" horiz-adv-x="636" 
d="M341 -229q-34 0 -64.5 6t-53 19t-35.5 32.5t-13 45.5q0 36 27.5 57t65.5 21q48 0 72 -21q-23 -5 -37 -24t-14 -51q0 -31 12.5 -50t41.5 -19q32 0 44.5 26t12.5 71v453q0 35 -16.5 59t-51.5 24q-38 0 -61.5 -32t-23.5 -100v-179q0 -25 1 -40.5t6 -27t14.5 -20t25.5 -19.5
v-2h-273v2q17 11 26 19.5t14 20t6 27t1 40.5v275q0 26 -1.5 42t-7 27.5t-16 20.5t-28.5 19v2h232v-130q18 68 64 104t109 36q41 0 71 -13.5t49.5 -36.5t29 -55t9.5 -68v-356q0 -54 -18.5 -92.5t-51 -63.5t-75.5 -37t-93 -12z" />
    <glyph glyph-name="Omacron" unicode="&#x14c;" 
d="M231 821h309v-38h-309v38zM745 350q0 -79 -27 -145t-75 -114t-114 -74.5t-143 -26.5q-78 0 -144 26.5t-114 74.5t-75 114t-27 145t27 145t75 114t114 74.5t144 26.5q77 0 143 -26.5t114 -74.5t75 -114t27 -145zM539 350q0 165 -33.5 252.5t-119.5 87.5t-120 -87.5
t-34 -252.5t34 -252.5t120 -87.5t119.5 87.5t33.5 252.5z" />
    <glyph glyph-name="omacron" unicode="&#x14d;" horiz-adv-x="588" 
d="M139 634h309v-37h-309v37zM294 -10q-57 0 -107 18.5t-87.5 52t-59 81.5t-21.5 106t21.5 105.5t59 81t87.5 52t107 18.5t107 -18.5t87.5 -52t59 -81t21.5 -105.5t-21.5 -106t-59 -81.5t-87.5 -52t-107 -18.5zM294 7q47 0 66 61t19 180q0 118 -19 179t-66 61t-66 -61
t-19 -179q0 -119 19 -180t66 -61z" />
    <glyph glyph-name="Obreve" unicode="&#x14e;" 
d="M547 935q0 -45 -12 -81.5t-33 -62.5t-50.5 -40t-65.5 -14t-65.5 14t-50.5 40t-32.5 62.5t-11.5 81.5h5q4 -22 20 -38.5t38 -26.5t47.5 -15t49.5 -5t49.5 5t47.5 15t38 26.5t20 38.5h6zM745 350q0 -79 -27 -145t-75 -114t-114 -74.5t-143 -26.5q-78 0 -144 26.5t-114 74.5
t-75 114t-27 145t27 145t75 114t114 74.5t144 26.5q77 0 143 -26.5t114 -74.5t75 -114t27 -145zM539 350q0 165 -33.5 252.5t-119.5 87.5t-120 -87.5t-34 -252.5t34 -252.5t120 -87.5t119.5 87.5t33.5 252.5z" />
    <glyph glyph-name="obreve" unicode="&#x14f;" horiz-adv-x="588" 
d="M454 759q0 -46 -11.5 -83.5t-32.5 -64t-50.5 -41t-65.5 -14.5t-65.5 14.5t-50.5 41t-32.5 64t-11.5 83.5h5q4 -24 20 -41.5t38 -28t47.5 -15.5t49.5 -5t49.5 5t47.5 15.5t38 28t20 41.5h5zM294 -10q-57 0 -107 18.5t-87.5 52t-59 81.5t-21.5 106t21.5 105.5t59 81
t87.5 52t107 18.5t107 -18.5t87.5 -52t59 -81t21.5 -105.5t-21.5 -106t-59 -81.5t-87.5 -52t-107 -18.5zM294 7q47 0 66 61t19 180q0 118 -19 179t-66 61t-66 -61t-19 -179q0 -119 19 -180t66 -61z" />
    <glyph glyph-name="Ohungarumlaut" unicode="&#x150;" 
d="M473 931q-31 -60 -77.5 -109t-125.5 -87h-5q24 42 33 93.5t11 102.5h164zM667 931q-30 -60 -77 -109t-126 -87h-5q24 42 33 93.5t11 102.5h164zM745 350q0 -79 -27 -145t-75 -114t-114 -74.5t-143 -26.5q-78 0 -144 26.5t-114 74.5t-75 114t-27 145t27 145t75 114
t114 74.5t144 26.5q77 0 143 -26.5t114 -74.5t75 -114t27 -145zM539 350q0 165 -33.5 252.5t-119.5 87.5t-120 -87.5t-34 -252.5t34 -252.5t120 -87.5t119.5 87.5t33.5 252.5z" />
    <glyph glyph-name="ohungarumlaut" unicode="&#x151;" horiz-adv-x="588" 
d="M370 749q-30 -62 -77 -112.5t-126 -91.5h-5q25 45 35.5 98t12.5 106h160zM558 749q-30 -62 -77 -112.5t-125 -91.5h-6q25 45 35.5 98t12.5 106h160zM294 -10q-57 0 -107 18.5t-87.5 52t-59 81.5t-21.5 106t21.5 105.5t59 81t87.5 52t107 18.5t107 -18.5t87.5 -52t59 -81
t21.5 -105.5t-21.5 -106t-59 -81.5t-87.5 -52t-107 -18.5zM294 7q47 0 66 61t19 180q0 118 -19 179t-66 61t-66 -61t-19 -179q0 -119 19 -180t66 -61z" />
    <glyph glyph-name="OE" unicode="&#x152;" horiz-adv-x="1084" 
d="M446 0q-93 0 -171 21t-134.5 64t-88 108.5t-31.5 153.5q0 90 32 156.5t88 110t132 65t165 21.5h499q25 0 42 2t28 7l34 -194h-2q-22 38 -43.5 67t-48.5 49.5t-61.5 31t-81.5 10.5h-113v-297h90q30 0 52.5 4.5t39 17.5t29.5 35t25 57h2v-252h-2q-12 35 -25 56t-29.5 33
t-39 16t-52.5 4h-90v-320h129q50 0 86 13.5t64 37.5t50 56.5t44 69.5h2l-32 -204h-588zM450 675q-110 0 -168.5 -84t-58.5 -244q0 -75 15 -134.5t44.5 -101.5t72.5 -64t100 -22h47v650h-52z" />
    <glyph glyph-name="oe" unicode="&#x153;" horiz-adv-x="890" 
d="M867 158q-22 -81 -84.5 -124.5t-148.5 -43.5q-49 0 -92.5 18t-75.5 50q-33 -31 -77 -49.5t-95 -18.5q-57 0 -107 18.5t-87.5 52t-59 81.5t-21.5 106t21.5 105.5t59 81t87.5 52t107 18.5q51 0 96 -19t78 -51q33 32 76 51t91 19q60 0 104.5 -18t74 -50t43.5 -74.5t14 -92.5
h-317q0 -94 44.5 -146t116.5 -52q46 0 84 21t61 68zM379 248q0 118 -19 179t-66 61t-66 -61t-19 -179q0 -119 19 -180t66 -61t66 61t19 180zM700 291q0 42 -2 78t-9 62.5t-20 41.5t-34 15q-39 0 -58.5 -54t-21.5 -143h145z" />
    <glyph glyph-name="Racute" unicode="&#x154;" horiz-adv-x="759" 
d="M513 931q-31 -60 -84 -109t-132 -87h-5q24 42 33 93.5t11 102.5h177zM424 700q56 0 104 -10.5t83 -33t54.5 -58t19.5 -86.5q0 -44 -19 -77.5t-51 -56t-73.5 -34t-86.5 -11.5q81 -5 125.5 -36t65.5 -94l26 -78q8 -25 17 -43.5t20.5 -32.5t27 -25t36.5 -22v-2h-247
q-17 20 -29 47t-22 61l-34 122q-6 21 -14.5 38t-22 29.5t-32.5 19.5t-46 7h-58v-202q0 -25 2.5 -42.5t8.5 -31t17 -24.5t27 -22v-2h-298v2q17 11 27.5 22t16.5 24.5t8.5 31t2.5 42.5v457q0 25 -2.5 42.5t-8.5 31t-16.5 24t-27.5 21.5v2h399zM342 351q69 0 107 42t38 118
q0 75 -36.5 118.5t-108.5 43.5h-74v-322h74z" />
    <glyph glyph-name="racute" unicode="&#x155;" horiz-adv-x="516" 
d="M419 749q-60 -124 -215 -204h-6q25 45 35 98t12 106h174zM373 298q15 6 23.5 19t8.5 30q0 26 -16 41t-46 15q-38 0 -67 -37t-29 -103v-154q0 -25 4.5 -41.5t14 -28t24 -20t34.5 -17.5v-2h-303v2q17 11 26 19.5t14 20t6 27t1 40.5v275q0 26 -1.5 42t-7 27.5t-16 20.5
t-28.5 19v2h232v-161q9 34 22.5 65t32.5 54.5t44.5 37.5t58.5 14q49 0 78 -29.5t29 -74.5q0 -55 -31 -84t-72 -29q-12 0 -21.5 3t-14.5 7z" />
    <glyph glyph-name="uni0156" unicode="&#x156;" horiz-adv-x="759" 
d="M424 700q56 0 104 -10.5t83 -33t54.5 -58t19.5 -86.5q0 -44 -19 -77.5t-51 -56t-73.5 -34t-86.5 -11.5q81 -5 125.5 -36t65.5 -94l26 -78q8 -25 17 -43.5t20.5 -32.5t27 -25t36.5 -22v-2h-247q-17 20 -29 47t-22 61l-34 122q-6 21 -14.5 38t-22 29.5t-32.5 19.5t-46 7
h-58v-202q0 -25 2.5 -42.5t8.5 -31t17 -24.5t27 -22v-2h-298v2q17 11 27.5 22t16.5 24.5t8.5 31t2.5 42.5v457q0 25 -2.5 42.5t-8.5 31t-16.5 24t-27.5 21.5v2h399zM342 351q69 0 107 42t38 118q0 75 -36.5 118.5t-108.5 43.5h-74v-322h74zM467 -136q0 -68 -50.5 -103
t-129.5 -36v16q57 5 88.5 23.5t35.5 53.5q-8 -7 -23 -12t-32 -5q-33 0 -54.5 24t-21.5 56q0 35 25.5 59t62.5 24q45 0 72 -27.5t27 -72.5z" />
    <glyph glyph-name="uni0157" unicode="&#x157;" horiz-adv-x="516" 
d="M373 298q15 6 23.5 19t8.5 30q0 26 -16 41t-46 15q-38 0 -67 -37t-29 -103v-154q0 -25 4.5 -41.5t14 -28t24 -20t34.5 -17.5v-2h-303v2q17 11 26 19.5t14 20t6 27t1 40.5v275q0 26 -1.5 42t-7 27.5t-16 20.5t-28.5 19v2h232v-161q9 34 22.5 65t32.5 54.5t44.5 37.5
t58.5 14q49 0 78 -29.5t29 -74.5q0 -55 -31 -84t-72 -29q-12 0 -21.5 3t-14.5 7zM251 -136q0 -68 -50.5 -103t-129.5 -36v16q57 5 88.5 23.5t35.5 53.5q-8 -7 -23 -12t-32 -5q-33 0 -54.5 24t-21.5 56q0 35 25.5 59t62.5 24q45 0 72 -27.5t27 -72.5z" />
    <glyph glyph-name="Rcaron" unicode="&#x158;" horiz-adv-x="759" 
d="M198 964q51 -14 95.5 -36t78.5 -46q34 24 78.5 46t95.5 36h10q-25 -25 -52.5 -55t-52 -61.5t-45 -61.5t-32.5 -55h-4q-12 25 -32.5 55t-45 61.5t-51.5 61.5t-53 55h10zM424 700q56 0 104 -10.5t83 -33t54.5 -58t19.5 -86.5q0 -44 -19 -77.5t-51 -56t-73.5 -34
t-86.5 -11.5q81 -5 125.5 -36t65.5 -94l26 -78q8 -25 17 -43.5t20.5 -32.5t27 -25t36.5 -22v-2h-247q-17 20 -29 47t-22 61l-34 122q-6 21 -14.5 38t-22 29.5t-32.5 19.5t-46 7h-58v-202q0 -25 2.5 -42.5t8.5 -31t17 -24.5t27 -22v-2h-298v2q17 11 27.5 22t16.5 24.5t8.5 31
t2.5 42.5v457q0 25 -2.5 42.5t-8.5 31t-16.5 24t-27.5 21.5v2h399zM342 351q69 0 107 42t38 118q0 75 -36.5 118.5t-108.5 43.5h-74v-322h74z" />
    <glyph glyph-name="rcaron" unicode="&#x159;" horiz-adv-x="516" 
d="M105 773q51 -15 95.5 -38t78.5 -47q34 24 78.5 47t95.5 38h10q-25 -25 -52.5 -56t-52 -63t-45 -63t-32.5 -57h-4q-12 26 -32.5 57t-45 63t-51.5 63t-53 56h10zM373 298q15 6 23.5 19t8.5 30q0 26 -16 41t-46 15q-38 0 -67 -37t-29 -103v-154q0 -25 4.5 -41.5t14 -28
t24 -20t34.5 -17.5v-2h-303v2q17 11 26 19.5t14 20t6 27t1 40.5v275q0 26 -1.5 42t-7 27.5t-16 20.5t-28.5 19v2h232v-161q9 34 22.5 65t32.5 54.5t44.5 37.5t58.5 14q49 0 78 -29.5t29 -74.5q0 -55 -31 -84t-72 -29q-12 0 -21.5 3t-14.5 7z" />
    <glyph glyph-name="Sacute" unicode="&#x15a;" horiz-adv-x="589" 
d="M435 931q-31 -60 -84 -109t-132 -87h-5q24 42 33 93.5t11 102.5h177zM289 690q-51 0 -85.5 -28.5t-34.5 -80.5q0 -30 12.5 -51.5t34 -36.5t49.5 -26t59 -21q41 -13 83.5 -28.5t77 -41t56.5 -65.5t22 -102q0 -53 -21.5 -94t-58.5 -68.5t-85.5 -42t-102.5 -14.5
q-31 0 -57 4.5t-48.5 10t-41 10t-34.5 4.5q-20 0 -36.5 -8t-33.5 -21l-18 232h2q25 -48 55.5 -87t65 -67t71.5 -43t74 -15q62 0 99 30.5t37 88.5q0 36 -17 59.5t-45 40t-63.5 28.5t-72.5 25q-37 12 -73 27.5t-64 39.5t-45.5 60t-17.5 88q0 49 18.5 88.5t52.5 67t81.5 42.5
t104.5 15q28 0 52 -4.5t44.5 -9.5t38 -9.5t32.5 -4.5q20 0 34 9t26 19l4 -202h-2q-23 40 -47 73.5t-51.5 57.5t-59.5 37.5t-71 13.5z" />
    <glyph glyph-name="sacute" unicode="&#x15b;" horiz-adv-x="473" 
d="M378 749q-60 -124 -215 -204h-6q25 45 35 98t12 106h174zM213 488q-34 0 -54 -17t-20 -45q0 -17 6.5 -28.5t20.5 -21t38 -18t58 -19.5q49 -15 83.5 -32t57 -38.5t33 -49t10.5 -63.5q0 -38 -15 -69t-41.5 -52.5t-64 -33t-82.5 -11.5q-52 0 -88.5 10.5t-63.5 10.5
q-19 0 -29.5 -7t-21.5 -15l-11 183h2q43 -81 94.5 -123t117.5 -42q37 0 61 18t24 54q0 19 -8 32t-23.5 22t-37.5 16.5t-50 16.5q-93 29 -135 70.5t-42 113.5q0 35 14 63.5t38.5 49t57.5 31.5t71 11q24 0 43 -3.5t35.5 -8t31 -8.5t27.5 -4q17 0 29.5 7t26.5 18v-162h-2
q-33 65 -85 104.5t-106 39.5z" />
    <glyph glyph-name="Scircumflex" unicode="&#x15c;" horiz-adv-x="589" 
d="M468 728q-51 14 -95 36t-78 45q-34 -23 -78.5 -45t-95.5 -36h-11q26 25 53.5 55t52 61t45 61.5t32.5 55.5h4q12 -25 32 -55.5t45 -61.5t52 -61t53 -55h-11zM289 690q-51 0 -85.5 -28.5t-34.5 -80.5q0 -30 12.5 -51.5t34 -36.5t49.5 -26t59 -21q41 -13 83.5 -28.5t77 -41
t56.5 -65.5t22 -102q0 -53 -21.5 -94t-58.5 -68.5t-85.5 -42t-102.5 -14.5q-31 0 -57 4.5t-48.5 10t-41 10t-34.5 4.5q-20 0 -36.5 -8t-33.5 -21l-18 232h2q25 -48 55.5 -87t65 -67t71.5 -43t74 -15q62 0 99 30.5t37 88.5q0 36 -17 59.5t-45 40t-63.5 28.5t-72.5 25
q-37 12 -73 27.5t-64 39.5t-45.5 60t-17.5 88q0 49 18.5 88.5t52.5 67t81.5 42.5t104.5 15q28 0 52 -4.5t44.5 -9.5t38 -9.5t32.5 -4.5q20 0 34 9t26 19l4 -202h-2q-23 40 -47 73.5t-51.5 57.5t-59.5 37.5t-71 13.5z" />
    <glyph glyph-name="scircumflex" unicode="&#x15d;" horiz-adv-x="473" 
d="M412 534q-51 15 -95.5 38t-78.5 48q-34 -25 -78.5 -48t-95.5 -38h-10q26 26 53 56.5t51.5 62.5t45 63t32.5 57h4q12 -26 32.5 -57t45 -63t52 -62.5t52.5 -56.5h-10zM213 488q-34 0 -54 -17t-20 -45q0 -17 6.5 -28.5t20.5 -21t38 -18t58 -19.5q49 -15 83.5 -32t57 -38.5
t33 -49t10.5 -63.5q0 -38 -15 -69t-41.5 -52.5t-64 -33t-82.5 -11.5q-52 0 -88.5 10.5t-63.5 10.5q-19 0 -29.5 -7t-21.5 -15l-11 183h2q43 -81 94.5 -123t117.5 -42q37 0 61 18t24 54q0 19 -8 32t-23.5 22t-37.5 16.5t-50 16.5q-93 29 -135 70.5t-42 113.5q0 35 14 63.5
t38.5 49t57.5 31.5t71 11q24 0 43 -3.5t35.5 -8t31 -8.5t27.5 -4q17 0 29.5 7t26.5 18v-162h-2q-33 65 -85 104.5t-106 39.5z" />
    <glyph glyph-name="uni015E" unicode="&#x15e;" horiz-adv-x="589" 
d="M267 -224q-51 0 -83.5 25t-41.5 54l7 7q12 -21 29.5 -33t40.5 -12t36 14t13 38q0 32 -20.5 43.5t-55.5 13.5l45 69q-39 6 -69.5 15t-53.5 9q-20 0 -36.5 -8t-33.5 -21l-18 232h2q25 -48 55.5 -87t65 -67t71.5 -43t74 -15q62 0 99 30.5t37 88.5q0 36 -17 59.5t-45 40
t-63.5 28.5t-72.5 25q-37 12 -73 27.5t-64 39.5t-45.5 60t-17.5 88q0 49 18.5 88.5t52.5 67t81.5 42.5t104.5 15q28 0 52 -4.5t44.5 -9.5t38 -9.5t32.5 -4.5q20 0 34 9t26 19l4 -202h-2q-23 40 -47 73.5t-51.5 57.5t-59.5 37.5t-71 13.5q-51 0 -85.5 -28.5t-34.5 -80.5
q0 -30 12.5 -51.5t34 -36.5t49.5 -26t59 -21q41 -13 83.5 -28.5t77 -41t56.5 -65.5t22 -102q0 -53 -21.5 -94t-58.5 -68.5t-85.5 -42t-102.5 -14.5q-11 0 -21 0.5t-20 1.5l-27 -42q71 3 113 -19t42 -68q0 -21 -9.5 -37t-25.5 -27.5t-36.5 -17t-43.5 -5.5z" />
    <glyph glyph-name="uni015F" unicode="&#x15f;" horiz-adv-x="473" 
d="M211 -224q-51 0 -83.5 25t-41.5 54l7 7q12 -21 29.5 -33t40.5 -12t36 14t13 38q0 32 -20.5 43.5t-55.5 13.5l45 69q-28 5 -50 10.5t-40 5.5q-19 0 -29.5 -7t-21.5 -15l-11 183h2q43 -81 94.5 -123t117.5 -42q37 0 61 18t24 54q0 19 -8 32t-23.5 22t-37.5 16.5t-50 16.5
q-93 29 -135 70.5t-42 113.5q0 35 14 63.5t38.5 49t57.5 31.5t71 11q24 0 43 -3.5t35.5 -8t31 -8.5t27.5 -4q17 0 29.5 7t26.5 18v-162h-2q-33 65 -85 104.5t-106 39.5q-34 0 -54 -17t-20 -45q0 -17 6.5 -28.5t20.5 -21t38 -18t58 -19.5q49 -15 83.5 -32t57 -38.5t33 -49
t10.5 -63.5q0 -38 -15 -69t-41.5 -52.5t-64 -33t-82.5 -11.5q-24 0 -44 3l-28 -43q71 3 113 -19t42 -68q0 -21 -9.5 -37t-25.5 -27.5t-36.5 -17t-43.5 -5.5z" />
    <glyph glyph-name="Scaron" unicode="&#x160;" horiz-adv-x="589" 
d="M120 964q51 -14 95.5 -36t78.5 -46q34 24 78.5 46t95.5 36h10q-25 -25 -52.5 -55t-52 -61.5t-45 -61.5t-32.5 -55h-4q-12 25 -32.5 55t-45 61.5t-51.5 61.5t-53 55h10zM289 690q-51 0 -85.5 -28.5t-34.5 -80.5q0 -30 12.5 -51.5t34 -36.5t49.5 -26t59 -21
q41 -13 83.5 -28.5t77 -41t56.5 -65.5t22 -102q0 -53 -21.5 -94t-58.5 -68.5t-85.5 -42t-102.5 -14.5q-31 0 -57 4.5t-48.5 10t-41 10t-34.5 4.5q-20 0 -36.5 -8t-33.5 -21l-18 232h2q25 -48 55.5 -87t65 -67t71.5 -43t74 -15q62 0 99 30.5t37 88.5q0 36 -17 59.5t-45 40
t-63.5 28.5t-72.5 25q-37 12 -73 27.5t-64 39.5t-45.5 60t-17.5 88q0 49 18.5 88.5t52.5 67t81.5 42.5t104.5 15q28 0 52 -4.5t44.5 -9.5t38 -9.5t32.5 -4.5q20 0 34 9t26 19l4 -202h-2q-23 40 -47 73.5t-51.5 57.5t-59.5 37.5t-71 13.5z" />
    <glyph glyph-name="scaron" unicode="&#x161;" horiz-adv-x="473" 
d="M64 773q51 -15 95.5 -38t78.5 -47q34 24 78.5 47t95.5 38h10q-25 -25 -52.5 -56t-52 -63t-45 -63t-32.5 -57h-4q-12 26 -32.5 57t-45 63t-51.5 63t-53 56h10zM213 488q-34 0 -54 -17t-20 -45q0 -17 6.5 -28.5t20.5 -21t38 -18t58 -19.5q49 -15 83.5 -32t57 -38.5t33 -49
t10.5 -63.5q0 -38 -15 -69t-41.5 -52.5t-64 -33t-82.5 -11.5q-52 0 -88.5 10.5t-63.5 10.5q-19 0 -29.5 -7t-21.5 -15l-11 183h2q43 -81 94.5 -123t117.5 -42q37 0 61 18t24 54q0 19 -8 32t-23.5 22t-37.5 16.5t-50 16.5q-93 29 -135 70.5t-42 113.5q0 35 14 63.5t38.5 49
t57.5 31.5t71 11q24 0 43 -3.5t35.5 -8t31 -8.5t27.5 -4q17 0 29.5 7t26.5 18v-162h-2q-33 65 -85 104.5t-106 39.5z" />
    <glyph glyph-name="uni0162" unicode="&#x162;" horiz-adv-x="764" 
d="M398 -224q-51 0 -83.5 25t-41.5 54l7 7q12 -21 29.5 -33t40.5 -12t36 14t13 38q0 32 -20.5 43.5t-55.5 13.5l48 74h-140v2q17 11 28 21.5t17.5 23.5t9 30t2.5 42v555h-43q-40 0 -69 -12.5t-54.5 -37.5t-50.5 -63t-57 -89h-2l34 237q11 -5 27.5 -7t42.5 -2h532
q26 0 42.5 2t27.5 7l34 -237h-2q-32 51 -57 89t-50.5 63t-54.5 37.5t-69 12.5h-43v-555q0 -25 2.5 -42t9.5 -30t18 -23.5t27 -21.5v-2h-143l-32 -50q71 3 113 -19t42 -68q0 -21 -9.5 -37t-25.5 -27.5t-36.5 -17t-43.5 -5.5z" />
    <glyph glyph-name="uni0163" unicode="&#x163;" horiz-adv-x="406" 
d="M238 -224q-51 0 -83.5 25t-41.5 54l7 7q12 -21 29.5 -33t40.5 -12t36 14t13 38q0 32 -20.5 43.5t-55.5 13.5l42 64q-64 4 -106 45.5t-41 123.5l2 311h-54v11q78 17 136 64.5t85 123.5h10v-174h150l-5 -25h-145v-315q0 -38 15 -59t45 -21q35 0 57 28.5t32 80.5l12 -4
q-5 -35 -16.5 -68.5t-31.5 -60t-51 -43.5t-75 -18l-26 -40q71 3 113 -19t42 -68q0 -21 -9.5 -37t-25.5 -27.5t-36.5 -17t-43.5 -5.5z" />
    <glyph glyph-name="Tcaron" unicode="&#x164;" horiz-adv-x="764" 
d="M208 964q51 -14 95.5 -36t78.5 -46q34 24 78.5 46t95.5 36h10q-25 -25 -52.5 -55t-52 -61.5t-45 -61.5t-32.5 -55h-4q-12 25 -32.5 55t-45 61.5t-51.5 61.5t-53 55h10zM648 700q26 0 42.5 2t27.5 7l34 -237h-2q-32 51 -57 89t-50.5 63t-54.5 37.5t-69 12.5h-43v-555
q0 -25 2.5 -42t9.5 -30t18 -23.5t27 -21.5v-2h-302v2q17 11 28 21.5t17.5 23.5t9 30t2.5 42v555h-43q-40 0 -69 -12.5t-54.5 -37.5t-50.5 -63t-57 -89h-2l34 237q11 -5 27.5 -7t42.5 -2h532z" />
    <glyph glyph-name="tcaron" unicode="&#x165;" horiz-adv-x="406" 
d="M444 762q-15 -62 -54 -122t-101 -102h-3q10 49 14 107.5t0 116.5h144zM398 180q-5 -36 -16.5 -70t-33 -61t-53.5 -43t-78 -16q-34 0 -63.5 10t-51 31t-33 53t-11.5 75l2 311h-54v11q78 17 136 64.5t85 123.5h10v-174h150l-5 -25h-145v-315q0 -38 15 -59t45 -21
q35 0 57 28.5t32 80.5z" />
    <glyph glyph-name="Tbar" unicode="&#x166;" horiz-adv-x="764" 
d="M231 0v2q17 11 28 21.5t17.5 23.5t9 30t2.5 42v228h-113v30h113v297h-43q-40 0 -69 -12.5t-54.5 -37.5t-50.5 -63t-57 -89h-2l34 237q11 -5 27.5 -7t42.5 -2h532q26 0 42.5 2t27.5 7l34 -237h-2q-32 51 -57 89t-50.5 63t-54.5 37.5t-69 12.5h-43v-297h113v-30h-113v-228
q0 -25 2.5 -42t9.5 -30t18 -23.5t27 -21.5v-2h-302z" />
    <glyph glyph-name="tbar" unicode="&#x167;" horiz-adv-x="414" 
d="M411 180q-5 -36 -17 -70t-33 -61t-53.5 -43t-77.5 -16q-34 0 -63.5 10t-51 31t-33 53t-11.5 75l1 166h-54v26h54v119h-53v11q78 17 135.5 64.5t85.5 123.5h10v-174h150l-5 -25h-145v-119h140v-26h-140v-170q0 -38 15 -59t45 -21q34 0 56.5 28.5t32.5 80.5z" />
    <glyph glyph-name="Utilde" unicode="&#x168;" horiz-adv-x="728" 
d="M505 893q-5 -60 -29 -94.5t-61 -34.5q-19 0 -34.5 6t-30 13t-28.5 13t-31 6q-45 0 -64 -44h-4q5 60 29 94t61 34q19 0 34.5 -6t30 -13t29 -13t30.5 -6q45 0 64 45h4zM654 271q0 -70 -20 -122.5t-56.5 -88t-88 -53t-114.5 -17.5q-67 0 -123 17.5t-96.5 53t-63 88.5
t-22.5 124v306q0 25 -2.5 42.5t-8.5 31t-16.5 24t-27.5 21.5v2h299v-2q-16 -11 -27 -21.5t-17 -24t-8.5 -31t-2.5 -42.5v-304q0 -107 43 -165.5t131 -58.5q41 0 75.5 14.5t60 43t39.5 70t14 95.5v268q0 62 -18.5 99t-63.5 57v2h189v-2q-39 -22 -57 -57t-18 -92v-278z" />
    <glyph glyph-name="utilde" unicode="&#x169;" horiz-adv-x="629" 
d="M456 688q-5 -60 -29 -94.5t-61 -34.5q-19 0 -34.5 6t-30 13t-28.5 13t-31 6q-45 0 -64 -44h-4q5 60 29 94t61 34q19 0 34.5 -6t30 -13t29 -13t30.5 -6q45 0 64 45h4zM388 384q0 26 -1.5 42t-7 27.5t-16 20.5t-28.5 19v2h232v-389q0 -24 2 -40t8 -27t16 -19t26 -18v-2
h-231v133q-17 -69 -62.5 -106t-110.5 -37q-40 0 -70 13.5t-49.5 37t-29 55.5t-9.5 68v220q0 26 -1.5 42t-7 27.5t-16 20.5t-27.5 19v2h231v-336q0 -33 16.5 -58t50.5 -25q38 0 61.5 31.5t23.5 100.5v176z" />
    <glyph glyph-name="Umacron" unicode="&#x16a;" horiz-adv-x="728" 
d="M245 821h309v-38h-309v38zM654 271q0 -70 -20 -122.5t-56.5 -88t-88 -53t-114.5 -17.5q-67 0 -123 17.5t-96.5 53t-63 88.5t-22.5 124v306q0 25 -2.5 42.5t-8.5 31t-16.5 24t-27.5 21.5v2h299v-2q-16 -11 -27 -21.5t-17 -24t-8.5 -31t-2.5 -42.5v-304q0 -107 43 -165.5
t131 -58.5q41 0 75.5 14.5t60 43t39.5 70t14 95.5v268q0 62 -18.5 99t-63.5 57v2h189v-2q-39 -22 -57 -57t-18 -92v-278z" />
    <glyph glyph-name="umacron" unicode="&#x16b;" horiz-adv-x="629" 
d="M160 634h309v-37h-309v37zM388 384q0 26 -1.5 42t-7 27.5t-16 20.5t-28.5 19v2h232v-389q0 -24 2 -40t8 -27t16 -19t26 -18v-2h-231v133q-17 -69 -62.5 -106t-110.5 -37q-40 0 -70 13.5t-49.5 37t-29 55.5t-9.5 68v220q0 26 -1.5 42t-7 27.5t-16 20.5t-27.5 19v2h231
v-336q0 -33 16.5 -58t50.5 -25q38 0 61.5 31.5t23.5 100.5v176z" />
    <glyph glyph-name="Ubreve" unicode="&#x16c;" horiz-adv-x="728" 
d="M560 935q0 -45 -12 -81.5t-33 -62.5t-50.5 -40t-65.5 -14t-65.5 14t-50.5 40t-32.5 62.5t-11.5 81.5h5q4 -22 20 -38.5t38 -26.5t47.5 -15t49.5 -5t49.5 5t47.5 15t38 26.5t20 38.5h6zM654 271q0 -70 -20 -122.5t-56.5 -88t-88 -53t-114.5 -17.5q-67 0 -123 17.5
t-96.5 53t-63 88.5t-22.5 124v306q0 25 -2.5 42.5t-8.5 31t-16.5 24t-27.5 21.5v2h299v-2q-16 -11 -27 -21.5t-17 -24t-8.5 -31t-2.5 -42.5v-304q0 -107 43 -165.5t131 -58.5q41 0 75.5 14.5t60 43t39.5 70t14 95.5v268q0 62 -18.5 99t-63.5 57v2h189v-2q-39 -22 -57 -57
t-18 -92v-278z" />
    <glyph glyph-name="ubreve" unicode="&#x16d;" horiz-adv-x="629" 
d="M474 759q0 -46 -11.5 -83.5t-32.5 -64t-50.5 -41t-65.5 -14.5t-65.5 14.5t-50.5 41t-32.5 64t-11.5 83.5h5q4 -24 20 -41.5t38 -28t47.5 -15.5t49.5 -5t49.5 5t47.5 15.5t38 28t20 41.5h5zM388 384q0 26 -1.5 42t-7 27.5t-16 20.5t-28.5 19v2h232v-389q0 -24 2 -40t8 -27
t16 -19t26 -18v-2h-231v133q-17 -69 -62.5 -106t-110.5 -37q-40 0 -70 13.5t-49.5 37t-29 55.5t-9.5 68v220q0 26 -1.5 42t-7 27.5t-16 20.5t-27.5 19v2h231v-336q0 -33 16.5 -58t50.5 -25q38 0 61.5 31.5t23.5 100.5v176z" />
    <glyph glyph-name="Uring" unicode="&#x16e;" horiz-adv-x="728" 
d="M399 950q22 0 41.5 -8.5t34.5 -23t23.5 -34t8.5 -41.5t-8.5 -42t-23.5 -34.5t-34.5 -23t-41.5 -8.5t-41.5 8.5t-34.5 23t-23.5 34.5t-8.5 42t8.5 41.5t23.5 34t34.5 23t41.5 8.5zM399 766q32 0 55 22.5t23 54.5q0 31 -23 53.5t-55 22.5t-54.5 -22.5t-22.5 -53.5
q0 -32 22.5 -54.5t54.5 -22.5zM654 271q0 -70 -20 -122.5t-56.5 -88t-88 -53t-114.5 -17.5q-67 0 -123 17.5t-96.5 53t-63 88.5t-22.5 124v306q0 25 -2.5 42.5t-8.5 31t-16.5 24t-27.5 21.5v2h299v-2q-16 -11 -27 -21.5t-17 -24t-8.5 -31t-2.5 -42.5v-304q0 -107 43 -165.5
t131 -58.5q41 0 75.5 14.5t60 43t39.5 70t14 95.5v268q0 62 -18.5 99t-63.5 57v2h189v-2q-39 -22 -57 -57t-18 -92v-278z" />
    <glyph glyph-name="uring" unicode="&#x16f;" horiz-adv-x="629" 
d="M314 760q22 0 41.5 -8.5t34.5 -23t23.5 -34t8.5 -41.5t-8.5 -42t-23.5 -34.5t-34.5 -23t-41.5 -8.5t-41.5 8.5t-34.5 23t-23.5 34.5t-8.5 42t8.5 41.5t23.5 34t34.5 23t41.5 8.5zM314 576q32 0 55 22.5t23 54.5q0 31 -23 53.5t-55 22.5t-54.5 -22.5t-22.5 -53.5
q0 -32 22.5 -54.5t54.5 -22.5zM388 384q0 26 -1.5 42t-7 27.5t-16 20.5t-28.5 19v2h232v-389q0 -24 2 -40t8 -27t16 -19t26 -18v-2h-231v133q-17 -69 -62.5 -106t-110.5 -37q-40 0 -70 13.5t-49.5 37t-29 55.5t-9.5 68v220q0 26 -1.5 42t-7 27.5t-16 20.5t-27.5 19v2h231
v-336q0 -33 16.5 -58t50.5 -25q38 0 61.5 31.5t23.5 100.5v176z" />
    <glyph glyph-name="Uhungarumlaut" unicode="&#x170;" horiz-adv-x="728" 
d="M486 931q-31 -60 -77.5 -109t-125.5 -87h-5q24 42 33 93.5t11 102.5h164zM680 931q-30 -60 -77 -109t-126 -87h-5q24 42 33 93.5t11 102.5h164zM654 271q0 -70 -20 -122.5t-56.5 -88t-88 -53t-114.5 -17.5q-67 0 -123 17.5t-96.5 53t-63 88.5t-22.5 124v306
q0 25 -2.5 42.5t-8.5 31t-16.5 24t-27.5 21.5v2h299v-2q-16 -11 -27 -21.5t-17 -24t-8.5 -31t-2.5 -42.5v-304q0 -107 43 -165.5t131 -58.5q41 0 75.5 14.5t60 43t39.5 70t14 95.5v268q0 62 -18.5 99t-63.5 57v2h189v-2q-39 -22 -57 -57t-18 -92v-278z" />
    <glyph glyph-name="uhungarumlaut" unicode="&#x171;" horiz-adv-x="629" 
d="M383 749q-30 -62 -77 -112.5t-126 -91.5h-5q25 45 35.5 98t12.5 106h160zM571 749q-30 -62 -77 -112.5t-125 -91.5h-6q25 45 35.5 98t12.5 106h160zM388 384q0 26 -1.5 42t-7 27.5t-16 20.5t-28.5 19v2h232v-389q0 -24 2 -40t8 -27t16 -19t26 -18v-2h-231v133
q-17 -69 -62.5 -106t-110.5 -37q-40 0 -70 13.5t-49.5 37t-29 55.5t-9.5 68v220q0 26 -1.5 42t-7 27.5t-16 20.5t-27.5 19v2h231v-336q0 -33 16.5 -58t50.5 -25q38 0 61.5 31.5t23.5 100.5v176z" />
    <glyph glyph-name="Uogonek" unicode="&#x172;" horiz-adv-x="728" 
d="M419 -241q-45 0 -76.5 25t-31.5 67q0 25 11.5 45.5t31 38t45 33t53.5 30.5q-18 -5 -37.5 -6.5t-39.5 -1.5q-67 0 -123 17.5t-96.5 53t-63 88.5t-22.5 124v306q0 25 -2.5 42.5t-8.5 31t-16.5 24t-27.5 21.5v2h299v-2q-16 -11 -27 -21.5t-17 -24t-8.5 -31t-2.5 -42.5v-304
q0 -107 43 -165.5t131 -58.5q41 0 75.5 14.5t60 43t39.5 70t14 95.5v268q0 62 -18.5 99t-63.5 57v2h189v-2q-39 -22 -57 -57t-18 -91v-279q0 -103 -39.5 -163.5t-116.5 -98.5q-25 -12 -41 -27.5t-25.5 -31.5t-13.5 -32t-4 -29q0 -32 17.5 -48.5t43.5 -16.5q27 0 48 10.5
t42 38.5l3 -2q-20 -50 -54.5 -81t-94.5 -31z" />
    <glyph glyph-name="uogonek" unicode="&#x173;" horiz-adv-x="629" 
d="M498 -129q-19 -50 -53.5 -81t-95.5 -31q-45 0 -76.5 25t-31.5 67q0 26 12.5 47t32.5 38.5t47 33t55 30.5v133q-17 -69 -62.5 -106t-110.5 -37q-40 0 -70 13.5t-49.5 37t-29 55.5t-9.5 68v220q0 26 -1.5 42t-7 27.5t-16 20.5t-27.5 19v2h231v-336q0 -33 16.5 -58t50.5 -25
q38 0 61.5 31.5t23.5 100.5v176q0 26 -1.5 42t-7 27.5t-16 20.5t-28.5 19v2h232v-389q0 -24 2 -40t8 -27t16 -19t26 -18v-2h-208q-38 -30 -52.5 -58t-14.5 -53q0 -32 17.5 -48.5t43.5 -16.5q27 0 48 10.5t42 38.5z" />
    <glyph glyph-name="Wcircumflex" unicode="&#x174;" horiz-adv-x="985" 
d="M675 728q-51 14 -95 36t-78 45q-34 -23 -78.5 -45t-95.5 -36h-11q26 25 53.5 55t52 61t45 61.5t32.5 55.5h4q12 -25 32 -55.5t45 -61.5t52 -61t53 -55h-11zM315 -10h-5l-243 598q-19 47 -35 69.5t-39 40.5v2h298v-2q-20 -12 -30 -25.5t-10 -32.5q0 -23 12 -55l130 -329
l87 228l-40 104q-19 47 -34.5 69.5t-38.5 40.5v2h293v-2q-20 -12 -30 -25.5t-10 -32.5q0 -13 3.5 -26t8.5 -29l118 -334l121 322q8 24 8 42q0 53 -55 83v2h170v-2q-25 -19 -47 -47t-39 -73l-232 -588h-5l-176 457z" />
    <glyph glyph-name="wcircumflex" unicode="&#x175;" horiz-adv-x="788" 
d="M575 534q-51 15 -95.5 38t-78.5 48q-34 -25 -78.5 -48t-95.5 -38h-10q26 26 53 56.5t51.5 62.5t45 63t32.5 57h4q12 -26 32.5 -57t45 -63t52 -62.5t52.5 -56.5h-10zM250 -10h-2l-185 397q-10 22 -18 37.5t-15.5 27t-16.5 21t-21 20.5v2h258v-2q-12 -10 -17 -19.5
t-5 -25.5q0 -14 4.5 -28t10.5 -28l86 -188l65 136l-20 47q-10 23 -18 38t-16 26.5t-17 21t-21 20.5v2h261v-2q-30 -19 -30 -46q0 -12 4.5 -26t9.5 -29l68 -181l74 176q9 20 9 40q0 22 -12.5 39.5t-38.5 26.5v2h149v-2q-13 -10 -22.5 -19.5t-18 -21t-17 -27t-19.5 -39.5
l-175 -396h-2l-136 322z" />
    <glyph glyph-name="Ycircumflex" unicode="&#x176;" horiz-adv-x="707" 
d="M551 728q-51 14 -95 36t-78 45q-34 -23 -78.5 -45t-95.5 -36h-11q26 25 53.5 55t52 61t45 61.5t32.5 55.5h4q12 -25 32 -55.5t45 -61.5t52 -61t53 -55h-11zM577 580q7 12 11 24t4 24q0 20 -11.5 38t-37.5 32v2h170v-2q-32 -23 -53.5 -49t-44.5 -64l-175 -290v-176
q0 -25 2.5 -42t9 -30t17.5 -23.5t28 -21.5v-2h-293v2q17 11 28 21.5t17.5 23.5t9 30t2.5 42v176l-178 293q-23 38 -42 62.5t-48 47.5v2h312v-2q-20 -15 -28.5 -28t-8.5 -31q0 -22 14 -46l148 -258z" />
    <glyph glyph-name="ycircumflex" unicode="&#x177;" horiz-adv-x="544" 
d="M469 534q-51 15 -95.5 38t-78.5 48q-34 -25 -78.5 -48t-95.5 -38h-10q26 26 53 56.5t51.5 62.5t45 63t32.5 57h4q12 -26 32.5 -57t45 -63t52 -62.5t52.5 -56.5h-10zM66 387q-12 23 -20 38.5t-16 26.5t-17 20.5t-21 20.5v2h273v-2q-16 -10 -22 -20t-6 -25q0 -12 4 -27
t11 -29l106 -221l85 208q10 24 10 46q0 25 -13.5 42t-37.5 26v2h150v-2q-13 -10 -23 -19.5t-18.5 -22t-17 -29t-18.5 -40.5l-204 -488q-26 -63 -59 -93t-81 -30q-45 0 -74.5 24t-29.5 69q0 42 25.5 64t60.5 22q16 0 29 -4q-26 -15 -26 -47q0 -24 16 -39.5t40 -15.5
q29 0 48 17.5t36 55.5l23 50z" />
    <glyph glyph-name="Ydieresis" unicode="&#x178;" horiz-adv-x="707" 
d="M272 745q-37 0 -62 26t-25 62q0 37 25 63.5t62 26.5t62.5 -26.5t25.5 -63.5q0 -36 -25.5 -62t-62.5 -26zM483 745q-37 0 -63 26t-26 62q0 37 26 63.5t63 26.5t62.5 -26.5t25.5 -63.5q0 -36 -25.5 -62t-62.5 -26zM577 580q7 12 11 24t4 24q0 20 -11.5 38t-37.5 32v2h170
v-2q-32 -23 -53.5 -49t-44.5 -64l-175 -290v-176q0 -25 2.5 -42t9 -30t17.5 -23.5t28 -21.5v-2h-293v2q17 11 28 21.5t17.5 23.5t9 30t2.5 42v176l-178 293q-23 38 -42 62.5t-48 47.5v2h312v-2q-20 -15 -28.5 -28t-8.5 -31q0 -22 14 -46l148 -258z" />
    <glyph glyph-name="Zacute" unicode="&#x179;" horiz-adv-x="694" 
d="M496 931q-31 -60 -84 -109t-132 -87h-5q24 42 33 93.5t11 102.5h177zM21 2l420 671h-163q-44 0 -76 -13t-58 -37.5t-49 -58.5t-49 -76h-2l34 221q11 -5 28 -7t42 -2h514v-2l-410 -671h165q47 0 80 11.5t61 36t53.5 63.5t57.5 93h2l-31 -231h-619v2z" />
    <glyph glyph-name="zacute" unicode="&#x17a;" horiz-adv-x="529" 
d="M411 749q-60 -124 -215 -204h-6q25 45 35 98t12 106h174zM227 474q-31 0 -55.5 -9.5t-46.5 -28.5t-43 -47.5t-47 -66.5h-2l14 183q23 -10 62 -10h392v-2l-282 -472h65q39 0 66.5 9t51.5 29t48 52t57 78h2l-29 -189h-465v2l285 472h-73z" />
    <glyph glyph-name="Zdotaccent" unicode="&#x17b;" horiz-adv-x="694" 
d="M254 837q0 42 28.5 69t71.5 27t72.5 -27t29.5 -69q0 -40 -29.5 -68t-72.5 -28t-71.5 28t-28.5 68zM21 2l420 671h-163q-44 0 -76 -13t-58 -37.5t-49 -58.5t-49 -76h-2l34 221q11 -5 28 -7t42 -2h514v-2l-410 -671h165q47 0 80 11.5t61 36t53.5 63.5t57.5 93h2l-31 -231
h-619v2z" />
    <glyph glyph-name="zdotaccent" unicode="&#x17c;" horiz-adv-x="529" 
d="M171 650q0 42 28.5 69t71.5 27t72.5 -27t29.5 -69q0 -40 -29.5 -68t-72.5 -28t-71.5 28t-28.5 68zM227 474q-31 0 -55.5 -9.5t-46.5 -28.5t-43 -47.5t-47 -66.5h-2l14 183q23 -10 62 -10h392v-2l-282 -472h65q39 0 66.5 9t51.5 29t48 52t57 78h2l-29 -189h-465v2l285 472
h-73z" />
    <glyph glyph-name="Zcaron" unicode="&#x17d;" horiz-adv-x="694" 
d="M181 964q51 -14 95.5 -36t78.5 -46q34 24 78.5 46t95.5 36h10q-25 -25 -52.5 -55t-52 -61.5t-45 -61.5t-32.5 -55h-4q-12 25 -32.5 55t-45 61.5t-51.5 61.5t-53 55h10zM21 2l420 671h-163q-44 0 -76 -13t-58 -37.5t-49 -58.5t-49 -76h-2l34 221q11 -5 28 -7t42 -2h514v-2
l-410 -671h165q47 0 80 11.5t61 36t53.5 63.5t57.5 93h2l-31 -231h-619v2z" />
    <glyph glyph-name="zcaron" unicode="&#x17e;" horiz-adv-x="529" 
d="M98 773q51 -15 95.5 -38t78.5 -47q34 24 78.5 47t95.5 38h10q-25 -25 -52.5 -56t-52 -63t-45 -63t-32.5 -57h-4q-12 26 -32.5 57t-45 63t-51.5 63t-53 56h10zM227 474q-31 0 -55.5 -9.5t-46.5 -28.5t-43 -47.5t-47 -66.5h-2l14 183q23 -10 62 -10h392v-2l-282 -472h65
q39 0 66.5 9t51.5 29t48 52t57 78h2l-29 -189h-465v2l285 472h-73z" />
    <glyph glyph-name="uni0192" unicode="&#x192;" horiz-adv-x="604" 
d="M33 -208q-35 0 -64.5 6t-51.5 18.5t-34.5 32t-12.5 45.5q0 36 25.5 57t60.5 21q22 0 40.5 -6t28.5 -16q-23 -4 -36.5 -21.5t-13.5 -51.5q0 -30 15 -49.5t43 -19.5q29 0 43.5 25.5t20.5 65.5l67 439h-87l4 23h86l20 129q8 49 26.5 89.5t49.5 69.5t74 45t100 16
q35 0 64.5 -6t52 -18.5t35 -32.5t12.5 -47q0 -38 -26.5 -59.5t-63.5 -21.5q-22 0 -40.5 6t-29.5 17q23 4 36.5 23t13.5 54q0 31 -13 50t-41 19q-29 0 -43.5 -24.5t-20.5 -66.5l-37 -242h110l-4 -23h-109l-45 -295q-19 -121 -80.5 -186t-174.5 -65z" />
    <glyph glyph-name="Ohorn" unicode="&#x1a0;" 
d="M519 687q51 -18 92.5 -50.5t71 -76t46 -96.5t16.5 -114q0 -79 -27 -145t-75 -114t-114 -74.5t-143 -26.5q-78 0 -144 26.5t-114 74.5t-75 114t-27 145t27 145t75 114t114 74.5t144 26.5q47 0 94 -11q46 1 68.5 19t22.5 44q0 60 -43 70q9 11 25.5 16.5t36.5 5.5
q33 0 57 -20t24 -55q0 -21 -12.5 -36.5t-33.5 -27t-48.5 -18.5t-57.5 -10zM386 10q86 0 119.5 87.5t33.5 252.5t-33.5 252.5t-119.5 87.5t-120 -87.5t-34 -252.5t34 -252.5t120 -87.5z" />
    <glyph glyph-name="ohorn" unicode="&#x1a1;" horiz-adv-x="588" 
d="M410 483q71 -29 115 -89.5t44 -145.5q0 -58 -21.5 -106t-59 -81.5t-87.5 -52t-107 -18.5t-107 18.5t-87.5 52t-59 81.5t-21.5 106t21.5 105.5t59 81t87.5 52t107 18.5q21 0 41.5 -2.5t40.5 -7.5q41 3 60.5 20t19.5 42q0 60 -43 70q9 11 25.5 16.5t36.5 5.5q33 0 57 -20
t24 -55q0 -20 -12 -35.5t-32 -26.5t-46.5 -18.5t-55.5 -10.5zM294 7q47 0 66 61t19 180q0 118 -19 179t-66 61t-66 -61t-19 -179q0 -119 19 -180t66 -61z" />
    <glyph glyph-name="Uhorn" unicode="&#x1af;" horiz-adv-x="728" 
d="M826 779q0 -32 -29 -52.5t-72 -30.5q-37 -23 -54 -57.5t-17 -89.5v-278q0 -70 -20 -122.5t-56.5 -88t-88 -53t-114.5 -17.5q-67 0 -123 17.5t-96.5 53t-63 88.5t-22.5 124v306q0 25 -2.5 42.5t-8.5 31t-16.5 24t-27.5 21.5v2h299v-2q-16 -11 -27 -21.5t-17 -24t-8.5 -31
t-2.5 -42.5v-304q0 -107 43 -165.5t131 -58.5q41 0 75.5 14.5t60 43t39.5 70t14 95.5v268q0 62 -18.5 99t-63.5 57v2h111q38 4 56.5 21t18.5 41q0 60 -43 70q9 11 25.5 16.5t36.5 5.5q33 0 57 -20t24 -55z" />
    <glyph glyph-name="uhorn" unicode="&#x1b0;" horiz-adv-x="629" 
d="M697 574q0 -19 -10.5 -33.5t-28.5 -25.5t-41.5 -18.5t-49.5 -11.5v-379q0 -24 2 -40t8 -27t16 -19t26 -18v-2h-231v133q-17 -69 -62.5 -106t-110.5 -37q-40 0 -70 13.5t-49.5 37t-29 55.5t-9.5 68v220q0 26 -1.5 42t-7 27.5t-16 20.5t-27.5 19v2h231v-336q0 -33 16.5 -58
t50.5 -25q38 0 61.5 31.5t23.5 100.5v176q0 26 -1.5 42t-7 27.5t-16 20.5t-28.5 19v2h187q38 4 56.5 21t18.5 41q0 60 -43 70q9 11 25.5 16.5t36.5 5.5q33 0 57 -20t24 -55z" />
    <glyph glyph-name="AEacute" unicode="&#x1fc;" horiz-adv-x="1079" 
d="M842 931q-31 -60 -84 -109t-132 -87h-5q24 42 33 93.5t11 102.5h177zM0 0v2q26 18 45.5 42t47.5 67l328 499q10 16 10 31q0 17 -13 29.5t-39 27.5v2h553q26 0 42.5 2t27.5 7l34 -194h-2q-21 38 -43 67t-48.5 49.5t-61 31t-81.5 10.5h-114v-297h91q30 0 52.5 4.5t39 17.5
t29 35t24.5 57h2v-252h-2q-12 35 -24.5 56t-29 33t-39 16t-52.5 4h-91v-320h130q50 0 86 13.5t63.5 37.5t50 56.5t43.5 69.5h2l-32 -204h-586v2q17 11 27.5 22t16.5 24.5t8.5 31t2.5 42.5v137h-270l-84 -128q-21 -31 -21 -62q0 -22 11 -39.5t37 -27.5v-2h-171zM498 288v382
l-251 -382h251z" />
    <glyph glyph-name="aeacute" unicode="&#x1fd;" horiz-adv-x="838" 
d="M584 749q-60 -124 -215 -204h-6q25 45 35 98t12 106h174zM815 158q-22 -81 -84.5 -124.5t-147.5 -43.5q-75 0 -136.5 33t-93.5 96q-9 -23 -25 -45.5t-39 -40.5t-52.5 -29t-66.5 -11q-29 0 -56 7.5t-47.5 23t-32.5 39t-12 55.5q0 42 19 68.5t51.5 43t74 26t86.5 17.5
l76 14v99q0 19 -4 37t-13 32.5t-23.5 23t-35.5 8.5q-35 0 -53 -22t-18 -54q0 -61 48 -61q9 0 19 3q-15 -29 -42.5 -44t-64.5 -15q-39 0 -67 22.5t-28 61.5q0 29 15.5 52.5t43 40t66.5 25.5t86 9q60 0 98 -17t60 -49q33 30 76.5 48t91.5 18q60 0 104.5 -18t74 -50t43.5 -74.5
t14 -92.5h-318q0 -94 44.5 -146t117.5 -52q46 0 83.5 21t60.5 68zM649 291q0 42 -2.5 78t-9.5 62.5t-20 41.5t-34 15q-38 0 -58 -54t-22 -143h146zM287 260q-48 -11 -69.5 -38.5t-21.5 -76.5q0 -38 14.5 -60.5t43.5 -22.5q37 0 56 30.5t19 76.5v100z" />
    <glyph glyph-name="Oslashacute" unicode="&#x1fe;" 
d="M527 931q-31 -60 -84 -109t-132 -87h-5q24 42 33 93.5t11 102.5h177zM386 -10q-71 0 -131.5 22t-108.5 63l-81 -87l-20 16l82 88q-48 48 -74.5 113.5t-26.5 144.5t27 145t75 114t114 74.5t144 26.5q71 0 131.5 -22t108.5 -63l75 80l20 -17l-76 -81q48 -48 74 -113.5
t26 -143.5q0 -79 -27 -145t-75 -114t-114 -74.5t-143 -26.5zM232 350q0 -39 1.5 -73.5t5.5 -65.5l289 309q-14 84 -48 127t-94 43q-86 0 -120 -87.5t-34 -252.5zM386 10q86 0 119.5 87.5t33.5 252.5q0 38 -1.5 72.5t-5.5 64.5l-288 -308q14 -84 48 -126.5t94 -42.5z" />
    <glyph glyph-name="oslashacute" unicode="&#x1ff;" horiz-adv-x="588" 
d="M434 749q-60 -124 -215 -204h-6q25 45 35 98t12 106h174zM294 -10q-100 0 -174 54l-53 -56l-19 18l52 54q-38 34 -59.5 81.5t-21.5 106.5q0 58 21.5 105.5t59 81t87.5 52t107 18.5q51 0 95.5 -14.5t80.5 -41.5l53 56l19 -18l-52 -54q37 -34 58 -81t21 -104
q0 -58 -21.5 -106t-59 -81.5t-87.5 -52t-107 -18.5zM209 248q0 -20 0.5 -37t1.5 -34l164 172q-7 69 -26.5 104t-54.5 35q-47 0 -66 -61t-19 -179zM294 7q47 0 66 61t19 180q0 18 -0.5 34.5t-1.5 31.5l-163 -172q14 -135 80 -135z" />
    <glyph glyph-name="uni0218" unicode="&#x218;" horiz-adv-x="589" 
d="M289 690q-51 0 -85.5 -28.5t-34.5 -80.5q0 -30 12.5 -51.5t34 -36.5t49.5 -26t59 -21q41 -13 83.5 -28.5t77 -41t56.5 -65.5t22 -102q0 -53 -21.5 -94t-58.5 -68.5t-85.5 -42t-102.5 -14.5q-31 0 -57 4.5t-48.5 10t-41 10t-34.5 4.5q-20 0 -36.5 -8t-33.5 -21l-18 232h2
q25 -48 55.5 -87t65 -67t71.5 -43t74 -15q62 0 99 30.5t37 88.5q0 36 -17 59.5t-45 40t-63.5 28.5t-72.5 25q-37 12 -73 27.5t-64 39.5t-45.5 60t-17.5 88q0 49 18.5 88.5t52.5 67t81.5 42.5t104.5 15q28 0 52 -4.5t44.5 -9.5t38 -9.5t32.5 -4.5q20 0 34 9t26 19l4 -202h-2
q-23 40 -47 73.5t-51.5 57.5t-59.5 37.5t-71 13.5zM389 -136q0 -68 -50.5 -103t-129.5 -36v16q57 5 88.5 23.5t35.5 53.5q-8 -7 -23 -12t-32 -5q-33 0 -54.5 24t-21.5 56q0 35 25.5 59t62.5 24q45 0 72 -27.5t27 -72.5z" />
    <glyph glyph-name="uni0219" unicode="&#x219;" horiz-adv-x="473" 
d="M213 488q-34 0 -54 -17t-20 -45q0 -17 6.5 -28.5t20.5 -21t38 -18t58 -19.5q49 -15 83.5 -32t57 -38.5t33 -49t10.5 -63.5q0 -38 -15 -69t-41.5 -52.5t-64 -33t-82.5 -11.5q-52 0 -88.5 10.5t-63.5 10.5q-19 0 -29.5 -7t-21.5 -15l-11 183h2q43 -81 94.5 -123t117.5 -42
q37 0 61 18t24 54q0 19 -8 32t-23.5 22t-37.5 16.5t-50 16.5q-93 29 -135 70.5t-42 113.5q0 35 14 63.5t38.5 49t57.5 31.5t71 11q24 0 43 -3.5t35.5 -8t31 -8.5t27.5 -4q17 0 29.5 7t26.5 18v-162h-2q-33 65 -85 104.5t-106 39.5zM333 -136q0 -68 -50.5 -103t-129.5 -36v16
q57 5 88.5 23.5t35.5 53.5q-8 -7 -23 -12t-32 -5q-33 0 -54.5 24t-21.5 56q0 35 25.5 59t62.5 24q45 0 72 -27.5t27 -72.5z" />
    <glyph glyph-name="uni021A" unicode="&#x21a;" horiz-adv-x="764" 
d="M648 700q26 0 42.5 2t27.5 7l34 -237h-2q-32 51 -57 89t-50.5 63t-54.5 37.5t-69 12.5h-43v-555q0 -25 2.5 -42t9.5 -30t18 -23.5t27 -21.5v-2h-302v2q17 11 28 21.5t17.5 23.5t9 30t2.5 42v555h-43q-40 0 -69 -12.5t-54.5 -37.5t-50.5 -63t-57 -89h-2l34 237
q11 -5 27.5 -7t42.5 -2h532zM477 -136q0 -68 -50.5 -103t-129.5 -36v16q57 5 88.5 23.5t35.5 53.5q-8 -7 -23 -12t-32 -5q-33 0 -54.5 24t-21.5 56q0 35 25.5 59t62.5 24q45 0 72 -27.5t27 -72.5z" />
    <glyph glyph-name="uni021B" unicode="&#x21b;" horiz-adv-x="406" 
d="M398 180q-5 -36 -16.5 -70t-33 -61t-53.5 -43t-78 -16q-34 0 -63.5 10t-51 31t-33 53t-11.5 75l2 311h-54v11q78 17 136 64.5t85 123.5h10v-174h150l-5 -25h-145v-315q0 -38 15 -59t45 -21q35 0 57 28.5t32 80.5zM297 -136q0 -68 -50.5 -103t-129.5 -36v16
q57 5 88.5 23.5t35.5 53.5q-8 -7 -23 -12t-32 -5q-33 0 -54.5 24t-21.5 56q0 35 25.5 59t62.5 24q45 0 72 -27.5t27 -72.5z" />
    <glyph glyph-name="uni0237" unicode="&#x237;" horiz-adv-x="293" 
d="M240 -24q0 -54 -19 -92.5t-51 -63.5t-75.5 -37t-92.5 -12q-34 0 -64.5 6t-53 19t-36 32.5t-13.5 45.5q0 36 28 57t66 21q23 0 41.5 -5.5t29.5 -15.5q-23 -5 -37 -24t-14 -51q0 -31 13 -50t42 -19q32 0 44.5 26t12.5 71v500q0 26 -2 42t-7.5 27.5t-15.5 20.5t-28 19v2h232
v-519z" />
    <glyph glyph-name="uni02BB" unicode="&#x2bb;" horiz-adv-x="500" 
d="M155 645q0 68 50.5 102.5t129.5 35.5v-16q-57 -5 -88.5 -23.5t-35.5 -53.5q8 7 23 12t33 5q32 0 53.5 -24t21.5 -56q0 -35 -25.5 -58.5t-62.5 -23.5q-45 0 -72 27.5t-27 72.5z" />
    <glyph glyph-name="caron" unicode="&#x2c7;" horiz-adv-x="500" 
d="M76 773q51 -15 95.5 -38t78.5 -47q34 24 78.5 47t95.5 38h10q-25 -25 -52.5 -56t-52 -63t-45 -63t-32.5 -57h-4q-12 26 -32.5 57t-45 63t-51.5 63t-53 56h10z" />
    <glyph glyph-name="dotaccent" unicode="&#x2d9;" horiz-adv-x="500" 
d="M149 650q0 42 28.5 69t71.5 27t72.5 -27t29.5 -69q0 -40 -29.5 -68t-72.5 -28t-71.5 28t-28.5 68z" />
    <glyph glyph-name="ring" unicode="&#x2da;" horiz-adv-x="501" 
d="M250 760q22 0 41.5 -8.5t34.5 -23t23.5 -34t8.5 -41.5t-8.5 -42t-23.5 -34.5t-34.5 -23t-41.5 -8.5t-41.5 8.5t-34.5 23t-23.5 34.5t-8.5 42t8.5 41.5t23.5 34t34.5 23t41.5 8.5zM250 576q32 0 55 22.5t23 54.5q0 31 -23 53.5t-55 22.5t-54.5 -22.5t-22.5 -53.5
q0 -32 22.5 -54.5t54.5 -22.5z" />
    <glyph glyph-name="ogonek" unicode="&#x2db;" horiz-adv-x="500" 
d="M137 -149q0 30 16 53t41.5 42.5t57.5 36.5t65 35l5 -7q-47 -33 -64.5 -64t-17.5 -58q0 -32 17.5 -48.5t43.5 -16.5q27 0 48 10.5t42 38.5l3 -2q-19 -50 -53.5 -81t-95.5 -31q-45 0 -76.5 25t-31.5 67z" />
    <glyph glyph-name="hungarumlaut" unicode="&#x2dd;" horiz-adv-x="500" 
d="M260 749q-30 -62 -77 -112.5t-126 -91.5h-5q25 45 35.5 98t12.5 106h160zM448 749q-30 -62 -77 -112.5t-125 -91.5h-6q25 45 35.5 98t12.5 106h160z" />
    <glyph glyph-name="gravecomb" unicode="&#x300;" horiz-adv-x="0" 
d="M-205 698q1 -39 8.5 -79.5t26.5 -73.5h-4q-60 31 -100 69t-63 84h132z" />
    <glyph glyph-name="acutecomb" unicode="&#x301;" horiz-adv-x="0" 
d="M-170 698q-47 -93 -162 -153h-5q19 33 26.5 73.5t9.5 79.5h131z" />
    <glyph glyph-name="uni0302" unicode="&#x302;" horiz-adv-x="0" 
d="M-119 534q-38 11 -71.5 28.5t-59.5 36.5q-26 -19 -59.5 -36.5t-71.5 -28.5h-7q19 19 39.5 42.5t39 47.5t33.5 47.5t24 42.5h4q9 -19 24 -42.5t33.5 -47.5t39 -47.5t39.5 -42.5h-7z" />
    <glyph glyph-name="tildecomb" unicode="&#x303;" horiz-adv-x="0" 
d="M-109 694q-5 -60 -29 -94.5t-61 -34.5q-19 0 -34.5 6t-30 13t-29 13t-30.5 6q-45 0 -64 -44h-4q5 60 29 94t61 34q19 0 34.5 -6t30 -13t28.5 -13t31 -6q45 0 64 45h4z" />
    <glyph glyph-name="uni0306" unicode="&#x306;" horiz-adv-x="0" 
d="M-130 709q0 -70 -33 -111.5t-87 -41.5t-87 41.5t-33 111.5h4q3 -18 15 -31t28.5 -21.5t35.5 -12t37 -3.5t37 3.5t35.5 12t28.5 21.5t15 31h4z" />
    <glyph glyph-name="hookabovecomb" unicode="&#x309;" horiz-adv-x="0" 
d="M-210 646q0 -25 -11 -43.5t-28 -32t-39 -22t-43 -11.5l-3 5q14 18 22 31.5t11.5 24t4 19t0.5 17.5q0 15 -6 28.5t-18.5 20.5t-31 6t-43.5 -16l-4 6q17 25 43.5 41.5t49.5 16.5q41 0 68.5 -26t27.5 -65z" />
    <glyph glyph-name="uni031B" unicode="&#x31b;" horiz-adv-x="0" 
d="M-173 493q49 0 72.5 18t23.5 45q0 60 -43 70q9 11 25.5 16.5t36.5 5.5q33 0 57 -20t24 -55q0 -24 -17.5 -42t-45.5 -29.5t-63 -17t-70 -5.5v14z" />
    <glyph glyph-name="dotbelowcomb" unicode="&#x323;" horiz-adv-x="0" 
d="M-325 -127q0 32 21.5 52t53.5 20t54.5 -20t22.5 -52q0 -29 -22.5 -50.5t-54.5 -21.5t-53.5 21.5t-21.5 50.5z" />
    <glyph glyph-name="Wgrave" unicode="&#x1e80;" horiz-adv-x="985" 
d="M536 931q2 -51 10.5 -102.5t33.5 -93.5h-6q-155 76 -215 196h177zM315 -10h-5l-243 598q-19 47 -35 69.5t-39 40.5v2h298v-2q-20 -12 -30 -25.5t-10 -32.5q0 -23 12 -55l130 -329l87 228l-40 104q-19 47 -34.5 69.5t-38.5 40.5v2h293v-2q-20 -12 -30 -25.5t-10 -32.5
q0 -13 3.5 -26t8.5 -29l118 -334l121 322q8 24 8 42q0 53 -55 83v2h170v-2q-25 -19 -47 -47t-39 -73l-232 -588h-5l-176 457z" />
    <glyph glyph-name="wgrave" unicode="&#x1e81;" horiz-adv-x="788" 
d="M419 749q2 -53 11.5 -106t34.5 -98h-5q-155 80 -216 204h175zM250 -10h-2l-185 397q-10 22 -18 37.5t-15.5 27t-16.5 21t-21 20.5v2h258v-2q-12 -10 -17 -19.5t-5 -25.5q0 -14 4.5 -28t10.5 -28l86 -188l65 136l-20 47q-10 23 -18 38t-16 26.5t-17 21t-21 20.5v2h261v-2
q-30 -19 -30 -46q0 -12 4.5 -26t9.5 -29l68 -181l74 176q9 20 9 40q0 22 -12.5 39.5t-38.5 26.5v2h149v-2q-13 -10 -22.5 -19.5t-18 -21t-17 -27t-19.5 -39.5l-175 -396h-2l-136 322z" />
    <glyph glyph-name="Wacute" unicode="&#x1e82;" horiz-adv-x="985" 
d="M643 931q-31 -60 -84 -109t-132 -87h-5q24 42 33 93.5t11 102.5h177zM315 -10h-5l-243 598q-19 47 -35 69.5t-39 40.5v2h298v-2q-20 -12 -30 -25.5t-10 -32.5q0 -23 12 -55l130 -329l87 228l-40 104q-19 47 -34.5 69.5t-38.5 40.5v2h293v-2q-20 -12 -30 -25.5t-10 -32.5
q0 -13 3.5 -26t8.5 -29l118 -334l121 322q8 24 8 42q0 53 -55 83v2h170v-2q-25 -19 -47 -47t-39 -73l-232 -588h-5l-176 457z" />
    <glyph glyph-name="wacute" unicode="&#x1e83;" horiz-adv-x="788" 
d="M541 749q-60 -124 -215 -204h-6q25 45 35 98t12 106h174zM250 -10h-2l-185 397q-10 22 -18 37.5t-15.5 27t-16.5 21t-21 20.5v2h258v-2q-12 -10 -17 -19.5t-5 -25.5q0 -14 4.5 -28t10.5 -28l86 -188l65 136l-20 47q-10 23 -18 38t-16 26.5t-17 21t-21 20.5v2h261v-2
q-30 -19 -30 -46q0 -12 4.5 -26t9.5 -29l68 -181l74 176q9 20 9 40q0 22 -12.5 39.5t-38.5 26.5v2h149v-2q-13 -10 -22.5 -19.5t-18 -21t-17 -27t-19.5 -39.5l-175 -396h-2l-136 322z" />
    <glyph glyph-name="Wdieresis" unicode="&#x1e84;" horiz-adv-x="985" 
d="M396 745q-37 0 -62 26t-25 62q0 37 25 63.5t62 26.5t62.5 -26.5t25.5 -63.5q0 -36 -25.5 -62t-62.5 -26zM607 745q-37 0 -63 26t-26 62q0 37 26 63.5t63 26.5t62.5 -26.5t25.5 -63.5q0 -36 -25.5 -62t-62.5 -26zM315 -10h-5l-243 598q-19 47 -35 69.5t-39 40.5v2h298v-2
q-20 -12 -30 -25.5t-10 -32.5q0 -23 12 -55l130 -329l87 228l-40 104q-19 47 -34.5 69.5t-38.5 40.5v2h293v-2q-20 -12 -30 -25.5t-10 -32.5q0 -13 3.5 -26t8.5 -29l118 -334l121 322q8 24 8 42q0 53 -55 83v2h170v-2q-25 -19 -47 -47t-39 -73l-232 -588h-5l-176 457z" />
    <glyph glyph-name="wdieresis" unicode="&#x1e85;" horiz-adv-x="788" 
d="M295 553q-37 0 -62 26t-25 62q0 37 25 63.5t62 26.5t62.5 -26.5t25.5 -63.5q0 -36 -25.5 -62t-62.5 -26zM506 553q-37 0 -63 26t-26 62q0 37 26 63.5t63 26.5t62.5 -26.5t25.5 -63.5q0 -36 -25.5 -62t-62.5 -26zM250 -10h-2l-185 397q-10 22 -18 37.5t-15.5 27t-16.5 21
t-21 20.5v2h258v-2q-12 -10 -17 -19.5t-5 -25.5q0 -14 4.5 -28t10.5 -28l86 -188l65 136l-20 47q-10 23 -18 38t-16 26.5t-17 21t-21 20.5v2h261v-2q-30 -19 -30 -46q0 -12 4.5 -26t9.5 -29l68 -181l74 176q9 20 9 40q0 22 -12.5 39.5t-38.5 26.5v2h149v-2
q-13 -10 -22.5 -19.5t-18 -21t-17 -27t-19.5 -39.5l-175 -396h-2l-136 322z" />
    <glyph glyph-name="uni1EA0" unicode="&#x1ea0;" horiz-adv-x="745" 
d="M0 0v2q28 18 49.5 46t43.5 75l275 587h4l292 -598q11 -23 20.5 -40t18.5 -29.5t19 -22t23 -18.5v-2h-315v2q22 13 32 26t10 30q0 14 -3.5 27.5t-11.5 29.5l-43 91h-248l-34 -75q-13 -29 -13 -54q0 -23 13.5 -42.5t41.5 -32.5v-2h-174zM400 235l-113 241l-108 -241h221z
M297 -127q0 32 21.5 52t53.5 20t54.5 -20t22.5 -52q0 -29 -22.5 -50.5t-54.5 -21.5t-53.5 21.5t-21.5 50.5z" />
    <glyph glyph-name="uni1EA1" unicode="&#x1ea1;" horiz-adv-x="565" 
d="M585 37q-19 -21 -52 -33.5t-69 -12.5q-61 0 -92.5 24t-38.5 65q0 3 -1 12.5t-1 13.5q-12 -51 -54.5 -82t-106.5 -31q-29 0 -56 7.5t-47.5 23t-32.5 39t-12 55.5q0 42 19 69t51.5 43.5t74 26.5t86.5 18l76 14v97q0 19 -4 37t-13 32.5t-23.5 23t-35.5 8.5q-35 0 -53 -22
t-18 -54q0 -61 48 -61q9 0 19 3q-15 -29 -42.5 -44t-64.5 -15q-39 0 -67 22.5t-28 61.5q0 29 15.5 52.5t43 40t66.5 25.5t86 9q124 0 186.5 -40.5t62.5 -134.5q0 -46 -1 -93t-1 -101q0 -49 10 -75t47 -26q5 0 11.5 1t11.5 3v-2zM287 261q-48 -10 -69.5 -38.5t-21.5 -77.5
q0 -38 14.5 -60.5t43.5 -22.5q35 0 54.5 30t19.5 73l1 106zM207 -127q0 32 21.5 52t53.5 20t54.5 -20t22.5 -52q0 -29 -22.5 -50.5t-54.5 -21.5t-53.5 21.5t-21.5 50.5z" />
    <glyph glyph-name="uni1EA2" unicode="&#x1ea2;" horiz-adv-x="745" 
d="M467 870q0 -25 -11 -43.5t-28 -32t-39 -22t-43 -11.5l-3 5q14 18 22 31.5t11.5 24t4 19t0.5 17.5q0 15 -6 28.5t-18.5 20.5t-31 6t-43.5 -16l-4 6q17 25 43.5 41.5t49.5 16.5q41 0 68.5 -26t27.5 -65zM0 0v2q28 18 49.5 46t43.5 75l275 587h4l292 -598q11 -23 20.5 -40
t18.5 -29.5t19 -22t23 -18.5v-2h-315v2q22 13 32 26t10 30q0 14 -3.5 27.5t-11.5 29.5l-43 91h-248l-34 -75q-13 -29 -13 -54q0 -23 13.5 -42.5t41.5 -32.5v-2h-174zM400 235l-113 241l-108 -241h221z" />
    <glyph glyph-name="uni1EA3" unicode="&#x1ea3;" horiz-adv-x="565" 
d="M377 665q0 -25 -11 -43.5t-28 -32t-39 -22t-43 -11.5l-3 5q14 18 22 31.5t11.5 24t4 19t0.5 17.5q0 15 -6 28.5t-18.5 20.5t-31 6t-43.5 -16l-4 6q17 25 43.5 41.5t49.5 16.5q41 0 68.5 -26t27.5 -65zM585 37q-19 -21 -52 -33.5t-69 -12.5q-61 0 -92.5 24t-38.5 65
q0 3 -1 12.5t-1 13.5q-12 -51 -54.5 -82t-106.5 -31q-29 0 -56 7.5t-47.5 23t-32.5 39t-12 55.5q0 42 19 69t51.5 43.5t74 26.5t86.5 18l76 14v97q0 19 -4 37t-13 32.5t-23.5 23t-35.5 8.5q-35 0 -53 -22t-18 -54q0 -61 48 -61q9 0 19 3q-15 -29 -42.5 -44t-64.5 -15
q-39 0 -67 22.5t-28 61.5q0 29 15.5 52.5t43 40t66.5 25.5t86 9q124 0 186.5 -40.5t62.5 -134.5q0 -46 -1 -93t-1 -101q0 -49 10 -75t47 -26q5 0 11.5 1t11.5 3v-2zM287 261q-48 -10 -69.5 -38.5t-21.5 -77.5q0 -38 14.5 -60.5t43.5 -22.5q35 0 54.5 30t19.5 73l1 106z" />
    <glyph glyph-name="uni1EA4" unicode="&#x1ea4;" horiz-adv-x="745" 
d="M669 994q-47 -93 -162 -153h-5q19 33 26.5 73.5t9.5 79.5h131zM504 735q-38 11 -71.5 28.5t-59.5 36.5q-26 -19 -59.5 -36.5t-71.5 -28.5h-7q19 19 39.5 42.5t39 47.5t33.5 47.5t24 42.5h4q9 -19 24 -42.5t33.5 -47.5t39 -47.5t39.5 -42.5h-7zM0 0v2q28 18 49.5 46
t43.5 75l275 587h4l292 -598q11 -23 20.5 -40t18.5 -29.5t19 -22t23 -18.5v-2h-315v2q22 13 32 26t10 30q0 14 -3.5 27.5t-11.5 29.5l-43 91h-248l-34 -75q-13 -29 -13 -54q0 -23 13.5 -42.5t41.5 -32.5v-2h-174zM400 235l-113 241l-108 -241h221z" />
    <glyph glyph-name="uni1EA5" unicode="&#x1ea5;" horiz-adv-x="565" 
d="M579 789q-47 -93 -162 -153h-5q19 33 26.5 73.5t9.5 79.5h131zM414 530q-38 11 -71.5 28.5t-59.5 36.5q-26 -19 -59.5 -36.5t-71.5 -28.5h-7q19 19 39.5 42.5t39 47.5t33.5 47.5t24 42.5h4q9 -19 24 -42.5t33.5 -47.5t39 -47.5t39.5 -42.5h-7zM585 37q-19 -21 -52 -33.5
t-69 -12.5q-61 0 -92.5 24t-38.5 65q0 3 -1 12.5t-1 13.5q-12 -51 -54.5 -82t-106.5 -31q-29 0 -56 7.5t-47.5 23t-32.5 39t-12 55.5q0 42 19 69t51.5 43.5t74 26.5t86.5 18l76 14v97q0 19 -4 37t-13 32.5t-23.5 23t-35.5 8.5q-35 0 -53 -22t-18 -54q0 -61 48 -61q9 0 19 3
q-15 -29 -42.5 -44t-64.5 -15q-39 0 -67 22.5t-28 61.5q0 29 15.5 52.5t43 40t66.5 25.5t86 9q124 0 186.5 -40.5t62.5 -134.5q0 -46 -1 -93t-1 -101q0 -49 10 -75t47 -26q5 0 11.5 1t11.5 3v-2zM287 261q-48 -10 -69.5 -38.5t-21.5 -77.5q0 -38 14.5 -60.5t43.5 -22.5
q35 0 54.5 30t19.5 73l1 106z" />
    <glyph glyph-name="uni1EA6" unicode="&#x1ea6;" horiz-adv-x="745" 
d="M508 1025q1 -39 8.5 -79.5t26.5 -73.5h-4q-60 31 -100 69t-63 84h132zM504 735q-38 11 -71.5 28.5t-59.5 36.5q-26 -19 -59.5 -36.5t-71.5 -28.5h-7q19 19 39.5 42.5t39 47.5t33.5 47.5t24 42.5h4q9 -19 24 -42.5t33.5 -47.5t39 -47.5t39.5 -42.5h-7zM0 0v2
q28 18 49.5 46t43.5 75l275 587h4l292 -598q11 -23 20.5 -40t18.5 -29.5t19 -22t23 -18.5v-2h-315v2q22 13 32 26t10 30q0 14 -3.5 27.5t-11.5 29.5l-43 91h-248l-34 -75q-13 -29 -13 -54q0 -23 13.5 -42.5t41.5 -32.5v-2h-174zM400 235l-113 241l-108 -241h221z" />
    <glyph glyph-name="uni1EA7" unicode="&#x1ea7;" horiz-adv-x="565" 
d="M418 820q1 -39 8.5 -79.5t26.5 -73.5h-4q-60 31 -100 69t-63 84h132zM414 530q-38 11 -71.5 28.5t-59.5 36.5q-26 -19 -59.5 -36.5t-71.5 -28.5h-7q19 19 39.5 42.5t39 47.5t33.5 47.5t24 42.5h4q9 -19 24 -42.5t33.5 -47.5t39 -47.5t39.5 -42.5h-7zM585 37
q-19 -21 -52 -33.5t-69 -12.5q-61 0 -92.5 24t-38.5 65q0 3 -1 12.5t-1 13.5q-12 -51 -54.5 -82t-106.5 -31q-29 0 -56 7.5t-47.5 23t-32.5 39t-12 55.5q0 42 19 69t51.5 43.5t74 26.5t86.5 18l76 14v97q0 19 -4 37t-13 32.5t-23.5 23t-35.5 8.5q-35 0 -53 -22t-18 -54
q0 -61 48 -61q9 0 19 3q-15 -29 -42.5 -44t-64.5 -15q-39 0 -67 22.5t-28 61.5q0 29 15.5 52.5t43 40t66.5 25.5t86 9q124 0 186.5 -40.5t62.5 -134.5q0 -46 -1 -93t-1 -101q0 -49 10 -75t47 -26q5 0 11.5 1t11.5 3v-2zM287 261q-48 -10 -69.5 -38.5t-21.5 -77.5
q0 -38 14.5 -60.5t43.5 -22.5q35 0 54.5 30t19.5 73l1 106z" />
    <glyph glyph-name="uni1EA8" unicode="&#x1ea8;" horiz-adv-x="745" 
d="M634 957q0 -25 -11 -43.5t-28 -32t-39 -22t-43 -11.5l-3 5q14 18 22 31.5t11.5 24t4 19t0.5 17.5q0 15 -6 28.5t-18.5 20.5t-31 6t-43.5 -16l-4 6q17 25 43.5 41.5t49.5 16.5q41 0 68.5 -26t27.5 -65zM504 735q-38 11 -71.5 28.5t-59.5 36.5q-26 -19 -59.5 -36.5
t-71.5 -28.5h-7q19 19 39.5 42.5t39 47.5t33.5 47.5t24 42.5h4q9 -19 24 -42.5t33.5 -47.5t39 -47.5t39.5 -42.5h-7zM0 0v2q28 18 49.5 46t43.5 75l275 587h4l292 -598q11 -23 20.5 -40t18.5 -29.5t19 -22t23 -18.5v-2h-315v2q22 13 32 26t10 30q0 14 -3.5 27.5t-11.5 29.5
l-43 91h-248l-34 -75q-13 -29 -13 -54q0 -23 13.5 -42.5t41.5 -32.5v-2h-174zM400 235l-113 241l-108 -241h221z" />
    <glyph glyph-name="uni1EA9" unicode="&#x1ea9;" horiz-adv-x="565" 
d="M544 752q0 -25 -11 -43.5t-28 -32t-39 -22t-43 -11.5l-3 5q14 18 22 31.5t11.5 24t4 19t0.5 17.5q0 15 -6 28.5t-18.5 20.5t-31 6t-43.5 -16l-4 6q17 25 43.5 41.5t49.5 16.5q41 0 68.5 -26t27.5 -65zM414 530q-38 11 -71.5 28.5t-59.5 36.5q-26 -19 -59.5 -36.5
t-71.5 -28.5h-7q19 19 39.5 42.5t39 47.5t33.5 47.5t24 42.5h4q9 -19 24 -42.5t33.5 -47.5t39 -47.5t39.5 -42.5h-7zM585 37q-19 -21 -52 -33.5t-69 -12.5q-61 0 -92.5 24t-38.5 65q0 3 -1 12.5t-1 13.5q-12 -51 -54.5 -82t-106.5 -31q-29 0 -56 7.5t-47.5 23t-32.5 39
t-12 55.5q0 42 19 69t51.5 43.5t74 26.5t86.5 18l76 14v97q0 19 -4 37t-13 32.5t-23.5 23t-35.5 8.5q-35 0 -53 -22t-18 -54q0 -61 48 -61q9 0 19 3q-15 -29 -42.5 -44t-64.5 -15q-39 0 -67 22.5t-28 61.5q0 29 15.5 52.5t43 40t66.5 25.5t86 9q124 0 186.5 -40.5
t62.5 -134.5q0 -46 -1 -93t-1 -101q0 -49 10 -75t47 -26q5 0 11.5 1t11.5 3v-2zM287 261q-48 -10 -69.5 -38.5t-21.5 -77.5q0 -38 14.5 -60.5t43.5 -22.5q35 0 54.5 30t19.5 73l1 106z" />
    <glyph glyph-name="uni1EAA" unicode="&#x1eaa;" horiz-adv-x="745" 
d="M514 1074q-5 -60 -29 -94.5t-61 -34.5q-19 0 -34.5 6t-30 13t-28.5 13t-31 6q-45 0 -64 -44h-4q5 60 29 94t61 34q19 0 34.5 -6t30 -13t29 -13t30.5 -6q45 0 64 45h4zM504 735q-38 11 -71.5 28.5t-59.5 36.5q-26 -19 -59.5 -36.5t-71.5 -28.5h-7q19 19 39.5 42.5t39 47.5
t33.5 47.5t24 42.5h4q9 -19 24 -42.5t33.5 -47.5t39 -47.5t39.5 -42.5h-7zM0 0v2q28 18 49.5 46t43.5 75l275 587h4l292 -598q11 -23 20.5 -40t18.5 -29.5t19 -22t23 -18.5v-2h-315v2q22 13 32 26t10 30q0 14 -3.5 27.5t-11.5 29.5l-43 91h-248l-34 -75q-13 -29 -13 -54
q0 -23 13.5 -42.5t41.5 -32.5v-2h-174zM400 235l-113 241l-108 -241h221z" />
    <glyph glyph-name="uni1EAB" unicode="&#x1eab;" horiz-adv-x="565" 
d="M424 869q-5 -60 -29 -94.5t-61 -34.5q-19 0 -34.5 6t-30 13t-28.5 13t-31 6q-45 0 -64 -44h-4q5 60 29 94t61 34q19 0 34.5 -6t30 -13t29 -13t30.5 -6q45 0 64 45h4zM414 530q-38 11 -71.5 28.5t-59.5 36.5q-26 -19 -59.5 -36.5t-71.5 -28.5h-7q19 19 39.5 42.5t39 47.5
t33.5 47.5t24 42.5h4q9 -19 24 -42.5t33.5 -47.5t39 -47.5t39.5 -42.5h-7zM585 37q-19 -21 -52 -33.5t-69 -12.5q-61 0 -92.5 24t-38.5 65q0 3 -1 12.5t-1 13.5q-12 -51 -54.5 -82t-106.5 -31q-29 0 -56 7.5t-47.5 23t-32.5 39t-12 55.5q0 42 19 69t51.5 43.5t74 26.5
t86.5 18l76 14v97q0 19 -4 37t-13 32.5t-23.5 23t-35.5 8.5q-35 0 -53 -22t-18 -54q0 -61 48 -61q9 0 19 3q-15 -29 -42.5 -44t-64.5 -15q-39 0 -67 22.5t-28 61.5q0 29 15.5 52.5t43 40t66.5 25.5t86 9q124 0 186.5 -40.5t62.5 -134.5q0 -46 -1 -93t-1 -101q0 -49 10 -75
t47 -26q5 0 11.5 1t11.5 3v-2zM287 261q-48 -10 -69.5 -38.5t-21.5 -77.5q0 -38 14.5 -60.5t43.5 -22.5q35 0 54.5 30t19.5 73l1 106z" />
    <glyph glyph-name="uni1EAC" unicode="&#x1eac;" horiz-adv-x="745" 
d="M504 735q-38 11 -71.5 28.5t-59.5 36.5q-26 -19 -59.5 -36.5t-71.5 -28.5h-7q19 19 39.5 42.5t39 47.5t33.5 47.5t24 42.5h4q9 -19 24 -42.5t33.5 -47.5t39 -47.5t39.5 -42.5h-7zM0 0v2q28 18 49.5 46t43.5 75l275 587h4l292 -598q11 -23 20.5 -40t18.5 -29.5t19 -22
t23 -18.5v-2h-315v2q22 13 32 26t10 30q0 14 -3.5 27.5t-11.5 29.5l-43 91h-248l-34 -75q-13 -29 -13 -54q0 -23 13.5 -42.5t41.5 -32.5v-2h-174zM400 235l-113 241l-108 -241h221zM297 -127q0 32 21.5 52t53.5 20t54.5 -20t22.5 -52q0 -29 -22.5 -50.5t-54.5 -21.5
t-53.5 21.5t-21.5 50.5z" />
    <glyph glyph-name="uni1EAD" unicode="&#x1ead;" horiz-adv-x="565" 
d="M414 530q-38 11 -71.5 28.5t-59.5 36.5q-26 -19 -59.5 -36.5t-71.5 -28.5h-7q19 19 39.5 42.5t39 47.5t33.5 47.5t24 42.5h4q9 -19 24 -42.5t33.5 -47.5t39 -47.5t39.5 -42.5h-7zM585 37q-19 -21 -52 -33.5t-69 -12.5q-61 0 -92.5 24t-38.5 65q0 3 -1 12.5t-1 13.5
q-12 -51 -54.5 -82t-106.5 -31q-29 0 -56 7.5t-47.5 23t-32.5 39t-12 55.5q0 42 19 69t51.5 43.5t74 26.5t86.5 18l76 14v97q0 19 -4 37t-13 32.5t-23.5 23t-35.5 8.5q-35 0 -53 -22t-18 -54q0 -61 48 -61q9 0 19 3q-15 -29 -42.5 -44t-64.5 -15q-39 0 -67 22.5t-28 61.5
q0 29 15.5 52.5t43 40t66.5 25.5t86 9q124 0 186.5 -40.5t62.5 -134.5q0 -46 -1 -93t-1 -101q0 -49 10 -75t47 -26q5 0 11.5 1t11.5 3v-2zM287 261q-48 -10 -69.5 -38.5t-21.5 -77.5q0 -38 14.5 -60.5t43.5 -22.5q35 0 54.5 30t19.5 73l1 106zM207 -127q0 32 21.5 52
t53.5 20t54.5 -20t22.5 -52q0 -29 -22.5 -50.5t-54.5 -21.5t-53.5 21.5t-21.5 50.5z" />
    <glyph glyph-name="uni1EAE" unicode="&#x1eae;" horiz-adv-x="745" 
d="M533 1091q-47 -93 -162 -153h-5q19 33 26.5 73.5t9.5 79.5h131zM493 908q0 -70 -33 -111.5t-87 -41.5t-87 41.5t-33 111.5h4q3 -18 15 -31t28.5 -21.5t35.5 -12t37 -3.5t37 3.5t35.5 12t28.5 21.5t15 31h4zM0 0v2q28 18 49.5 46t43.5 75l275 587h4l292 -598
q11 -23 20.5 -40t18.5 -29.5t19 -22t23 -18.5v-2h-315v2q22 13 32 26t10 30q0 14 -3.5 27.5t-11.5 29.5l-43 91h-248l-34 -75q-13 -29 -13 -54q0 -23 13.5 -42.5t41.5 -32.5v-2h-174zM400 235l-113 241l-108 -241h221z" />
    <glyph glyph-name="uni1EAF" unicode="&#x1eaf;" horiz-adv-x="565" 
d="M443 886q-47 -93 -162 -153h-5q19 33 26.5 73.5t9.5 79.5h131zM403 703q0 -70 -33 -111.5t-87 -41.5t-87 41.5t-33 111.5h4q3 -18 15 -31t28.5 -21.5t35.5 -12t37 -3.5t37 3.5t35.5 12t28.5 21.5t15 31h4zM585 37q-19 -21 -52 -33.5t-69 -12.5q-61 0 -92.5 24t-38.5 65
q0 3 -1 12.5t-1 13.5q-12 -51 -54.5 -82t-106.5 -31q-29 0 -56 7.5t-47.5 23t-32.5 39t-12 55.5q0 42 19 69t51.5 43.5t74 26.5t86.5 18l76 14v97q0 19 -4 37t-13 32.5t-23.5 23t-35.5 8.5q-35 0 -53 -22t-18 -54q0 -61 48 -61q9 0 19 3q-15 -29 -42.5 -44t-64.5 -15
q-39 0 -67 22.5t-28 61.5q0 29 15.5 52.5t43 40t66.5 25.5t86 9q124 0 186.5 -40.5t62.5 -134.5q0 -46 -1 -93t-1 -101q0 -49 10 -75t47 -26q5 0 11.5 1t11.5 3v-2zM287 261q-48 -10 -69.5 -38.5t-21.5 -77.5q0 -38 14.5 -60.5t43.5 -22.5q35 0 54.5 30t19.5 73l1 106z" />
    <glyph glyph-name="uni1EB0" unicode="&#x1eb0;" horiz-adv-x="745" 
d="M354 1081q1 -39 8.5 -79.5t26.5 -73.5h-4q-60 31 -100 69t-63 84h132zM493 908q0 -70 -33 -111.5t-87 -41.5t-87 41.5t-33 111.5h4q3 -18 15 -31t28.5 -21.5t35.5 -12t37 -3.5t37 3.5t35.5 12t28.5 21.5t15 31h4zM0 0v2q28 18 49.5 46t43.5 75l275 587h4l292 -598
q11 -23 20.5 -40t18.5 -29.5t19 -22t23 -18.5v-2h-315v2q22 13 32 26t10 30q0 14 -3.5 27.5t-11.5 29.5l-43 91h-248l-34 -75q-13 -29 -13 -54q0 -23 13.5 -42.5t41.5 -32.5v-2h-174zM400 235l-113 241l-108 -241h221z" />
    <glyph glyph-name="uni1EB1" unicode="&#x1eb1;" horiz-adv-x="565" 
d="M264 876q1 -39 8.5 -79.5t26.5 -73.5h-4q-60 31 -100 69t-63 84h132zM403 703q0 -70 -33 -111.5t-87 -41.5t-87 41.5t-33 111.5h4q3 -18 15 -31t28.5 -21.5t35.5 -12t37 -3.5t37 3.5t35.5 12t28.5 21.5t15 31h4zM585 37q-19 -21 -52 -33.5t-69 -12.5q-61 0 -92.5 24
t-38.5 65q0 3 -1 12.5t-1 13.5q-12 -51 -54.5 -82t-106.5 -31q-29 0 -56 7.5t-47.5 23t-32.5 39t-12 55.5q0 42 19 69t51.5 43.5t74 26.5t86.5 18l76 14v97q0 19 -4 37t-13 32.5t-23.5 23t-35.5 8.5q-35 0 -53 -22t-18 -54q0 -61 48 -61q9 0 19 3q-15 -29 -42.5 -44
t-64.5 -15q-39 0 -67 22.5t-28 61.5q0 29 15.5 52.5t43 40t66.5 25.5t86 9q124 0 186.5 -40.5t62.5 -134.5q0 -46 -1 -93t-1 -101q0 -49 10 -75t47 -26q5 0 11.5 1t11.5 3v-2zM287 261q-48 -10 -69.5 -38.5t-21.5 -77.5q0 -38 14.5 -60.5t43.5 -22.5q35 0 54.5 30t19.5 73
l1 106z" />
    <glyph glyph-name="uni1EB2" unicode="&#x1eb2;" horiz-adv-x="745" 
d="M478 1020q0 -25 -11 -43.5t-28 -32t-39 -22t-43 -11.5l-3 5q14 18 22 31.5t11.5 24t4 19t0.5 17.5q0 15 -6 28.5t-18.5 20.5t-31 6t-43.5 -16l-4 6q17 25 43.5 41.5t49.5 16.5q41 0 68.5 -26t27.5 -65zM493 908q0 -70 -33 -111.5t-87 -41.5t-87 41.5t-33 111.5h4
q3 -18 15 -31t28.5 -21.5t35.5 -12t37 -3.5t37 3.5t35.5 12t28.5 21.5t15 31h4zM0 0v2q28 18 49.5 46t43.5 75l275 587h4l292 -598q11 -23 20.5 -40t18.5 -29.5t19 -22t23 -18.5v-2h-315v2q22 13 32 26t10 30q0 14 -3.5 27.5t-11.5 29.5l-43 91h-248l-34 -75
q-13 -29 -13 -54q0 -23 13.5 -42.5t41.5 -32.5v-2h-174zM400 235l-113 241l-108 -241h221z" />
    <glyph glyph-name="uni1EB3" unicode="&#x1eb3;" horiz-adv-x="565" 
d="M388 815q0 -25 -11 -43.5t-28 -32t-39 -22t-43 -11.5l-3 5q14 18 22 31.5t11.5 24t4 19t0.5 17.5q0 15 -6 28.5t-18.5 20.5t-31 6t-43.5 -16l-4 6q17 25 43.5 41.5t49.5 16.5q41 0 68.5 -26t27.5 -65zM403 703q0 -70 -33 -111.5t-87 -41.5t-87 41.5t-33 111.5h4
q3 -18 15 -31t28.5 -21.5t35.5 -12t37 -3.5t37 3.5t35.5 12t28.5 21.5t15 31h4zM585 37q-19 -21 -52 -33.5t-69 -12.5q-61 0 -92.5 24t-38.5 65q0 3 -1 12.5t-1 13.5q-12 -51 -54.5 -82t-106.5 -31q-29 0 -56 7.5t-47.5 23t-32.5 39t-12 55.5q0 42 19 69t51.5 43.5t74 26.5
t86.5 18l76 14v97q0 19 -4 37t-13 32.5t-23.5 23t-35.5 8.5q-35 0 -53 -22t-18 -54q0 -61 48 -61q9 0 19 3q-15 -29 -42.5 -44t-64.5 -15q-39 0 -67 22.5t-28 61.5q0 29 15.5 52.5t43 40t66.5 25.5t86 9q124 0 186.5 -40.5t62.5 -134.5q0 -46 -1 -93t-1 -101q0 -49 10 -75
t47 -26q5 0 11.5 1t11.5 3v-2zM287 261q-48 -10 -69.5 -38.5t-21.5 -77.5q0 -38 14.5 -60.5t43.5 -22.5q35 0 54.5 30t19.5 73l1 106z" />
    <glyph glyph-name="uni1EB4" unicode="&#x1eb4;" horiz-adv-x="745" 
d="M534 1082q-5 -60 -29 -94.5t-61 -34.5q-19 0 -34.5 6t-30 13t-28.5 13t-31 6q-45 0 -64 -44h-4q5 60 29 94t61 34q19 0 34.5 -6t30 -13t29 -13t30.5 -6q45 0 64 45h4zM493 908q0 -70 -33 -111.5t-87 -41.5t-87 41.5t-33 111.5h4q3 -18 15 -31t28.5 -21.5t35.5 -12
t37 -3.5t37 3.5t35.5 12t28.5 21.5t15 31h4zM0 0v2q28 18 49.5 46t43.5 75l275 587h4l292 -598q11 -23 20.5 -40t18.5 -29.5t19 -22t23 -18.5v-2h-315v2q22 13 32 26t10 30q0 14 -3.5 27.5t-11.5 29.5l-43 91h-248l-34 -75q-13 -29 -13 -54q0 -23 13.5 -42.5t41.5 -32.5v-2
h-174zM400 235l-113 241l-108 -241h221z" />
    <glyph glyph-name="uni1EB5" unicode="&#x1eb5;" horiz-adv-x="565" 
d="M444 877q-5 -60 -29 -94.5t-61 -34.5q-19 0 -34.5 6t-30 13t-28.5 13t-31 6q-45 0 -64 -44h-4q5 60 29 94t61 34q19 0 34.5 -6t30 -13t29 -13t30.5 -6q45 0 64 45h4zM403 703q0 -70 -33 -111.5t-87 -41.5t-87 41.5t-33 111.5h4q3 -18 15 -31t28.5 -21.5t35.5 -12t37 -3.5
t37 3.5t35.5 12t28.5 21.5t15 31h4zM585 37q-19 -21 -52 -33.5t-69 -12.5q-61 0 -92.5 24t-38.5 65q0 3 -1 12.5t-1 13.5q-12 -51 -54.5 -82t-106.5 -31q-29 0 -56 7.5t-47.5 23t-32.5 39t-12 55.5q0 42 19 69t51.5 43.5t74 26.5t86.5 18l76 14v97q0 19 -4 37t-13 32.5
t-23.5 23t-35.5 8.5q-35 0 -53 -22t-18 -54q0 -61 48 -61q9 0 19 3q-15 -29 -42.5 -44t-64.5 -15q-39 0 -67 22.5t-28 61.5q0 29 15.5 52.5t43 40t66.5 25.5t86 9q124 0 186.5 -40.5t62.5 -134.5q0 -46 -1 -93t-1 -101q0 -49 10 -75t47 -26q5 0 11.5 1t11.5 3v-2zM287 261
q-48 -10 -69.5 -38.5t-21.5 -77.5q0 -38 14.5 -60.5t43.5 -22.5q35 0 54.5 30t19.5 73l1 106z" />
    <glyph glyph-name="uni1EB6" unicode="&#x1eb6;" horiz-adv-x="745" 
d="M493 908q0 -70 -33 -111.5t-87 -41.5t-87 41.5t-33 111.5h4q3 -18 15 -31t28.5 -21.5t35.5 -12t37 -3.5t37 3.5t35.5 12t28.5 21.5t15 31h4zM0 0v2q28 18 49.5 46t43.5 75l275 587h4l292 -598q11 -23 20.5 -40t18.5 -29.5t19 -22t23 -18.5v-2h-315v2q22 13 32 26t10 30
q0 14 -3.5 27.5t-11.5 29.5l-43 91h-248l-34 -75q-13 -29 -13 -54q0 -23 13.5 -42.5t41.5 -32.5v-2h-174zM400 235l-113 241l-108 -241h221zM297 -127q0 32 21.5 52t53.5 20t54.5 -20t22.5 -52q0 -29 -22.5 -50.5t-54.5 -21.5t-53.5 21.5t-21.5 50.5z" />
    <glyph glyph-name="uni1EB7" unicode="&#x1eb7;" horiz-adv-x="565" 
d="M403 703q0 -70 -33 -111.5t-87 -41.5t-87 41.5t-33 111.5h4q3 -18 15 -31t28.5 -21.5t35.5 -12t37 -3.5t37 3.5t35.5 12t28.5 21.5t15 31h4zM585 37q-19 -21 -52 -33.5t-69 -12.5q-61 0 -92.5 24t-38.5 65q0 3 -1 12.5t-1 13.5q-12 -51 -54.5 -82t-106.5 -31
q-29 0 -56 7.5t-47.5 23t-32.5 39t-12 55.5q0 42 19 69t51.5 43.5t74 26.5t86.5 18l76 14v97q0 19 -4 37t-13 32.5t-23.5 23t-35.5 8.5q-35 0 -53 -22t-18 -54q0 -61 48 -61q9 0 19 3q-15 -29 -42.5 -44t-64.5 -15q-39 0 -67 22.5t-28 61.5q0 29 15.5 52.5t43 40t66.5 25.5
t86 9q124 0 186.5 -40.5t62.5 -134.5q0 -46 -1 -93t-1 -101q0 -49 10 -75t47 -26q5 0 11.5 1t11.5 3v-2zM287 261q-48 -10 -69.5 -38.5t-21.5 -77.5q0 -38 14.5 -60.5t43.5 -22.5q35 0 54.5 30t19.5 73l1 106zM207 -127q0 32 21.5 52t53.5 20t54.5 -20t22.5 -52
q0 -29 -22.5 -50.5t-54.5 -21.5t-53.5 21.5t-21.5 50.5z" />
    <glyph glyph-name="uni1EB8" unicode="&#x1eb8;" horiz-adv-x="662" 
d="M515 700q25 0 42 2t28 7l34 -194h-2q-22 38 -43.5 67t-48.5 49.5t-61.5 31t-81.5 10.5h-114v-297h91q30 0 52.5 4.5t39 17.5t29.5 35t25 57h2v-252h-2q-12 35 -25 56t-29.5 33t-39 16t-52.5 4h-91v-320h130q50 0 86 13.5t64 37.5t50 56.5t44 69.5h2l-32 -204h-587v2
q17 11 27.5 22t16.5 24.5t8.5 31t2.5 42.5v457q0 25 -2.5 42.5t-8.5 31t-16.5 24t-27.5 21.5v2h490zM255 -127q0 32 21.5 52t53.5 20t54.5 -20t22.5 -52q0 -29 -22.5 -50.5t-54.5 -21.5t-53.5 21.5t-21.5 50.5z" />
    <glyph glyph-name="uni1EB9" unicode="&#x1eb9;" horiz-adv-x="536" 
d="M281 505q60 0 105 -18t74 -50t43.5 -74.5t14.5 -92.5h-318q0 -94 44.5 -146t116.5 -52q46 0 84 21t61 68l7 -3q-22 -81 -84.5 -124.5t-148.5 -43.5q-54 0 -101.5 17t-83 50t-56 81t-20.5 109q0 59 21 106.5t56.5 81.5t83 52t101.5 18zM346 291q0 42 -2 78t-9 62.5
t-20 41.5t-34 15q-39 0 -58.5 -54t-21.5 -143h145zM192 -127q0 32 21.5 52t53.5 20t54.5 -20t22.5 -52q0 -29 -22.5 -50.5t-54.5 -21.5t-53.5 21.5t-21.5 50.5z" />
    <glyph glyph-name="uni1EBA" unicode="&#x1eba;" horiz-adv-x="662" 
d="M425 870q0 -25 -11 -43.5t-28 -32t-39 -22t-43 -11.5l-3 5q14 18 22 31.5t11.5 24t4 19t0.5 17.5q0 15 -6 28.5t-18.5 20.5t-31 6t-43.5 -16l-4 6q17 25 43.5 41.5t49.5 16.5q41 0 68.5 -26t27.5 -65zM515 700q25 0 42 2t28 7l34 -194h-2q-22 38 -43.5 67t-48.5 49.5
t-61.5 31t-81.5 10.5h-114v-297h91q30 0 52.5 4.5t39 17.5t29.5 35t25 57h2v-252h-2q-12 35 -25 56t-29.5 33t-39 16t-52.5 4h-91v-320h130q50 0 86 13.5t64 37.5t50 56.5t44 69.5h2l-32 -204h-587v2q17 11 27.5 22t16.5 24.5t8.5 31t2.5 42.5v457q0 25 -2.5 42.5t-8.5 31
t-16.5 24t-27.5 21.5v2h490z" />
    <glyph glyph-name="uni1EBB" unicode="&#x1ebb;" horiz-adv-x="536" 
d="M362 665q0 -25 -11 -43.5t-28 -32t-39 -22t-43 -11.5l-3 5q14 18 22 31.5t11.5 24t4 19t0.5 17.5q0 15 -6 28.5t-18.5 20.5t-31 6t-43.5 -16l-4 6q17 25 43.5 41.5t49.5 16.5q41 0 68.5 -26t27.5 -65zM281 505q60 0 105 -18t74 -50t43.5 -74.5t14.5 -92.5h-318
q0 -94 44.5 -146t116.5 -52q46 0 84 21t61 68l7 -3q-22 -81 -84.5 -124.5t-148.5 -43.5q-54 0 -101.5 17t-83 50t-56 81t-20.5 109q0 59 21 106.5t56.5 81.5t83 52t101.5 18zM346 291q0 42 -2 78t-9 62.5t-20 41.5t-34 15q-39 0 -58.5 -54t-21.5 -143h145z" />
    <glyph glyph-name="uni1EBC" unicode="&#x1ebc;" horiz-adv-x="662" 
d="M472 893q-5 -60 -29 -94.5t-61 -34.5q-19 0 -34.5 6t-30 13t-28.5 13t-31 6q-45 0 -64 -44h-4q5 60 29 94t61 34q19 0 34.5 -6t30 -13t29 -13t30.5 -6q45 0 64 45h4zM515 700q25 0 42 2t28 7l34 -194h-2q-22 38 -43.5 67t-48.5 49.5t-61.5 31t-81.5 10.5h-114v-297h91
q30 0 52.5 4.5t39 17.5t29.5 35t25 57h2v-252h-2q-12 35 -25 56t-29.5 33t-39 16t-52.5 4h-91v-320h130q50 0 86 13.5t64 37.5t50 56.5t44 69.5h2l-32 -204h-587v2q17 11 27.5 22t16.5 24.5t8.5 31t2.5 42.5v457q0 25 -2.5 42.5t-8.5 31t-16.5 24t-27.5 21.5v2h490z" />
    <glyph glyph-name="uni1EBD" unicode="&#x1ebd;" horiz-adv-x="536" 
d="M409 688q-5 -60 -29 -94.5t-61 -34.5q-19 0 -34.5 6t-30 13t-28.5 13t-31 6q-45 0 -64 -44h-4q5 60 29 94t61 34q19 0 34.5 -6t30 -13t29 -13t30.5 -6q45 0 64 45h4zM281 505q60 0 105 -18t74 -50t43.5 -74.5t14.5 -92.5h-318q0 -94 44.5 -146t116.5 -52q46 0 84 21
t61 68l7 -3q-22 -81 -84.5 -124.5t-148.5 -43.5q-54 0 -101.5 17t-83 50t-56 81t-20.5 109q0 59 21 106.5t56.5 81.5t83 52t101.5 18zM346 291q0 42 -2 78t-9 62.5t-20 41.5t-34 15q-39 0 -58.5 -54t-21.5 -143h145z" />
    <glyph glyph-name="uni1EBE" unicode="&#x1ebe;" horiz-adv-x="662" 
d="M627 994q-47 -93 -162 -153h-5q19 33 26.5 73.5t9.5 79.5h131zM462 735q-38 11 -71.5 28.5t-59.5 36.5q-26 -19 -59.5 -36.5t-71.5 -28.5h-7q19 19 39.5 42.5t39 47.5t33.5 47.5t24 42.5h4q9 -19 24 -42.5t33.5 -47.5t39 -47.5t39.5 -42.5h-7zM515 700q25 0 42 2t28 7
l34 -194h-2q-22 38 -43.5 67t-48.5 49.5t-61.5 31t-81.5 10.5h-114v-297h91q30 0 52.5 4.5t39 17.5t29.5 35t25 57h2v-252h-2q-12 35 -25 56t-29.5 33t-39 16t-52.5 4h-91v-320h130q50 0 86 13.5t64 37.5t50 56.5t44 69.5h2l-32 -204h-587v2q17 11 27.5 22t16.5 24.5t8.5 31
t2.5 42.5v457q0 25 -2.5 42.5t-8.5 31t-16.5 24t-27.5 21.5v2h490z" />
    <glyph glyph-name="uni1EBF" unicode="&#x1ebf;" horiz-adv-x="536" 
d="M564 789q-47 -93 -162 -153h-5q19 33 26.5 73.5t9.5 79.5h131zM399 530q-38 11 -71.5 28.5t-59.5 36.5q-26 -19 -59.5 -36.5t-71.5 -28.5h-7q19 19 39.5 42.5t39 47.5t33.5 47.5t24 42.5h4q9 -19 24 -42.5t33.5 -47.5t39 -47.5t39.5 -42.5h-7zM281 505q60 0 105 -18
t74 -50t43.5 -74.5t14.5 -92.5h-318q0 -94 44.5 -146t116.5 -52q46 0 84 21t61 68l7 -3q-22 -81 -84.5 -124.5t-148.5 -43.5q-54 0 -101.5 17t-83 50t-56 81t-20.5 109q0 59 21 106.5t56.5 81.5t83 52t101.5 18zM346 291q0 42 -2 78t-9 62.5t-20 41.5t-34 15
q-39 0 -58.5 -54t-21.5 -143h145z" />
    <glyph glyph-name="uni1EC0" unicode="&#x1ec0;" horiz-adv-x="662" 
d="M466 1025q1 -39 8.5 -79.5t26.5 -73.5h-4q-60 31 -100 69t-63 84h132zM462 735q-38 11 -71.5 28.5t-59.5 36.5q-26 -19 -59.5 -36.5t-71.5 -28.5h-7q19 19 39.5 42.5t39 47.5t33.5 47.5t24 42.5h4q9 -19 24 -42.5t33.5 -47.5t39 -47.5t39.5 -42.5h-7zM515 700q25 0 42 2
t28 7l34 -194h-2q-22 38 -43.5 67t-48.5 49.5t-61.5 31t-81.5 10.5h-114v-297h91q30 0 52.5 4.5t39 17.5t29.5 35t25 57h2v-252h-2q-12 35 -25 56t-29.5 33t-39 16t-52.5 4h-91v-320h130q50 0 86 13.5t64 37.5t50 56.5t44 69.5h2l-32 -204h-587v2q17 11 27.5 22t16.5 24.5
t8.5 31t2.5 42.5v457q0 25 -2.5 42.5t-8.5 31t-16.5 24t-27.5 21.5v2h490z" />
    <glyph glyph-name="uni1EC1" unicode="&#x1ec1;" horiz-adv-x="536" 
d="M403 820q1 -39 8.5 -79.5t26.5 -73.5h-4q-60 31 -100 69t-63 84h132zM399 530q-38 11 -71.5 28.5t-59.5 36.5q-26 -19 -59.5 -36.5t-71.5 -28.5h-7q19 19 39.5 42.5t39 47.5t33.5 47.5t24 42.5h4q9 -19 24 -42.5t33.5 -47.5t39 -47.5t39.5 -42.5h-7zM281 505
q60 0 105 -18t74 -50t43.5 -74.5t14.5 -92.5h-318q0 -94 44.5 -146t116.5 -52q46 0 84 21t61 68l7 -3q-22 -81 -84.5 -124.5t-148.5 -43.5q-54 0 -101.5 17t-83 50t-56 81t-20.5 109q0 59 21 106.5t56.5 81.5t83 52t101.5 18zM346 291q0 42 -2 78t-9 62.5t-20 41.5t-34 15
q-39 0 -58.5 -54t-21.5 -143h145z" />
    <glyph glyph-name="uni1EC2" unicode="&#x1ec2;" horiz-adv-x="662" 
d="M592 957q0 -25 -11 -43.5t-28 -32t-39 -22t-43 -11.5l-3 5q14 18 22 31.5t11.5 24t4 19t0.5 17.5q0 15 -6 28.5t-18.5 20.5t-31 6t-43.5 -16l-4 6q17 25 43.5 41.5t49.5 16.5q41 0 68.5 -26t27.5 -65zM462 735q-38 11 -71.5 28.5t-59.5 36.5q-26 -19 -59.5 -36.5
t-71.5 -28.5h-7q19 19 39.5 42.5t39 47.5t33.5 47.5t24 42.5h4q9 -19 24 -42.5t33.5 -47.5t39 -47.5t39.5 -42.5h-7zM515 700q25 0 42 2t28 7l34 -194h-2q-22 38 -43.5 67t-48.5 49.5t-61.5 31t-81.5 10.5h-114v-297h91q30 0 52.5 4.5t39 17.5t29.5 35t25 57h2v-252h-2
q-12 35 -25 56t-29.5 33t-39 16t-52.5 4h-91v-320h130q50 0 86 13.5t64 37.5t50 56.5t44 69.5h2l-32 -204h-587v2q17 11 27.5 22t16.5 24.5t8.5 31t2.5 42.5v457q0 25 -2.5 42.5t-8.5 31t-16.5 24t-27.5 21.5v2h490z" />
    <glyph glyph-name="uni1EC3" unicode="&#x1ec3;" horiz-adv-x="536" 
d="M529 752q0 -25 -11 -43.5t-28 -32t-39 -22t-43 -11.5l-3 5q14 18 22 31.5t11.5 24t4 19t0.5 17.5q0 15 -6 28.5t-18.5 20.5t-31 6t-43.5 -16l-4 6q17 25 43.5 41.5t49.5 16.5q41 0 68.5 -26t27.5 -65zM399 530q-38 11 -71.5 28.5t-59.5 36.5q-26 -19 -59.5 -36.5
t-71.5 -28.5h-7q19 19 39.5 42.5t39 47.5t33.5 47.5t24 42.5h4q9 -19 24 -42.5t33.5 -47.5t39 -47.5t39.5 -42.5h-7zM281 505q60 0 105 -18t74 -50t43.5 -74.5t14.5 -92.5h-318q0 -94 44.5 -146t116.5 -52q46 0 84 21t61 68l7 -3q-22 -81 -84.5 -124.5t-148.5 -43.5
q-54 0 -101.5 17t-83 50t-56 81t-20.5 109q0 59 21 106.5t56.5 81.5t83 52t101.5 18zM346 291q0 42 -2 78t-9 62.5t-20 41.5t-34 15q-39 0 -58.5 -54t-21.5 -143h145z" />
    <glyph glyph-name="uni1EC4" unicode="&#x1ec4;" horiz-adv-x="662" 
d="M472 1074q-5 -60 -29 -94.5t-61 -34.5q-19 0 -34.5 6t-30 13t-28.5 13t-31 6q-45 0 -64 -44h-4q5 60 29 94t61 34q19 0 34.5 -6t30 -13t29 -13t30.5 -6q45 0 64 45h4zM462 735q-38 11 -71.5 28.5t-59.5 36.5q-26 -19 -59.5 -36.5t-71.5 -28.5h-7q19 19 39.5 42.5t39 47.5
t33.5 47.5t24 42.5h4q9 -19 24 -42.5t33.5 -47.5t39 -47.5t39.5 -42.5h-7zM515 700q25 0 42 2t28 7l34 -194h-2q-22 38 -43.5 67t-48.5 49.5t-61.5 31t-81.5 10.5h-114v-297h91q30 0 52.5 4.5t39 17.5t29.5 35t25 57h2v-252h-2q-12 35 -25 56t-29.5 33t-39 16t-52.5 4h-91
v-320h130q50 0 86 13.5t64 37.5t50 56.5t44 69.5h2l-32 -204h-587v2q17 11 27.5 22t16.5 24.5t8.5 31t2.5 42.5v457q0 25 -2.5 42.5t-8.5 31t-16.5 24t-27.5 21.5v2h490z" />
    <glyph glyph-name="uni1EC5" unicode="&#x1ec5;" horiz-adv-x="536" 
d="M409 869q-5 -60 -29 -94.5t-61 -34.5q-19 0 -34.5 6t-30 13t-28.5 13t-31 6q-45 0 -64 -44h-4q5 60 29 94t61 34q19 0 34.5 -6t30 -13t29 -13t30.5 -6q45 0 64 45h4zM399 530q-38 11 -71.5 28.5t-59.5 36.5q-26 -19 -59.5 -36.5t-71.5 -28.5h-7q19 19 39.5 42.5t39 47.5
t33.5 47.5t24 42.5h4q9 -19 24 -42.5t33.5 -47.5t39 -47.5t39.5 -42.5h-7zM281 505q60 0 105 -18t74 -50t43.5 -74.5t14.5 -92.5h-318q0 -94 44.5 -146t116.5 -52q46 0 84 21t61 68l7 -3q-22 -81 -84.5 -124.5t-148.5 -43.5q-54 0 -101.5 17t-83 50t-56 81t-20.5 109
q0 59 21 106.5t56.5 81.5t83 52t101.5 18zM346 291q0 42 -2 78t-9 62.5t-20 41.5t-34 15q-39 0 -58.5 -54t-21.5 -143h145z" />
    <glyph glyph-name="uni1EC6" unicode="&#x1ec6;" horiz-adv-x="662" 
d="M462 735q-38 11 -71.5 28.5t-59.5 36.5q-26 -19 -59.5 -36.5t-71.5 -28.5h-7q19 19 39.5 42.5t39 47.5t33.5 47.5t24 42.5h4q9 -19 24 -42.5t33.5 -47.5t39 -47.5t39.5 -42.5h-7zM515 700q25 0 42 2t28 7l34 -194h-2q-22 38 -43.5 67t-48.5 49.5t-61.5 31t-81.5 10.5
h-114v-297h91q30 0 52.5 4.5t39 17.5t29.5 35t25 57h2v-252h-2q-12 35 -25 56t-29.5 33t-39 16t-52.5 4h-91v-320h130q50 0 86 13.5t64 37.5t50 56.5t44 69.5h2l-32 -204h-587v2q17 11 27.5 22t16.5 24.5t8.5 31t2.5 42.5v457q0 25 -2.5 42.5t-8.5 31t-16.5 24t-27.5 21.5v2
h490zM255 -127q0 32 21.5 52t53.5 20t54.5 -20t22.5 -52q0 -29 -22.5 -50.5t-54.5 -21.5t-53.5 21.5t-21.5 50.5z" />
    <glyph glyph-name="uni1EC7" unicode="&#x1ec7;" horiz-adv-x="536" 
d="M399 530q-38 11 -71.5 28.5t-59.5 36.5q-26 -19 -59.5 -36.5t-71.5 -28.5h-7q19 19 39.5 42.5t39 47.5t33.5 47.5t24 42.5h4q9 -19 24 -42.5t33.5 -47.5t39 -47.5t39.5 -42.5h-7zM281 505q60 0 105 -18t74 -50t43.5 -74.5t14.5 -92.5h-318q0 -94 44.5 -146t116.5 -52
q46 0 84 21t61 68l7 -3q-22 -81 -84.5 -124.5t-148.5 -43.5q-54 0 -101.5 17t-83 50t-56 81t-20.5 109q0 59 21 106.5t56.5 81.5t83 52t101.5 18zM346 291q0 42 -2 78t-9 62.5t-20 41.5t-34 15q-39 0 -58.5 -54t-21.5 -143h145zM192 -127q0 32 21.5 52t53.5 20t54.5 -20
t22.5 -52q0 -29 -22.5 -50.5t-54.5 -21.5t-53.5 21.5t-21.5 50.5z" />
    <glyph glyph-name="uni1EC8" unicode="&#x1ec8;" horiz-adv-x="348" 
d="M268 870q0 -25 -11 -43.5t-28 -32t-39 -22t-43 -11.5l-3 5q14 18 22 31.5t11.5 24t4 19t0.5 17.5q0 15 -6 28.5t-18.5 20.5t-31 6t-43.5 -16l-4 6q17 25 43.5 41.5t49.5 16.5q41 0 68.5 -26t27.5 -65zM268 122q0 -25 2.5 -42.5t8.5 -31t17 -24.5t27 -22v-2h-298v2
q17 11 27.5 22t16.5 24.5t8.5 31t2.5 42.5v457q0 25 -2.5 42.5t-8.5 31t-16.5 24t-27.5 21.5v2h298v-2q-16 -11 -27 -21.5t-17 -24t-8.5 -31t-2.5 -42.5v-457z" />
    <glyph glyph-name="uni1EC9" unicode="&#x1ec9;" horiz-adv-x="309" 
d="M249 665q0 -25 -11 -43.5t-28 -32t-39 -22t-43 -11.5l-3 5q14 18 22 31.5t11.5 24t4 19t0.5 17.5q0 15 -6 28.5t-18.5 20.5t-31 6t-43.5 -16l-4 6q17 25 43.5 41.5t49.5 16.5q41 0 68.5 -26t27.5 -65zM247 109q0 -25 1 -40.5t6 -27t14.5 -20t25.5 -19.5v-2h-273v2
q17 11 26 19.5t14 20t6 27t1 40.5v275q0 26 -1.5 42t-7 27.5t-16 20.5t-28.5 19v2h232v-386z" />
    <glyph glyph-name="uni1ECA" unicode="&#x1eca;" horiz-adv-x="348" 
d="M268 122q0 -25 2.5 -42.5t8.5 -31t17 -24.5t27 -22v-2h-298v2q17 11 27.5 22t16.5 24.5t8.5 31t2.5 42.5v457q0 25 -2.5 42.5t-8.5 31t-16.5 24t-27.5 21.5v2h298v-2q-16 -11 -27 -21.5t-17 -24t-8.5 -31t-2.5 -42.5v-457zM98 -127q0 32 21.5 52t53.5 20t54.5 -20
t22.5 -52q0 -29 -22.5 -50.5t-54.5 -21.5t-53.5 21.5t-21.5 50.5z" />
    <glyph glyph-name="uni1ECB" unicode="&#x1ecb;" horiz-adv-x="309" 
d="M55 651q0 41 28.5 68t71.5 27q44 0 73 -27t29 -68t-29 -68.5t-73 -27.5q-43 0 -71.5 27.5t-28.5 68.5zM247 109q0 -25 1 -40.5t6 -27t14.5 -20t25.5 -19.5v-2h-273v2q17 11 26 19.5t14 20t6 27t1 40.5v275q0 26 -1.5 42t-7 27.5t-16 20.5t-28.5 19v2h232v-386zM79 -127
q0 32 21.5 52t53.5 20t54.5 -20t22.5 -52q0 -29 -22.5 -50.5t-54.5 -21.5t-53.5 21.5t-21.5 50.5z" />
    <glyph glyph-name="uni1ECC" unicode="&#x1ecc;" 
d="M745 350q0 -79 -27 -145t-75 -114t-114 -74.5t-143 -26.5q-78 0 -144 26.5t-114 74.5t-75 114t-27 145t27 145t75 114t114 74.5t144 26.5q77 0 143 -26.5t114 -74.5t75 -114t27 -145zM539 350q0 165 -33.5 252.5t-119.5 87.5t-120 -87.5t-34 -252.5t34 -252.5t120 -87.5
t119.5 87.5t33.5 252.5zM310 -127q0 32 21.5 52t53.5 20t54.5 -20t22.5 -52q0 -29 -22.5 -50.5t-54.5 -21.5t-53.5 21.5t-21.5 50.5z" />
    <glyph glyph-name="uni1ECD" unicode="&#x1ecd;" horiz-adv-x="588" 
d="M294 -10q-57 0 -107 18.5t-87.5 52t-59 81.5t-21.5 106t21.5 105.5t59 81t87.5 52t107 18.5t107 -18.5t87.5 -52t59 -81t21.5 -105.5t-21.5 -106t-59 -81.5t-87.5 -52t-107 -18.5zM294 7q47 0 66 61t19 180q0 118 -19 179t-66 61t-66 -61t-19 -179q0 -119 19 -180t66 -61
zM218 -127q0 32 21.5 52t53.5 20t54.5 -20t22.5 -52q0 -29 -22.5 -50.5t-54.5 -21.5t-53.5 21.5t-21.5 50.5z" />
    </font>
</defs>
</svg>
